STARTFONT 2.1
COMMENT
COMMENT Converted from TrueType font "c:\windows\desktop\dustismo\dustismo_roman.ttf" by "TTF2BDF 2.6".
COMMENT
FONT -FreeType-Dustismo Roman-Medium-R-Normal--50-360-100-100-P-233-ISO10646-1
SIZE 36 100 100
FONTBOUNDINGBOX 53 66 -6 -13
STARTPROPERTIES 20
FOUNDRY "FreeType"
FAMILY_NAME "Dustismo Roman"
WEIGHT_NAME "Medium"
SLANT "R"
SETWIDTH_NAME "Normal"
ADD_STYLE_NAME ""
PIXEL_SIZE 50
POINT_SIZE 360
RESOLUTION_X 100
RESOLUTION_Y 100
SPACING "P"
AVERAGE_WIDTH 233
CHARSET_REGISTRY "ISO10646"
CHARSET_ENCODING "1"
FONT_ASCENT 46
FONT_DESCENT 12
COPYRIGHT "Copyright (c) Dustin Norlander, 2003. This program is free software; you can redistribute it and/or modify it under the terms of the GNU General Public License as published by the Free Software Foundation; either version 2 of the License, or any later "
_TTF_FONTFILE "c:\windows\desktop\dustismo\dustismo_roman.ttf"
_TTF_PSNAME "DustismoRoman"
_XFREE86_GLYPH_RANGES "32_126 160_172 174_271 274_289 292_305 308_310 313_314 317_324 327_341 344_369 372_382 402 461_476 482_483 486_487 508_512 562 710_711 713 728 730_733 894 902 904_906 908 910_911 913_929 931_942 945_974 8211_8212 8216_8218 8220_8222 8224_8226 8230 8240 8249_8250 8260 8364 8482 8706 8710 8719_8722 8725 8729_8730 8734_8735 8747 8776_8777 8800_8802 8804_8805 8814_8815 8976 9472 9474 9484 9488 9492 9496 9500 9508 9516 9524 9532 9552_9580 9786 9792_9794 9827 9829_9830 9833_9836 64257_64258"
ENDPROPERTIES
CHARS 496
STARTCHAR 0020
ENCODING 32
SWIDTH 320 0
DWIDTH 16 0
BBX 1 1 0 0
BITMAP
00
ENDCHAR
STARTCHAR 0021
ENCODING 33
SWIDTH 180 0
DWIDTH 9 0
BBX 5 37 2 0
BITMAP
F8
F8
F8
F8
F8
F8
F8
F8
F8
F8
F8
F8
F8
F8
F8
F8
F8
F8
F8
F8
F8
70
70
70
70
70
70
70
00
00
00
00
F8
F8
F8
F8
F8
ENDCHAR
STARTCHAR 0022
ENCODING 34
SWIDTH 380 0
DWIDTH 19 0
BBX 15 9 2 27
BITMAP
F83E
F83E
F83E
F83E
783E
783C
783C
703C
701C
ENDCHAR
STARTCHAR 0023
ENCODING 35
SWIDTH 520 0
DWIDTH 26 0
BBX 24 36 1 0
BITMAP
003010
003030
003030
002030
002020
006020
006060
006060
004060
004040
3FFFFF
3FFFFF
00C0C0
0080C0
008080
018080
018180
018180
010180
010100
030100
030300
030300
020300
FFFFFC
FFFFFC
060200
060600
040600
040400
040400
0C0400
0C0C00
080C00
080C00
080800
ENDCHAR
STARTCHAR 0024
ENCODING 36
SWIDTH 500 0
DWIDTH 25 0
BBX 23 45 1 -5
BITMAP
003000
003000
003000
003000
00FC00
07FFE0
1F31E0
3E3060
7C3060
7C3060
F83020
F83000
F83000
F83000
F83000
FC3000
FC3000
7E3000
7F3000
3FF000
1FFC00
0FFF00
03FFC0
00FFE0
001FF0
0013F8
0031FC
0030FC
00307E
00303E
00303E
C0303E
C0303E
C0303E
C0307C
C0307C
E030F8
7031F0
3C37E0
0FFFC0
03FE00
003000
003000
003000
001000
ENDCHAR
STARTCHAR 0025
ENCODING 37
SWIDTH 500 0
DWIDTH 25 0
BBX 21 36 2 0
BITMAP
1E00C0
7F80C0
738080
E1C180
E1C180
E1C100
E1C300
E1C300
E1C600
738600
7F8400
1E0C00
000C00
001800
001800
001000
003000
003000
006000
006000
004000
00C000
00C000
018000
018000
0187E0
030FF0
030E70
021C38
061C38
061C38
0C1C38
0C1C38
080E70
180FF0
1807E0
ENDCHAR
STARTCHAR 0026
ENCODING 38
SWIDTH 640 0
DWIDTH 32 0
BBX 29 37 2 0
BITMAP
01F80000
03FC0000
0F860000
0F030000
1F030000
1F010000
1F010000
1F010000
0F030000
0F830000
0F870000
07C60000
07CC0000
03FC0000
03F80000
01F00000
01F00000
01F80000
03780000
067C0000
0C3E0000
181F01F8
381F01F8
700F8060
7007C040
F007C0C0
F003E0C0
F001F180
F000F900
F000FB00
F8007E00
F8003E00
7C003F00
3F00EF80
3FFF8FC0
0FFF1FF8
03F81FF8
ENDCHAR
STARTCHAR 0027
ENCODING 39
SWIDTH 180 0
DWIDTH 9 0
BBX 5 9 2 27
BITMAP
F8
F8
F8
F8
F8
F0
F0
F0
70
ENDCHAR
STARTCHAR 0028
ENCODING 40
SWIDTH 300 0
DWIDTH 15 0
BBX 12 48 2 -12
BITMAP
0010
0070
00E0
01C0
0380
0780
0F00
0E00
1E00
1E00
3C00
3C00
7C00
7C00
7800
7800
7800
F800
F800
F800
F800
F800
F800
F800
F800
F800
F800
F800
F800
F800
F800
7800
7800
7800
7C00
7C00
3C00
3C00
1E00
1E00
0E00
0F00
0780
0380
01C0
00E0
0070
0010
ENDCHAR
STARTCHAR 0029
ENCODING 41
SWIDTH 320 0
DWIDTH 16 0
BBX 12 48 2 -12
BITMAP
8000
C000
7000
3800
1C00
1E00
0F00
0700
0780
0780
03C0
03C0
03C0
03E0
01E0
01E0
01E0
01F0
01F0
01F0
01F0
01F0
01F0
01F0
01F0
01F0
01F0
01F0
01F0
01F0
01F0
01E0
01E0
03E0
03E0
03E0
03C0
03C0
0780
0780
0700
0F00
1E00
1C00
3800
7000
E000
8000
ENDCHAR
STARTCHAR 002A
ENCODING 42
SWIDTH 500 0
DWIDTH 25 0
BBX 22 21 1 10
BITMAP
003800
007C00
007C00
007C00
007C00
007C00
70383C
FC38FC
FF11FC
7F83FC
1F83F0
000000
000000
00C400
01C700
03C780
0787C0
0F83E0
1F03E0
1F01E0
0E00C0
ENDCHAR
STARTCHAR 002B
ENCODING 43
SWIDTH 440 0
DWIDTH 22 0
BBX 21 21 0 3
BITMAP
003000
003000
003000
003000
003000
003000
003000
003000
003000
FFFFF8
FFFFF8
003000
003000
003000
003000
003000
003000
003000
003000
003000
003000
ENDCHAR
STARTCHAR 002C
ENCODING 44
SWIDTH 180 0
DWIDTH 9 0
BBX 5 10 2 -5
BITMAP
F8
F8
F8
F8
F8
38
18
30
60
C0
ENDCHAR
STARTCHAR 002D
ENCODING 45
SWIDTH 420 0
DWIDTH 21 0
BBX 17 2 2 17
BITMAP
FFFF80
FFFF80
ENDCHAR
STARTCHAR 002E
ENCODING 46
SWIDTH 200 0
DWIDTH 10 0
BBX 5 5 2 0
BITMAP
F8
F8
F8
F8
F8
ENDCHAR
STARTCHAR 002F
ENCODING 47
SWIDTH 340 0
DWIDTH 17 0
BBX 15 36 1 0
BITMAP
0002
0006
0004
000C
000C
0008
0018
0010
0030
0030
0020
0060
0040
00C0
00C0
0080
0180
0100
0300
0300
0200
0600
0600
0400
0C00
0800
1800
1800
1000
3000
2000
6000
6000
4000
C000
8000
ENDCHAR
STARTCHAR 0030
ENCODING 48
SWIDTH 580 0
DWIDTH 29 0
BBX 25 37 2 -1
BITMAP
007F0000
03FFE000
07C1F000
0F80F800
1F007C00
1E007C00
3E003E00
3E003E00
7C001F00
7C001F00
7C001F00
7C001F00
FC001F80
F8000F80
F8000F80
F8000F80
F8000F80
F8000F80
F8000F80
F8000F80
F8000F80
F8000F80
F8000F80
F8000F80
F8000F80
78000F00
7C001F00
7C001F00
7C001F00
3C001E00
3E003E00
1E003C00
1F007C00
0F80F800
07C1F000
03FFE000
007F0000
ENDCHAR
STARTCHAR 0031
ENCODING 49
SWIDTH 240 0
DWIDTH 12 0
BBX 9 36 1 0
BITMAP
FE00
3E00
3E00
3E00
3E00
3E00
3E00
3E00
3E00
3E00
3E00
3E00
3E00
3E00
3E00
3E00
3E00
3E00
3E00
3E00
3E00
3E00
3E00
3E00
3E00
3E00
3E00
3E00
3E00
3E00
3E00
3E00
3E00
3E00
FF80
FF80
ENDCHAR
STARTCHAR 0032
ENCODING 50
SWIDTH 500 0
DWIDTH 25 0
BBX 22 36 2 0
BITMAP
00FE00
03FF80
0E0FC0
1803E0
3001F0
2001F0
6001F8
4000F8
4000F8
0000F8
0000F8
0000F8
0000F0
0001F0
0001E0
0003E0
0007C0
000780
000F00
001E00
003C00
007800
00F000
01E000
03C000
078000
0F0000
1E0000
3C0000
7C0000
780000
F8000C
F8000C
F8000C
FFFFFC
FFFFFC
ENDCHAR
STARTCHAR 0033
ENCODING 51
SWIDTH 480 0
DWIDTH 24 0
BBX 21 37 1 -1
BITMAP
01FC00
07FF00
0E1F80
1807C0
1003E0
3003E0
0003F0
0001F0
0001F0
0001F0
0001F0
0001F0
0001E0
0003E0
0003C0
0007C0
000F80
00FE00
00FF00
000FC0
0003E0
0003E0
0001F0
0001F0
0000F8
0000F8
0000F8
0000F8
0000F8
0000F8
C001F0
C001F0
E003E0
F007E0
F80FC0
FFFF00
01FC00
ENDCHAR
STARTCHAR 0034
ENCODING 52
SWIDTH 460 0
DWIDTH 23 0
BBX 22 36 0 0
BITMAP
0001C0
0003C0
0007C0
0007C0
000FC0
000FC0
001FC0
0037C0
0037C0
0067C0
0047C0
00C7C0
0187C0
0187C0
0307C0
0207C0
0607C0
0C07C0
0C07C0
1807C0
1007C0
3007C0
2007C0
7FFFFC
FFFFFC
FFFFFC
FFFFFC
FFFFFC
0007C0
0007C0
0007C0
0007C0
0007C0
0007C0
0007C0
0007C0
ENDCHAR
STARTCHAR 0035
ENCODING 53
SWIDTH 500 0
DWIDTH 25 0
BBX 23 37 1 -1
BITMAP
0FFFF8
0FFFF8
0F8000
0F8000
0F8000
0F8000
0F8000
0F8000
0F0000
1F0000
1F0000
1F0000
1F0000
1F0000
1FFE00
1FFFC0
1F07E0
1C03F0
0001F8
0000F8
00007C
00007C
00007E
00003E
00003E
40003E
C0003E
C0003E
E0003E
60007C
70007C
3000FC
1800F8
1C01F0
0F07E0
03FF80
00FE00
ENDCHAR
STARTCHAR 0036
ENCODING 54
SWIDTH 520 0
DWIDTH 26 0
BBX 23 37 2 -1
BITMAP
00FE00
03FF00
0FC180
0F80C0
1F0000
3E0000
3E0000
3E0000
7C0000
7C0000
7C0000
7C0000
780000
780000
F8FE00
FBFFC0
FE07E0
F803F0
F801F8
F800F8
F8007C
F8007C
F8003E
F8003E
F8003E
F8003E
F8003E
F8003E
7C003E
7C007C
7C007C
3E00FC
3E00F8
1F01F0
0F87E0
07FFC0
00FE00
ENDCHAR
STARTCHAR 0037
ENCODING 55
SWIDTH 460 0
DWIDTH 23 0
BBX 21 36 1 0
BITMAP
FFFFF8
FFFFF8
0000F8
0001F0
0001F0
0003E0
0003C0
0007C0
000F80
000F80
001F00
001F00
003E00
003E00
007C00
007800
00F800
00F800
01F000
01F000
03E000
03E000
03C000
07C000
07C000
0F8000
0F8000
0F8000
1F0000
1F0000
1F0000
1F0000
3E0000
3E0000
3E0000
3E0000
ENDCHAR
STARTCHAR 0038
ENCODING 56
SWIDTH 520 0
DWIDTH 26 0
BBX 22 37 2 -1
BITMAP
01FE00
07FF80
0F87C0
1F03E0
3E01F0
3E01F0
7C00F8
7C00F8
7C00F8
7C00F8
7C00F8
3E01F0
3E01F0
1F03E0
0F87C0
03FF00
03FF00
0F87C0
1F03E0
3E01F0
7C00F8
7C00F8
7800F8
F8007C
F8007C
F8007C
F8007C
F8007C
F8007C
FC00FC
7C00F8
7C00F8
3E01F0
1F03E0
0F87C0
07FF80
01FE00
ENDCHAR
STARTCHAR 0039
ENCODING 57
SWIDTH 520 0
DWIDTH 26 0
BBX 23 37 1 -1
BITMAP
01FE00
07FFC0
0FC3E0
1F01F0
3E00F8
7E00F8
7C007C
7C007C
F8003E
F8003E
F8003E
F8003E
F8003E
F8003E
F8003E
7C003E
7C003E
3E003E
3F007E
0FC1FE
07FFFC
01FE7C
00007C
00007C
000078
0000F8
0000F8
0000F0
0001F0
0001E0
0003E0
0007C0
000F80
001F00
007E00
0FF000
0F0000
ENDCHAR
STARTCHAR 003A
ENCODING 58
SWIDTH 160 0
DWIDTH 8 0
BBX 5 24 2 0
BITMAP
F8
F8
F8
F8
F8
00
00
00
00
00
00
00
00
00
00
00
00
00
00
F8
F8
F8
F8
F8
ENDCHAR
STARTCHAR 003B
ENCODING 59
SWIDTH 180 0
DWIDTH 9 0
BBX 5 29 2 -5
BITMAP
F8
F8
F8
F8
F8
00
00
00
00
00
00
00
00
00
00
00
00
00
00
F8
F8
F8
F8
F8
38
18
30
60
C0
ENDCHAR
STARTCHAR 003C
ENCODING 60
SWIDTH 440 0
DWIDTH 22 0
BBX 19 24 1 6
BITMAP
000020
0000E0
0001E0
0007C0
001F80
003E00
00F800
03F000
07C000
1F8000
3E0000
F80000
F80000
7E0000
1F0000
0FC000
03F000
00F800
007E00
001F80
0007C0
0003E0
0000E0
000020
ENDCHAR
STARTCHAR 003D
ENCODING 61
SWIDTH 400 0
DWIDTH 20 0
BBX 18 13 1 13
BITMAP
FFFFC0
FFFFC0
000000
000000
000000
000000
000000
000000
000000
000000
000000
FFFFC0
FFFFC0
ENDCHAR
STARTCHAR 003E
ENCODING 62
SWIDTH 440 0
DWIDTH 22 0
BBX 19 23 2 6
BITMAP
800000
E00000
F80000
7C0000
3F0000
0FC000
03E000
01F800
007E00
001F00
000FC0
0003E0
0007C0
001F80
007E00
00F800
03E000
0FC000
1F0000
7C0000
F80000
E00000
800000
ENDCHAR
STARTCHAR 003F
ENCODING 63
SWIDTH 480 0
DWIDTH 24 0
BBX 23 36 1 0
BITMAP
01FE00
0FFFC0
3F83E0
7E00F8
7C007C
FC007C
F8003E
F8003E
7C003E
7C007C
3C007C
0000F8
0001F0
0001E0
0007C0
000F80
001E00
001C00
003800
007000
007000
006000
006000
006000
006000
006000
006000
006000
006000
000000
000000
01F000
01F000
01F000
01F000
01F000
ENDCHAR
STARTCHAR 0040
ENCODING 64
SWIDTH 720 0
DWIDTH 36 0
BBX 32 35 2 0
BITMAP
0000FC00
0007FF80
001F03C0
007800E0
00F00030
01C00018
0380000C
0700000C
0E000006
0C03F806
180F07C7
381E03C3
303C03C3
307C07C3
60F80783
60F80783
60F00783
C1F00783
C1F00F87
C1F00F86
C1F00F06
C1F00F0C
C1F00F0C
C1F81F18
C0F83F38
E07EFE70
603FDFE0
701F0F80
70000000
38000200
1C000600
1F001C00
07C07800
03FFE000
007F8000
ENDCHAR
STARTCHAR 0041
ENCODING 65
SWIDTH 600 0
DWIDTH 30 0
BBX 29 36 1 0
BITMAP
00060000
000F0000
000F0000
000F0000
000F8000
001F8000
001F8000
001FC000
003FC000
0037C000
0037E000
0077E000
0063E000
0063F000
00E3F000
00C1F000
00C1F800
01C1F800
0180F800
0180FC00
0180FC00
03807C00
03FFFC00
03FFFE00
07007E00
06003E00
06003F00
0E003F00
0C001F00
0C001F80
1C001F80
18000F80
18000FC0
38000FC0
FE001FF8
FE001FF8
ENDCHAR
STARTCHAR 0042
ENCODING 66
SWIDTH 580 0
DWIDTH 29 0
BBX 26 36 1 0
BITMAP
FFFFC000
FFFFF000
1F01F800
1F007C00
1F003E00
1F003E00
1F001F00
1F001F00
1F001F00
1F001F00
1F001F00
1F001F00
1F003E00
1F003E00
1F007C00
1F01F800
1FFFF000
1FFFFC00
1F007E00
1F003F00
1F001F80
1F000F80
1F000F80
1F0007C0
1F0007C0
1F0007C0
1F0007C0
1F0007C0
1F0007C0
1F000F80
1F000F80
1F001F00
1F003F00
1F007E00
FFFFF800
FFFFE000
ENDCHAR
STARTCHAR 0043
ENCODING 67
SWIDTH 560 0
DWIDTH 28 0
BBX 24 37 2 -1
BITMAP
001FF0
00FFFE
03F03F
07C00F
0F8007
1F0003
3E0003
3E0000
7C0000
7C0000
7C0000
F80000
F80000
F80000
F80000
F80000
F80000
F80000
F80000
F80000
F80000
F80000
F80000
F80000
F80000
7C0000
7C0000
7C0000
7C0000
3E0000
3E0003
1F0003
0F8007
07C00F
03F03F
00FFFE
001FF0
ENDCHAR
STARTCHAR 0044
ENCODING 68
SWIDTH 620 0
DWIDTH 31 0
BBX 28 36 1 0
BITMAP
FFFFE000
FFFFFC00
1F00FE00
1F003F00
1F001F80
1F000FC0
1F0007C0
1F0007E0
1F0003E0
1F0003E0
1F0003E0
1F0003F0
1F0001F0
1F0001F0
1F0001F0
1F0001F0
1F0001F0
1F0001F0
1F0001F0
1F0001F0
1F0001F0
1F0001F0
1F0001F0
1F0001F0
1F0003F0
1F0003E0
1F0003E0
1F0003E0
1F0007E0
1F0007C0
1F000FC0
1F001F80
1F003F00
1F007E00
FFFFFC00
FFFFE000
ENDCHAR
STARTCHAR 0045
ENCODING 69
SWIDTH 520 0
DWIDTH 26 0
BBX 24 36 1 0
BITMAP
FFFFFF
FFFFFF
1F0003
1F0003
1F0000
1F0000
1F0000
1F0000
1F0000
1F0000
1F0000
1F0000
1F0000
1F0000
1F0060
1F0060
1F0060
1FFFE0
1FFFE0
1F0060
1F0060
1F0060
1F0000
1F0000
1F0000
1F0000
1F0000
1F0000
1F0000
1F0000
1F0000
1F0003
1F0003
1F0003
FFFFFF
FFFFFF
ENDCHAR
STARTCHAR 0046
ENCODING 70
SWIDTH 500 0
DWIDTH 25 0
BBX 23 36 1 0
BITMAP
FFFFFE
FFFFFE
1F0006
1F0006
1F0000
1F0000
1F0000
1F0000
1F0000
1F0000
1F0000
1F0000
1F0000
1F0000
1F0060
1F0060
1F0060
1FFFE0
1FFFE0
1F0060
1F0060
1F0060
1F0000
1F0000
1F0000
1F0000
1F0000
1F0000
1F0000
1F0000
1F0000
1F0000
1F0000
1F0000
FFE000
FFE000
ENDCHAR
STARTCHAR 0047
ENCODING 71
SWIDTH 640 0
DWIDTH 32 0
BBX 29 37 2 -1
BITMAP
007F8000
03FFF000
07E07C00
0F801E00
1F000F00
3F000700
3E000700
7E000300
7C000300
7C000300
7C000300
FC000000
F8000000
F8000000
F8000000
F8000000
F8000000
F8000000
F8000000
F8000000
F800FFF8
F800FFF8
F80007C0
F80007C0
F80007C0
7C0007C0
7C0007C0
7C0007C0
7C0007C0
3E000FC0
3E000F80
1F000F80
1F801F00
0FC03E00
07E07C00
01FFF000
007FC000
ENDCHAR
STARTCHAR 0048
ENCODING 72
SWIDTH 660 0
DWIDTH 33 0
BBX 31 36 1 0
BITMAP
FFE007FE
FFE007FE
1F0001F0
1F0001F0
1F0001F0
1F0001F0
1F0001F0
1F0001F0
1F0001F0
1F0001F0
1F0001F0
1F0001F0
1F0001F0
1F0001F0
1F0001F0
1F0001F0
1F0001F0
1FFFFFF0
1FFFFFF0
1F0001F0
1F0001F0
1F0001F0
1F0001F0
1F0001F0
1F0001F0
1F0001F0
1F0001F0
1F0001F0
1F0001F0
1F0001F0
1F0001F0
1F0001F0
1F0001F0
1F0001F0
FFE007FE
FFE007FE
ENDCHAR
STARTCHAR 0049
ENCODING 73
SWIDTH 280 0
DWIDTH 14 0
BBX 11 36 1 0
BITMAP
FFE0
FFE0
1F00
1F00
1F00
1F00
1F00
1F00
1F00
1F00
1F00
1F00
1F00
1F00
1F00
1F00
1F00
1F00
1F00
1F00
1F00
1F00
1F00
1F00
1F00
1F00
1F00
1F00
1F00
1F00
1F00
1F00
1F00
1F00
FFE0
FFE0
ENDCHAR
STARTCHAR 004A
ENCODING 74
SWIDTH 480 0
DWIDTH 24 0
BBX 22 37 1 -1
BITMAP
000FFC
000FFC
0003E0
0003E0
0003E0
0003E0
0003E0
0003E0
0003E0
0003E0
0003E0
0003E0
0003E0
0003E0
0003E0
0003E0
0003E0
0003E0
0003E0
0003E0
0003E0
0003E0
0003E0
0003E0
0003E0
0003E0
0003E0
0003E0
3003E0
F003E0
F003E0
7007E0
7807C0
3C0FC0
1E1F80
0FFF00
01F800
ENDCHAR
STARTCHAR 004B
ENCODING 75
SWIDTH 680 0
DWIDTH 34 0
BBX 30 36 1 0
BITMAP
FFE003F0
FFE003F0
1F000180
1F000700
1F000E00
1F001C00
1F003000
1F006000
1F00C000
1F038000
1F070000
1F0E0000
1F1C0000
1F300000
1F600000
1FE00000
1FF00000
1FF80000
1FFC0000
1FFE0000
1F7F0000
1F3F8000
1F1F8000
1F1FC000
1F0FE000
1F07F000
1F03F800
1F01FC00
1F00FE00
1F007F00
1F003F80
1F001FC0
1F000FC0
1F000FE0
FFE00FFC
FFE00FFC
ENDCHAR
STARTCHAR 004C
ENCODING 76
SWIDTH 500 0
DWIDTH 25 0
BBX 23 36 1 0
BITMAP
FFC000
FFC000
1F0000
1F0000
1F0000
1F0000
1F0000
1F0000
1F0000
1F0000
1F0000
1F0000
1F0000
1F0000
1F0000
1F0000
1F0000
1F0000
1F0000
1F0000
1F0000
1F0000
1F0000
1F0000
1F0000
1F0000
1F0000
1F0000
1F0000
1F0000
1F0000
1F0006
1F0006
1F0006
FFFFFE
FFFFFE
ENDCHAR
STARTCHAR 004D
ENCODING 77
SWIDTH 740 0
DWIDTH 37 0
BBX 35 36 1 0
BITMAP
FF80003FE0
FF80003FE0
1F80003F00
1FC0007F00
1FC0007F00
1FC0007F00
1FE000FF00
1FE000FF00
1BE000FF00
1BF001DF00
1BF001DF00
19F001DF00
19F8039F00
19F8039F00
18F8039F00
18FC071F00
18FC071F00
187C071F00
187E0E1F00
187E0E1F00
183E0E1F00
183F1C1F00
183F1C1F00
181F1C1F00
181FB81F00
181FB81F00
180FB01F00
180FF01F00
180FF01F00
1807E01F00
1807E01F00
1807E01F00
1803C01F00
1803C01F00
FF03C07FE0
FF01807FE0
ENDCHAR
STARTCHAR 004E
ENCODING 78
SWIDTH 620 0
DWIDTH 31 0
BBX 29 36 1 0
BITMAP
FF8007F8
FF8007F8
1FC000C0
1FC000C0
1FE000C0
1BF000C0
1BF000C0
19F800C0
19F800C0
18FC00C0
187E00C0
187E00C0
183F00C0
183F00C0
181F80C0
180FC0C0
180FC0C0
1807E0C0
1807E0C0
1803F0C0
1801F8C0
1801F8C0
1800FCC0
1800FEC0
18007EC0
18003FC0
18003FC0
18001FC0
18001FC0
18000FC0
180007C0
180007C0
180003C0
180003C0
FE0001C0
FE0000C0
ENDCHAR
STARTCHAR 004F
ENCODING 79
SWIDTH 640 0
DWIDTH 32 0
BBX 27 37 2 -1
BITMAP
007F8000
01FFF000
07E0FC00
0F807E00
1F003F00
1F001F00
3E000F80
7E000F80
7C000FC0
7C0007C0
FC0007C0
FC0007E0
FC0007E0
FC0007E0
F80007E0
F80003E0
F80003E0
F80003E0
F80003E0
F80003E0
F80003E0
F80003E0
F80007E0
F80007E0
FC0007E0
FC0007E0
FC0007C0
7C0007C0
7C000FC0
7E000F80
3E000F80
1F001F00
1F003F00
0F807E00
07E0FC00
01FFF000
007FC000
ENDCHAR
STARTCHAR 0050
ENCODING 80
SWIDTH 600 0
DWIDTH 30 0
BBX 27 36 1 0
BITMAP
FFFFE000
FFFFFC00
1F007E00
1F001F80
1F000F80
1F0007C0
1F0007C0
1F0003E0
1F0003E0
1F0003E0
1F0003E0
1F0003E0
1F0007C0
1F0007C0
1F000F80
1F001F80
1F007E00
1FFFFC00
1FFFE000
1F000000
1F000000
1F000000
1F000000
1F000000
1F000000
1F000000
1F000000
1F000000
1F000000
1F000000
1F000000
1F000000
1F000000
1F000000
FFE00000
FFE00000
ENDCHAR
STARTCHAR 0051
ENCODING 81
SWIDTH 620 0
DWIDTH 31 0
BBX 32 43 1 -7
BITMAP
007FC000
03FFF800
0FF0FE00
1FC03F00
1F801F00
3F000F80
3F000FC0
7E0007C0
7E0007E0
7C0003E0
7C0003E0
FC0003E0
FC0003F0
F80001F0
F80001F0
F80001F0
F80001F0
F80001F0
F80001F0
F80001F0
F80001F0
F80001F0
F80001F0
F80001F0
FC0003F0
7C0003E0
7C0003E0
7C0003E0
7E0007E0
3E0007C0
3F000FC0
1F000F80
1F801F00
0FC03F00
03F0FC00
00FFF000
000FF800
0000FE00
00003F00
00001F80
00000FE0
000007FF
000001FC
ENDCHAR
STARTCHAR 0052
ENCODING 82
SWIDTH 640 0
DWIDTH 32 0
BBX 31 36 1 0
BITMAP
FFFFE000
FFFFFC00
1F007E00
1F001F00
1F000F80
1F0007C0
1F0007C0
1F0003E0
1F0003E0
1F0003E0
1F0003E0
1F0003E0
1F0007C0
1F0007C0
1F000F80
1F001F80
1F007F00
1FFFFC00
1FFFF000
1F07E000
1F03E000
1F03F000
1F03F000
1F01F800
1F00F800
1F00FC00
1F007C00
1F007E00
1F003F00
1F003F80
1F001F80
1F000FC0
1F000FE0
1F0007F0
FFE003FE
FFE001FE
ENDCHAR
STARTCHAR 0053
ENCODING 83
SWIDTH 520 0
DWIDTH 26 0
BBX 23 37 2 -1
BITMAP
01FE00
0FFFE0
1F83F0
3F00F0
7E0070
7C0070
F80030
F80000
F80000
F80000
F80000
FC0000
FC0000
7E0000
7F0000
3FC000
1FF800
0FFF00
03FFC0
00FFE0
001FF0
0003F8
0000FC
00007C
00007E
00003E
00003E
C0003E
C0003E
E0003E
E0007C
E0007C
F000F8
7801F0
3E07E0
0FFFC0
03FE00
ENDCHAR
STARTCHAR 0054
ENCODING 84
SWIDTH 540 0
DWIDTH 27 0
BBX 25 36 1 0
BITMAP
FFFFFF80
FFFFFF80
C03E0380
C03E0380
C03E0380
003E0000
003E0000
003E0000
003E0000
003E0000
003E0000
003E0000
003E0000
003E0000
003E0000
003E0000
003E0000
003E0000
003E0000
003E0000
003E0000
003E0000
003E0000
003E0000
003E0000
003E0000
003E0000
003E0000
003E0000
003E0000
003E0000
003E0000
003E0000
003E0000
01FF8000
01FF8000
ENDCHAR
STARTCHAR 0055
ENCODING 85
SWIDTH 720 0
DWIDTH 36 0
BBX 34 37 1 -1
BITMAP
FFC001FFC0
FFC001FFC0
1F00003E00
1F00003E00
1F00003E00
1F00003E00
1F00003E00
1F00003E00
1F00003E00
1F00003E00
1F00003E00
1F00003E00
1F00003E00
1F00003E00
1F00003E00
1F00003E00
1F00003E00
1F00003E00
1F00003E00
1F00003E00
1F00003E00
1F00003E00
1F00003E00
1F00003E00
1F00003E00
1F80003E00
0F80007C00
0F80007C00
0F80007C00
07C0007800
07C000F800
03E000F800
03E001F000
01F003E000
00FC0FC000
003FFF8000
0007FC0000
ENDCHAR
STARTCHAR 0056
ENCODING 86
SWIDTH 600 0
DWIDTH 30 0
BBX 29 36 1 0
BITMAP
FFC003F8
FFC003F8
3F0000C0
1F0001C0
1F800180
1F800180
0F800380
0FC00300
0FC00300
07C00700
07E00600
07E00600
03E00600
03F00E00
03F00C00
01F00C00
01F81C00
01F81800
00F81800
00F83800
00FC3000
007C3000
007C7000
007E6000
007E6000
003EE000
003FC000
003FC000
001FC000
001FC000
001F8000
000F8000
000F8000
000F0000
00070000
00070000
ENDCHAR
STARTCHAR 0057
ENCODING 87
SWIDTH 860 0
DWIDTH 43 0
BBX 41 36 1 0
BITMAP
FFCFFFF83F80
FFCFFFF83F80
1F03F0C00C00
1F81F0C01C00
1F81F9C01800
0F81F9801800
0FC0F9803800
0FC0FF803000
07C0FF003000
07E07F007000
07E07F006000
03E07F006000
03F03E00E000
03F03E00C000
01F03F00C000
01F83F01C000
01F81F018000
00F81F818000
00FC1F818000
00FC1F838000
007C3FC30000
007C3FC30000
007E37C70000
003E77E60000
003E67E60000
003F63EE0000
003FE3FC0000
001FC3FC0000
001FC1FC0000
001FC1F80000
000FC1F80000
000F80F80000
000F80F00000
000780F00000
000700700000
000700700000
ENDCHAR
STARTCHAR 0058
ENCODING 88
SWIDTH 660 0
DWIDTH 33 0
BBX 29 36 2 0
BITMAP
FFC01FC0
FFC01FC0
1F000600
1F800E00
0F800C00
0FC01800
07C03800
07E03000
03F07000
01F06000
01F8E000
00F9C000
00FD8000
007F8000
003F0000
003F0000
001F0000
001F8000
001F8000
001FC000
003FE000
0033E000
0063F000
00E1F000
00C1F800
01C0FC00
01807C00
03007E00
03003E00
06003F00
0E001F00
0C000F80
1C000FC0
180007C0
FC001FF8
FC001FF8
ENDCHAR
STARTCHAR 0059
ENCODING 89
SWIDTH 620 0
DWIDTH 31 0
BBX 29 36 1 0
BITMAP
FFC001F8
FFC001F8
1F0000C0
0F8001C0
0FC00180
07C00300
07E00700
03E00600
03F00E00
01F00C00
00F81800
00F81800
007C3000
007C7000
003E6000
001FE000
001FC000
000F8000
000F8000
000F8000
000F8000
000F8000
000F8000
000F8000
000F8000
000F8000
000F8000
000F8000
000F8000
000F8000
000F8000
000F8000
000F8000
000F8000
007FE000
007FE000
ENDCHAR
STARTCHAR 005A
ENCODING 90
SWIDTH 580 0
DWIDTH 29 0
BBX 26 36 1 0
BITMAP
7FFFFFC0
7FFFFF80
60001F80
60001F00
60003F00
00003E00
00007C00
0000FC00
0000F800
0001F800
0001F000
0003F000
0007E000
0007C000
000FC000
000F8000
001F8000
001F0000
003E0000
007E0000
007C0000
00FC0000
00F80000
01F80000
03F00000
03E00000
07E00000
07C00000
0FC00000
0F800000
1F000000
3F0000C0
3E0000C0
7E0000C0
7FFFFFC0
FFFFFFC0
ENDCHAR
STARTCHAR 005B
ENCODING 91
SWIDTH 280 0
DWIDTH 14 0
BBX 11 48 2 -12
BITMAP
FFE0
FFE0
F800
F800
F800
F800
F800
F800
F800
F800
F800
F800
F800
F800
F800
F800
F800
F800
F800
F800
F800
F800
F800
F800
F800
F800
F800
F800
F800
F800
F800
F800
F800
F800
F800
F800
F800
F800
F800
F800
F800
F800
F800
F800
F800
F800
FFE0
FFE0
ENDCHAR
STARTCHAR 005C
ENCODING 92
SWIDTH 340 0
DWIDTH 17 0
BBX 15 36 1 0
BITMAP
8000
C000
4000
4000
6000
2000
3000
1000
1000
1800
0800
0C00
0400
0400
0600
0200
0300
0300
0100
0180
0080
00C0
00C0
0040
0060
0020
0030
0030
0010
0018
0008
000C
000C
0004
0006
0002
ENDCHAR
STARTCHAR 005D
ENCODING 93
SWIDTH 280 0
DWIDTH 14 0
BBX 12 48 0 -12
BITMAP
FFF0
FFF0
01F0
01F0
01F0
01F0
01F0
01F0
01F0
01F0
01F0
01F0
01F0
01F0
01F0
01F0
01F0
01F0
01F0
01F0
01F0
01F0
01F0
01F0
01F0
01F0
01F0
01F0
01F0
01F0
01F0
01F0
01F0
01F0
01F0
01F0
01F0
01F0
01F0
01F0
01F0
01F0
01F0
01F0
01F0
01F0
FFF0
FFF0
ENDCHAR
STARTCHAR 005E
ENCODING 94
SWIDTH 500 0
DWIDTH 25 0
BBX 20 17 3 19
BITMAP
006000
00F000
01F000
019800
031800
030C00
060C00
060600
0C0300
0C0300
180180
180180
3000C0
6000C0
600060
C00060
C00030
ENDCHAR
STARTCHAR 005F
ENCODING 95
SWIDTH 540 0
DWIDTH 27 0
BBX 22 2 2 -10
BITMAP
FFFFFC
FFFFFC
ENDCHAR
STARTCHAR 0060
ENCODING 96
SWIDTH 220 0
DWIDTH 11 0
BBX 8 8 1 27
BITMAP
F8
7C
7C
3E
1E
0F
07
06
ENDCHAR
STARTCHAR 0061
ENCODING 97
SWIDTH 540 0
DWIDTH 27 0
BBX 23 25 2 -1
BITMAP
03FE00
1FFF80
3C0FC0
3807E0
3003E0
3001F0
2001F0
0001F0
0001F0
0001F0
0003F0
001DF0
03E1F0
1F01F0
3C01F0
7C01F0
F801F0
F801F0
F803F0
F803F0
F807F0
FC0DF0
7E39F8
3FF0FE
0FC000
ENDCHAR
STARTCHAR 0062
ENCODING 98
SWIDTH 520 0
DWIDTH 26 0
BBX 24 37 1 -1
BITMAP
FF0000
1F0000
1F0000
1F0000
1F0000
1F0000
1F0000
1F0000
1F0000
1F0000
1F0000
1F0000
1F3F80
1FFFF0
1FE1F8
1F80FC
1F007C
1F007E
1F003E
1F003E
1F001F
1F001F
1F001F
1F001F
1F001F
1F001F
1F001F
1F001F
1F001F
1F001E
1F003E
1F003E
1F003C
1F007C
1F80F8
FF61F0
001F80
ENDCHAR
STARTCHAR 0063
ENCODING 99
SWIDTH 460 0
DWIDTH 23 0
BBX 19 25 2 -1
BITMAP
01F820
07FE60
1FC3E0
3F00E0
3E0060
7C0060
7C0020
7C0000
F80000
F80000
F80000
F80000
F80000
F80000
F80000
F80000
F80000
7C0000
7C0020
7E0020
3E0060
3F00C0
1F8380
0FFF00
01FC00
ENDCHAR
STARTCHAR 0064
ENCODING 100
SWIDTH 520 0
DWIDTH 26 0
BBX 24 37 1 -1
BITMAP
0007F8
0000F8
0000F8
0000F8
0000F8
0000F8
0000F8
0000F8
0000F8
0000F8
0000F8
0000F8
01FCF8
0FFFF8
1F87F8
3F01F8
3E00F8
7E00F8
7C00F8
7C00F8
F800F8
F800F8
F800F8
F800F8
F800F8
F800F8
F800F8
F800F8
F800F8
7800F8
7C00F8
7C00F8
3C00F8
3E00F8
1F01F8
0F86FF
01F800
ENDCHAR
STARTCHAR 0065
ENCODING 101
SWIDTH 500 0
DWIDTH 25 0
BBX 21 25 2 -1
BITMAP
01FC00
07FF00
1F07C0
3E03C0
3C01E0
7C01F0
7800F0
7800F0
F800F8
FFFFF8
FFFFF8
F80000
F80000
F80000
F80000
F80000
F80000
7C0000
7C0010
3C0018
3E0030
1F0060
0F81C0
07FF80
01FC00
ENDCHAR
STARTCHAR 0066
ENCODING 102
SWIDTH 320 0
DWIDTH 16 0
BBX 13 36 1 0
BITMAP
03E0
0FF8
0F98
1F00
1F00
1F00
1F00
1F00
1F00
1F00
1F00
1F00
FFE0
FFE0
1F00
1F00
1F00
1F00
1F00
1F00
1F00
1F00
1F00
1F00
1F00
1F00
1F00
1F00
1F00
1F00
1F00
1F00
1F00
1F00
FFE0
FFE0
ENDCHAR
STARTCHAR 0067
ENCODING 103
SWIDTH 520 0
DWIDTH 26 0
BBX 24 36 0 -12
BITMAP
003FFF
01FFFF
03E1F0
07C0F8
0F807C
0F807C
1F003C
1F003E
1F003E
1F003E
1F003E
1F003E
1F003C
0F807C
0F807C
07C0F8
03E1F0
01FFC0
003F80
000700
00FC00
03E000
07C000
03F000
00EF80
0780F0
1E003C
3C003E
78001F
F8001F
F8001F
F8001F
FC003E
7E00FE
3FFFF8
07FFC0
ENDCHAR
STARTCHAR 0068
ENCODING 104
SWIDTH 580 0
DWIDTH 29 0
BBX 27 36 1 0
BITMAP
FF000000
1F000000
1F000000
1F000000
1F000000
1F000000
1F000000
1F000000
1F000000
1F000000
1F000000
1F000000
1F1FC000
1F7FF000
1FE0F800
1FC07C00
1F003E00
1F003E00
1F001F00
1F001F00
1F001F00
1F001F00
1F001F00
1F001F00
1F001F00
1F001F00
1F001F00
1F001F00
1F001F00
1F001F00
1F001F00
1F001F00
1F001F00
1F001F00
FFE0FFE0
FFE0FFE0
ENDCHAR
STARTCHAR 0069
ENCODING 105
SWIDTH 280 0
DWIDTH 14 0
BBX 10 35 2 0
BITMAP
1F00
1F00
1F00
1F00
1F00
0000
0000
0000
0000
0000
0000
FF00
1F00
1F00
1F00
1F00
1F00
1F00
1F00
1F00
1F00
1F00
1F00
1F00
1F00
1F00
1F00
1F00
1F00
1F00
1F00
1F00
1F00
FFC0
FFC0
ENDCHAR
STARTCHAR 006A
ENCODING 106
SWIDTH 220 0
DWIDTH 11 0
BBX 8 47 1 -12
BITMAP
1F
1F
1F
1F
1F
00
00
00
00
00
00
FF
1F
1F
1F
1F
1F
1F
1F
1F
1F
1F
1F
1F
1F
1F
1F
1F
1F
1F
1F
1F
1F
1F
1F
1F
1F
1F
1F
1F
1F
1F
1F
1F
3E
FC
F0
ENDCHAR
STARTCHAR 006B
ENCODING 107
SWIDTH 500 0
DWIDTH 25 0
BBX 22 36 1 0
BITMAP
FF0000
1F0000
1F0000
1F0000
1F0000
1F0000
1F0000
1F0000
1F0000
1F0000
1F0000
1F0000
1F01F0
1F01F0
1F0180
1F0300
1F0600
1F0C00
1F1800
1F1000
1F2000
1F4000
1FC000
1FE000
1FE000
1FF000
1FF800
1F7C00
1F3E00
1F1F00
1F0F80
1F07C0
1F03E0
1F03F0
FFE3FC
FFE3FC
ENDCHAR
STARTCHAR 006C
ENCODING 108
SWIDTH 260 0
DWIDTH 13 0
BBX 11 36 1 0
BITMAP
FF00
1F00
1F00
1F00
1F00
1F00
1F00
1F00
1F00
1F00
1F00
1F00
1F00
1F00
1F00
1F00
1F00
1F00
1F00
1F00
1F00
1F00
1F00
1F00
1F00
1F00
1F00
1F00
1F00
1F00
1F00
1F00
1F00
1F00
FFE0
FFE0
ENDCHAR
STARTCHAR 006D
ENCODING 109
SWIDTH 820 0
DWIDTH 41 0
BBX 38 25 2 0
BITMAP
000C003000
FF77C1FE00
1FC3E60F00
1F81FC0780
1F00F807C0
1F00F803C0
1F00F803E0
1F00F803E0
1F00F803E0
1F00F803E0
1F00F803E0
1F00F803E0
1F00F803E0
1F00F803E0
1F00F803E0
1F00F803E0
1F00F803E0
1F00F803E0
1F00F803E0
1F00F803E0
1F00F803E0
1F00F803E0
1F00F803E0
FFE7FF1FFC
FFE7FF1FFC
ENDCHAR
STARTCHAR 006E
ENCODING 110
SWIDTH 600 0
DWIDTH 30 0
BBX 26 24 2 0
BITMAP
FF1F8000
1F7FE000
1FE1F800
1F80F800
1F007C00
1F007C00
1F003E00
1F003E00
1F003E00
1F003E00
1F003E00
1F003E00
1F003E00
1F003E00
1F003E00
1F003E00
1F003E00
1F003E00
1F003E00
1F003E00
1F003E00
1F003E00
FFE1FFC0
FFE1FFC0
ENDCHAR
STARTCHAR 006F
ENCODING 111
SWIDTH 520 0
DWIDTH 26 0
BBX 22 25 2 -1
BITMAP
01FE00
07FF80
1F87E0
3F03F0
3E01F0
7C00F8
7C00F8
7C00F8
F8007C
F8007C
F8007C
F8007C
F8007C
F8007C
F8007C
F8007C
F8007C
7C00F8
7C00F8
7C00F8
3E01F0
3F03F0
1F87E0
0FFFC0
01FE00
ENDCHAR
STARTCHAR 0070
ENCODING 112
SWIDTH 520 0
DWIDTH 26 0
BBX 24 36 1 -12
BITMAP
FF1F80
1FE1F0
1F80F8
1F007C
1F003C
1F003E
1F003E
1F001E
1F001F
1F001F
1F001F
1F001F
1F001F
1F001F
1F001F
1F001F
1F001F
1F003E
1F003E
1F007E
1F007C
1F80FC
1FE1F8
1F7FF0
1F1FC0
1F0000
1F0000
1F0000
1F0000
1F0000
1F0000
1F0000
1F0000
1F0000
FFE000
FFE000
ENDCHAR
STARTCHAR 0071
ENCODING 113
SWIDTH 520 0
DWIDTH 26 0
BBX 24 36 1 -12
BITMAP
01F8F8
0F86F8
1F01F8
3E00F8
3C00F8
7C00F8
7C00F8
F800F8
F800F8
F800F8
F800F8
F800F8
F800F8
F800F8
F800F8
F800F8
F800F8
7C00F8
7C00F8
7C00F8
3E00F8
3F01F8
1F87F8
0FFEF8
01F8F8
0000F8
0000F8
0000F8
0000F8
0000F8
0000F8
0000F8
0000F8
0000F8
0007FF
0007FF
ENDCHAR
STARTCHAR 0072
ENCODING 114
SWIDTH 440 0
DWIDTH 22 0
BBX 20 24 1 0
BITMAP
FF1F80
1F7FE0
1FE1F0
1F8060
1F0000
1F0000
1F0000
1F0000
1F0000
1F0000
1F0000
1F0000
1F0000
1F0000
1F0000
1F0000
1F0000
1F0000
1F0000
1F0000
1F0000
1F0000
FFE000
FFE000
ENDCHAR
STARTCHAR 0073
ENCODING 115
SWIDTH 440 0
DWIDTH 22 0
BBX 17 25 3 -1
BITMAP
07FF00
1FFF00
3E1F00
7C0F00
F80700
F80300
F80300
F80000
FC0000
7E0000
7FC000
3FF000
0FFC00
03FE00
007F00
001F00
001F80
000F80
800F80
C00F80
C01F80
E01F00
F87E00
CFFC00
03F000
ENDCHAR
STARTCHAR 0074
ENCODING 116
SWIDTH 320 0
DWIDTH 16 0
BBX 13 35 1 0
BITMAP
0080
0180
0380
0780
0F80
0F80
0F80
0F80
0F80
0F80
0F80
FFF8
FFF8
0F80
0F80
0F80
0F80
0F80
0F80
0F80
0F80
0F80
0F80
0F80
0F80
0F80
0F80
0F80
0F80
0F80
0F80
0F80
0FC0
07F8
00F8
ENDCHAR
STARTCHAR 0075
ENCODING 117
SWIDTH 580 0
DWIDTH 29 0
BBX 27 25 1 -1
BITMAP
FF00FF00
FF00FF00
1F001F00
1F001F00
1F001F00
1F001F00
1F001F00
1F001F00
1F001F00
1F001F00
1F001F00
1F001F00
1F001F00
1F001F00
1F001F00
1F001F00
1F001F00
1F001F00
1F001F00
0F801F00
0F803F00
07C07F00
03E0FF00
01FFDFE0
007F0000
ENDCHAR
STARTCHAR 0076
ENCODING 118
SWIDTH 520 0
DWIDTH 26 0
BBX 24 24 1 0
BITMAP
FF803F
FF803F
1F0008
1F0018
0F0018
0F8010
0F8030
07C020
07C060
03C060
03E040
03E0C0
01F080
01F180
01F180
00F900
00FB00
007E00
007E00
007E00
003C00
003C00
001800
001800
ENDCHAR
STARTCHAR 0077
ENCODING 119
SWIDTH 740 0
DWIDTH 37 0
BBX 35 24 1 0
BITMAP
FFDFFF07E0
FFDFFF07E0
1F03EC0100
0F03E80300
0F83F80200
0F81F00600
07C1F00600
07C0F80400
07C0F80C00
03E0F80800
03E07C1800
01F0FC1800
01F0FE1000
01F0BE3000
00F9BE3000
00F91F6000
007D1F6000
007F0FC000
007E0FC000
003E0FC000
003E078000
001C078000
001C030000
0018030000
ENDCHAR
STARTCHAR 0078
ENCODING 120
SWIDTH 540 0
DWIDTH 27 0
BBX 23 24 2 0
BITMAP
FFC07C
FFC07C
1F0020
1F8060
0FC0C0
0FC180
07E300
03F300
03F600
01FC00
00F800
00FC00
007E00
007E00
00FF00
00DF80
019F80
030FC0
0607E0
0407E0
0C03F0
1801F0
FC07FE
FC07FE
ENDCHAR
STARTCHAR 0079
ENCODING 121
SWIDTH 500 0
DWIDTH 25 0
BBX 23 36 1 -12
BITMAP
FFC07E
FFC07E
1F0018
1F0010
0F8030
0F8030
078020
07C060
07C060
03E040
03E0C0
01E080
01F180
01F180
00F900
00FB00
00FB00
007E00
007E00
003C00
003C00
003C00
001800
001800
001000
003000
003000
002000
006000
006000
004000
00C000
008000
018000
070000
0E0000
ENDCHAR
STARTCHAR 007A
ENCODING 122
SWIDTH 500 0
DWIDTH 25 0
BBX 21 24 2 0
BITMAP
FFFFF8
FFFFF0
C001E0
C003E0
C007C0
000780
000F80
001F00
003E00
003C00
007C00
00F800
00F000
01F000
03E000
03C000
07C000
0F8000
1F0000
1E0008
3E0008
7C0008
7FFFF8
FFFFF8
ENDCHAR
STARTCHAR 007B
ENCODING 123
SWIDTH 300 0
DWIDTH 15 0
BBX 12 48 1 -12
BITMAP
0030
01F0
03C0
0780
0F00
0F00
1F00
1F00
1F00
1F00
1F00
1F00
1F00
1F00
1F00
1F00
1F00
1F00
1F00
1F00
1E00
1E00
3C00
F000
E000
7800
3C00
1E00
1E00
1F00
1F00
1F00
1F00
1F00
1F00
1F00
1F00
1F00
1F00
1F00
1F00
1F00
1F00
0F00
0F80
0780
03E0
0070
ENDCHAR
STARTCHAR 007C
ENCODING 124
SWIDTH 140 0
DWIDTH 7 0
BBX 2 48 2 -12
BITMAP
C0
C0
C0
C0
C0
C0
C0
C0
C0
C0
C0
C0
C0
C0
C0
C0
C0
C0
C0
C0
C0
C0
C0
C0
C0
C0
C0
C0
C0
C0
C0
C0
C0
C0
C0
C0
C0
C0
C0
C0
C0
C0
C0
C0
C0
C0
C0
C0
ENDCHAR
STARTCHAR 007D
ENCODING 125
SWIDTH 300 0
DWIDTH 15 0
BBX 12 48 1 -12
BITMAP
C000
F800
3C00
1E00
0F00
0F00
0F80
0F80
0F80
0F80
0F80
0F80
0F80
0F80
0F80
0F80
0F80
0F80
0F80
0F80
0780
0780
03C0
00F0
0070
01E0
03C0
0780
0780
0F80
0F80
0F80
0F80
0F80
0F80
0F80
0F80
0F80
0F80
0F80
0F80
0F80
0F80
0F00
1F00
1E00
7C00
E000
ENDCHAR
STARTCHAR 007E
ENCODING 126
SWIDTH 580 0
DWIDTH 29 0
BBX 25 8 2 23
BITMAP
07C00000
1FF00100
3FF80180
787C0300
603F0F00
C00FFE00
4007FC00
0001F000
ENDCHAR
STARTCHAR 00A0
ENCODING 160
SWIDTH 320 0
DWIDTH 16 0
BBX 1 1 0 0
BITMAP
00
ENDCHAR
STARTCHAR 00A1
ENCODING 161
SWIDTH 180 0
DWIDTH 9 0
BBX 5 37 2 -12
BITMAP
F8
F8
F8
F8
F8
00
00
00
00
70
70
70
70
70
70
70
F8
F8
F8
F8
F8
F8
F8
F8
F8
F8
F8
F8
F8
F8
F8
F8
F8
F8
F8
F8
F8
ENDCHAR
STARTCHAR 00A2
ENCODING 162
SWIDTH 440 0
DWIDTH 22 0
BBX 19 36 1 -6
BITMAP
0000C0
000080
000180
000180
000300
000300
01FE20
0787E0
1F04E0
3E0460
3C0C60
7C0820
7C1800
781800
F81000
F83000
F82000
F86000
F86000
F84000
F8C000
F88000
FD8000
7D8000
7D0020
7F0020
3E0060
3F00C0
1F8380
07FF00
0DF800
0C0000
180000
180000
100000
300000
ENDCHAR
STARTCHAR 00A3
ENCODING 163
SWIDTH 540 0
DWIDTH 27 0
BBX 23 37 3 -1
BITMAP
01FC00
0FFF80
1F87C0
3E03E0
7C01E0
FC01F0
F801F0
F801F0
F80080
F80000
F80000
F80000
7C0000
7C0000
7E0000
3E0000
3E0000
1F0000
1F0000
1F8000
FFF800
FFF800
07C000
07C000
07C000
07C000
07C000
07C000
0F8000
0F8000
1F0000
3E0000
7E0000
FFC000
FEF87E
301FF8
0007E0
ENDCHAR
STARTCHAR 00A4
ENCODING 164
SWIDTH 560 0
DWIDTH 28 0
BBX 22 23 3 6
BITMAP
800004
C0FC0C
63FF38
3787F0
1E01E0
0C00C0
180060
180060
300030
300030
300030
300030
300030
380070
180060
1C00E0
0E01C0
070780
0FFFC0
18FC60
300030
600018
400008
ENDCHAR
STARTCHAR 00A5
ENCODING 165
SWIDTH 620 0
DWIDTH 31 0
BBX 29 36 1 0
BITMAP
FF8001F8
FF8001F8
1F000040
1F0000C0
0F800180
07C00180
07C00300
03E00200
03E00600
01F00C00
01F00C00
00F81800
007C1800
007C3000
003E6000
003E6000
001FC000
000FC000
000F8000
000F8000
07FFFF00
07FFFF00
000F8000
000F8000
000F8000
000F8000
000F8000
07FFFF00
07FFFF00
000F8000
000F8000
000F8000
000F8000
000F8000
007FF000
007FF000
ENDCHAR
STARTCHAR 00A6
ENCODING 166
SWIDTH 180 0
DWIDTH 9 0
BBX 2 48 3 -12
BITMAP
C0
C0
C0
C0
C0
C0
C0
C0
C0
C0
C0
C0
C0
C0
C0
C0
C0
C0
C0
00
00
00
00
00
00
00
00
00
00
C0
C0
C0
C0
C0
C0
C0
C0
C0
C0
C0
C0
C0
C0
C0
C0
C0
C0
C0
ENDCHAR
STARTCHAR 00A7
ENCODING 167
SWIDTH 440 0
DWIDTH 22 0
BBX 18 38 2 -1
BITMAP
03F000
1FFFC0
3F07C0
7C03C0
FC01C0
F800C0
F800C0
F80000
FC0000
7E0000
7F8000
3FF000
1FFC00
0FFE00
3FFF00
7C3F80
781F80
F80FC0
F807C0
F807C0
F807C0
FE07C0
7F8F80
3FFF00
1FFE00
07FE00
00FF00
003F80
000F80
000FC0
0007C0
8007C0
C007C0
C00FC0
E00F80
F83F00
CFFE00
03F000
ENDCHAR
STARTCHAR 00A8
ENCODING 168
SWIDTH 380 0
DWIDTH 19 0
BBX 15 5 2 31
BITMAP
F83E
F83E
F83E
F83E
F83E
ENDCHAR
STARTCHAR 00A9
ENCODING 169
SWIDTH 700 0
DWIDTH 35 0
BBX 31 31 2 1
BITMAP
00038000
003FF800
00E01E00
03800780
060001C0
0C0FC0E0
187FF070
10FC1F38
21F80718
23F0031C
43E0030C
43E0000C
47C00006
87C00006
87C00006
87C00006
87C00006
87C00006
87C00006
47C0000E
43E0000C
43E0030C
23F00318
31F80618
10FC1C30
087FF070
040FC0E0
030003C0
01800700
00787E00
001FF000
ENDCHAR
STARTCHAR 00AA
ENCODING 170
SWIDTH 320 0
DWIDTH 16 0
BBX 14 16 1 20
BITMAP
1FC0
30E0
2070
2030
0030
0030
0070
07B0
3830
7030
E030
E030
E070
E0F0
71B0
3E3C
ENDCHAR
STARTCHAR 00AB
ENCODING 171
SWIDTH 440 0
DWIDTH 22 0
BBX 19 21 1 7
BITMAP
004000
00C020
01C060
03C0E0
03C1E0
0783E0
0F07C0
1F0F80
3E1F00
7C1E00
F83E00
7C1E00
3E1F00
1F0F80
0F07C0
0783E0
03C1E0
03C0E0
01C060
00C020
004000
ENDCHAR
STARTCHAR 00AC
ENCODING 172
SWIDTH 540 0
DWIDTH 27 0
BBX 25 12 0 12
BITMAP
FFFFFF80
FFFFFF80
00000180
00000180
00000180
00000180
00000180
00000180
00000180
00000180
00000180
00000180
ENDCHAR
STARTCHAR 00AE
ENCODING 174
SWIDTH 700 0
DWIDTH 35 0
BBX 31 31 2 0
BITMAP
000FE000
007FFC00
01C00F00
03000380
060001C0
08FFE060
18FFF030
30703838
20701C18
60700C0C
40700C0C
40700C0C
80701806
80703006
807FC006
8071C006
8071E006
8070E006
8070F006
4070700C
4070780C
60703C0C
20F83F18
30F81F38
10000030
08000060
060001C0
03000380
01C00F00
007FFC00
000FE000
ENDCHAR
STARTCHAR 00AF
ENCODING 175
SWIDTH 400 0
DWIDTH 20 0
BBX 16 2 2 34
BITMAP
FFFF
FFFF
ENDCHAR
STARTCHAR 00B0
ENCODING 176
SWIDTH 280 0
DWIDTH 14 0
BBX 10 12 2 24
BITMAP
1E00
7F80
7380
E1C0
E1C0
E1C0
E1C0
E1C0
E1C0
7380
7F80
1E00
ENDCHAR
STARTCHAR 00B1
ENCODING 177
SWIDTH 440 0
DWIDTH 22 0
BBX 21 22 1 4
BITMAP
003000
003000
003000
003000
003000
003000
003000
003000
003000
FFFFF8
FFFFF8
003000
003000
003000
003000
003000
003000
003000
003000
003000
FFFFF8
FFFFF8
ENDCHAR
STARTCHAR 00B2
ENCODING 178
SWIDTH 500 0
DWIDTH 25 0
BBX 14 19 2 17
BITMAP
07C0
1FF0
30F8
607C
403C
C03C
003C
0078
0070
00E0
01C0
0700
0E00
1C00
3800
7000
F004
FFFC
FFFC
ENDCHAR
STARTCHAR 00B3
ENCODING 179
SWIDTH 320 0
DWIDTH 16 0
BBX 12 19 1 17
BITMAP
1F00
3FC0
61C0
01E0
00E0
00E0
00E0
01C0
0180
0F80
03E0
00E0
00F0
0070
0070
0070
C0E0
E1C0
FF80
ENDCHAR
STARTCHAR 00B4
ENCODING 180
SWIDTH 220 0
DWIDTH 11 0
BBX 9 8 1 27
BITMAP
0F80
1F00
1E00
3E00
3C00
7800
F000
3000
ENDCHAR
STARTCHAR 00B5
ENCODING 181
SWIDTH 540 0
DWIDTH 27 0
BBX 26 34 0 -10
BITMAP
1F007C00
1F007C00
1F007C00
1F007C00
1F007C00
1F007C00
1F007C00
1F007C00
1F007C00
1F007C00
1F007C00
1F007C00
1F007C00
1F007C00
1F007C00
1F007C00
1F007C00
1F807C00
1F807E00
1F807E00
1F80FE00
1FE1FE00
1F7FDFC0
1F7F9FC0
1F0E0000
1F000000
3F000000
3E000000
3E000000
3E000000
7C000000
7C000000
F8000000
70000000
ENDCHAR
STARTCHAR 00B6
ENCODING 182
SWIDTH 460 0
DWIDTH 23 0
BBX 20 36 1 0
BITMAP
01FFF0
07FFF0
1FE180
3FE180
7FE180
7FE180
7FE180
FFE180
FFE180
FFE180
FFE180
FFE180
7FE180
7FE180
3FE180
1FE180
0FE180
07E180
006180
006180
006180
006180
006180
006180
006180
006180
006180
006180
006180
006180
006180
006180
006180
006180
006180
006180
ENDCHAR
STARTCHAR 00B7
ENCODING 183
SWIDTH 200 0
DWIDTH 10 0
BBX 5 5 2 19
BITMAP
F8
F8
F8
F8
F8
ENDCHAR
STARTCHAR 00B8
ENCODING 184
SWIDTH 220 0
DWIDTH 11 0
BBX 8 13 1 -12
BITMAP
0C
18
10
30
38
7E
1F
0F
0F
0F
1F
FE
FC
ENDCHAR
STARTCHAR 00B9
ENCODING 185
SWIDTH 240 0
DWIDTH 12 0
BBX 5 19 2 17
BITMAP
F0
70
70
70
70
70
70
70
70
70
70
70
70
70
70
70
70
70
F8
ENDCHAR
STARTCHAR 00BA
ENCODING 186
SWIDTH 380 0
DWIDTH 19 0
BBX 15 19 2 17
BITMAP
0FC0
1FF0
3C78
783C
701C
F01E
E00E
E00E
E00E
E00E
E00E
E00E
E00E
E00E
701C
701C
3C78
1FF0
0FE0
ENDCHAR
STARTCHAR 00BB
ENCODING 187
SWIDTH 460 0
DWIDTH 23 0
BBX 20 21 2 7
BITMAP
800000
C02000
E03000
F03800
F83C00
783E00
3C1F00
1E0F80
1F07C0
0F83E0
07C1F0
0F83E0
1F07C0
3E0F80
3C1F00
783E00
F83C00
F03800
E03000
C02000
800000
ENDCHAR
STARTCHAR 00BC
ENCODING 188
SWIDTH 620 0
DWIDTH 31 0
BBX 29 36 1 0
BITMAP
F0000020
70000060
700000C0
70000180
70000100
70000300
70000600
70000C00
70000800
70001800
70003000
70006000
70004000
7000C000
70018000
70030000
70020000
F80601C0
000C03C0
001807C0
00180FC0
00301BC0
006013C0
004023C0
00C043C0
0180C3C0
030183C0
020303C0
060203C0
0C07FFF8
1807FFF8
100003C0
300003C0
600003C0
C00003C0
800003C0
ENDCHAR
STARTCHAR 00BD
ENCODING 189
SWIDTH 600 0
DWIDTH 30 0
BBX 29 36 1 0
BITMAP
1E000060
0E000040
0E0000C0
0E000180
0E000300
0E000200
0E000600
0E000C00
0E000800
0E001000
0E003000
0E006000
0E004000
0E00C000
0E018000
0E030000
0E020000
0E060F80
1F0C3FE0
001861F0
0010C0F8
00308078
00618078
00400078
00C000F0
018000E0
030001C0
02000380
06000E00
0C001C00
18003800
10007000
3000E000
6001E008
C001FFF8
C001FFF8
ENDCHAR
STARTCHAR 00BE
ENCODING 190
SWIDTH 620 0
DWIDTH 31 0
BBX 27 36 1 0
BITMAP
1F000060
3FC00060
61C000C0
00E00180
00E00300
00E00300
00E00600
01C00C00
03800800
0F801800
01E03000
00E06000
00706000
0070C000
00718000
C0730000
C0E30000
F1C60700
DF8C0F00
00181F00
00183F00
00306F00
00604F00
00408F00
00C10F00
01830F00
03060F00
020C0F00
06080F00
0C1FFFE0
181FFFE0
18000F00
30000F00
60000F00
C0000F00
C0000F00
ENDCHAR
STARTCHAR 00BF
ENCODING 191
SWIDTH 500 0
DWIDTH 25 0
BBX 22 37 2 -13
BITMAP
007C00
007C00
007C00
007C00
007C00
000000
000000
000000
001800
001800
001800
001800
001800
001800
001800
001800
001800
003000
007000
00F000
01E000
03C000
078000
1F0000
3E0000
3C01F0
7800F8
F800F8
F800F8
F80078
F8007C
F800F8
7C00F8
3E01F0
1F87E0
07FF80
01FE00
ENDCHAR
STARTCHAR 00C0
ENCODING 192
SWIDTH 620 0
DWIDTH 31 0
BBX 29 46 1 0
BITMAP
00F80000
007C0000
003C0000
003E0000
001E0000
000F0000
00070000
00060000
00000000
00000000
00060000
000F0000
000F0000
000F0000
000F8000
001F8000
001F8000
001FC000
003FC000
0037C000
0037E000
0077E000
0063E000
0063F000
00E3F000
00C1F000
00C1F800
01C1F800
0180F800
0180FC00
0180FC00
03807C00
03FFFC00
03FFFE00
07007E00
06003E00
06003F00
0E003F00
0C001F00
0C001F80
1C001F80
18000F80
18000FC0
38000FC0
FE001FF8
FE001FF8
ENDCHAR
STARTCHAR 00C1
ENCODING 193
SWIDTH 620 0
DWIDTH 31 0
BBX 29 46 1 0
BITMAP
0000F800
0001F000
0001E000
0003E000
0003C000
00078000
000F0000
00030000
00000000
00000000
00060000
000F0000
000F0000
000F0000
000F8000
001F8000
001F8000
001FC000
003FC000
0037C000
0037E000
0077E000
0063E000
0063F000
00E3F000
00C1F000
00C1F800
01C1F800
0180F800
0180FC00
0180FC00
03807C00
03FFFC00
03FFFE00
07007E00
06003E00
06003F00
0E003F00
0C001F00
0C001F80
1C001F80
18000F80
18000FC0
38000FC0
FE001FF8
FE001FF8
ENDCHAR
STARTCHAR 00C2
ENCODING 194
SWIDTH 640 0
DWIDTH 32 0
BBX 29 45 1 0
BITMAP
00070000
000F8000
000FC000
001DC000
0038E000
00307000
00603000
00000000
00000000
00060000
000F0000
000F0000
000F0000
000F8000
001F8000
001F8000
001FC000
003FC000
0037C000
0037E000
0077E000
0063E000
0063F000
00E3F000
00C1F000
00C1F800
01C1F800
0180F800
0180FC00
0180FC00
03807C00
03FFFC00
03FFFE00
07007E00
06003E00
06003F00
0E003F00
0C001F00
0C001F80
1C001F80
18000F80
18000FC0
38000FC0
FE001FF8
FE001FF8
ENDCHAR
STARTCHAR 00C3
ENCODING 195
SWIDTH 640 0
DWIDTH 32 0
BBX 29 46 1 0
BITMAP
00300000
00780400
00FE0400
00FF0C00
00CF9800
0183F800
0101F000
0100E000
00000000
00000000
00060000
000F0000
000F0000
000F0000
000F8000
001F8000
001F8000
001FC000
003FC000
0037C000
0037E000
0077E000
0063E000
0063F000
00E3F000
00C1F000
00C1F800
01C1F800
0180F800
0180FC00
0180FC00
03807C00
03FFFC00
03FFFE00
07007E00
06003E00
06003F00
0E003F00
0C001F00
0C001F80
1C001F80
18000F80
18000FC0
38000FC0
FE001FF8
FE001FF8
ENDCHAR
STARTCHAR 00C4
ENCODING 196
SWIDTH 620 0
DWIDTH 31 0
BBX 29 44 1 0
BITMAP
01F07C00
01F07C00
01F07C00
01F07C00
01F07C00
00000000
00000000
00000000
00060000
000F0000
000F0000
000F0000
000F8000
001F8000
001F8000
001FC000
003FC000
0037C000
0037E000
0077E000
0063E000
0063F000
00E3F000
00C1F000
00C1F800
01C1F800
0180F800
0180FC00
0180FC00
03807C00
03FFFC00
03FFFE00
07007E00
06003E00
06003F00
0E003F00
0C001F00
0C001F80
1C001F80
18000F80
18000FC0
38000FC0
FE001FF8
FE001FF8
ENDCHAR
STARTCHAR 00C5
ENCODING 197
SWIDTH 580 0
DWIDTH 29 0
BBX 29 45 1 0
BITMAP
000F0000
001FC000
0018C000
00306000
00306000
00306000
00306000
0018C000
001FC000
00070000
000F0000
000F0000
000F0000
000F8000
001F8000
001F8000
001FC000
003FC000
0037C000
0037E000
0077E000
0063E000
0063F000
00E3F000
00C1F000
00C1F800
01C1F800
0180F800
0180FC00
0180FC00
03807C00
03FFFC00
03FFFE00
07007E00
06003E00
06003F00
0E003F00
0C001F00
0C001F80
1C001F80
18000F80
18000FC0
38000FC0
FE001FF8
FE001FF8
ENDCHAR
STARTCHAR 00C6
ENCODING 198
SWIDTH 920 0
DWIDTH 46 0
BBX 45 36 0 0
BITMAP
000007FFFFF8
000007FFFFF8
000003F80018
000002F80018
000006F80018
00000CF80000
000008F80000
000018F80000
000030F80000
000030F80000
000060F80000
000040F80000
0000C0F80000
000180F80000
000180F80300
000300F80300
000200F80300
000600FFFF00
000C00FFFF00
000C00F80300
001800F80300
003FFFF80300
003FFFF80000
007000F80000
006000F80000
00C000F80000
01C000F80000
018000F80000
030000F80000
030000F80000
060000F80000
0C0000F80018
0C0000F80018
180000F80018
FC0007FFFFF8
FC0007FFFFF8
ENDCHAR
STARTCHAR 00C7
ENCODING 199
SWIDTH 560 0
DWIDTH 28 0
BBX 24 48 2 -12
BITMAP
001FF0
00FFFE
03F03F
07C00F
0F8007
1F0003
3E0003
3E0000
7C0000
7C0000
7C0000
F80000
F80000
F80000
F80000
F80000
F80000
F80000
F80000
F80000
F80000
F80000
F80000
F80000
F80000
7C0000
7C0000
7C0000
7C0000
3E0000
3E0003
1F0003
0F8007
07C00F
03F03F
00FFFE
001FF0
001000
003000
003800
007E00
001F00
000F00
000F00
000F00
001F00
00FE00
00FC00
ENDCHAR
STARTCHAR 00C8
ENCODING 200
SWIDTH 520 0
DWIDTH 26 0
BBX 24 46 1 0
BITMAP
01F000
00F800
007800
007C00
003C00
001E00
000E00
000C00
000000
000000
FFFFFF
FFFFFF
1F0003
1F0003
1F0000
1F0000
1F0000
1F0000
1F0000
1F0000
1F0000
1F0000
1F0000
1F0000
1F0060
1F0060
1F0060
1FFFE0
1FFFE0
1F0060
1F0060
1F0060
1F0000
1F0000
1F0000
1F0000
1F0000
1F0000
1F0000
1F0000
1F0000
1F0003
1F0003
1F0003
FFFFFF
FFFFFF
ENDCHAR
STARTCHAR 00C9
ENCODING 201
SWIDTH 520 0
DWIDTH 26 0
BBX 24 45 1 0
BITMAP
000F80
001F00
001E00
003E00
003C00
007800
00F000
003000
000000
FFFFFF
FFFFFF
1F0003
1F0003
1F0000
1F0000
1F0000
1F0000
1F0000
1F0000
1F0000
1F0000
1F0000
1F0000
1F0060
1F0060
1F0060
1FFFE0
1FFFE0
1F0060
1F0060
1F0060
1F0000
1F0000
1F0000
1F0000
1F0000
1F0000
1F0000
1F0000
1F0000
1F0003
1F0003
1F0003
FFFFFF
FFFFFF
ENDCHAR
STARTCHAR 00CA
ENCODING 202
SWIDTH 520 0
DWIDTH 26 0
BBX 24 45 1 0
BITMAP
000E00
001F00
001F80
003B80
0071C0
0060E0
00C060
000000
000000
FFFFFF
FFFFFF
1F0003
1F0003
1F0000
1F0000
1F0000
1F0000
1F0000
1F0000
1F0000
1F0000
1F0000
1F0000
1F0060
1F0060
1F0060
1FFFE0
1FFFE0
1F0060
1F0060
1F0060
1F0000
1F0000
1F0000
1F0000
1F0000
1F0000
1F0000
1F0000
1F0000
1F0003
1F0003
1F0003
FFFFFF
FFFFFF
ENDCHAR
STARTCHAR 00CB
ENCODING 203
SWIDTH 520 0
DWIDTH 26 0
BBX 24 44 1 0
BITMAP
03E0F8
03E0F8
03E0F8
03E0F8
03E0F8
000000
000000
000000
FFFFFF
FFFFFF
1F0003
1F0003
1F0000
1F0000
1F0000
1F0000
1F0000
1F0000
1F0000
1F0000
1F0000
1F0000
1F0060
1F0060
1F0060
1FFFE0
1FFFE0
1F0060
1F0060
1F0060
1F0000
1F0000
1F0000
1F0000
1F0000
1F0000
1F0000
1F0000
1F0000
1F0003
1F0003
1F0003
FFFFFF
FFFFFF
ENDCHAR
STARTCHAR 00CC
ENCODING 204
SWIDTH 300 0
DWIDTH 15 0
BBX 11 46 1 0
BITMAP
3E00
1F00
0F00
0F80
0780
03C0
01C0
0180
0000
0000
FFE0
FFE0
1F00
1F00
1F00
1F00
1F00
1F00
1F00
1F00
1F00
1F00
1F00
1F00
1F00
1F00
1F00
1F00
1F00
1F00
1F00
1F00
1F00
1F00
1F00
1F00
1F00
1F00
1F00
1F00
1F00
1F00
1F00
1F00
FFE0
FFE0
ENDCHAR
STARTCHAR 00CD
ENCODING 205
SWIDTH 300 0
DWIDTH 15 0
BBX 12 46 1 0
BITMAP
01F0
03E0
03C0
07C0
0780
0F00
1E00
0600
0000
0000
FFE0
FFE0
1F00
1F00
1F00
1F00
1F00
1F00
1F00
1F00
1F00
1F00
1F00
1F00
1F00
1F00
1F00
1F00
1F00
1F00
1F00
1F00
1F00
1F00
1F00
1F00
1F00
1F00
1F00
1F00
1F00
1F00
1F00
1F00
FFE0
FFE0
ENDCHAR
STARTCHAR 00CE
ENCODING 206
SWIDTH 280 0
DWIDTH 14 0
BBX 12 45 1 0
BITMAP
0700
0F80
0FC0
1DC0
38E0
3070
6030
0000
0000
FFE0
FFE0
1F00
1F00
1F00
1F00
1F00
1F00
1F00
1F00
1F00
1F00
1F00
1F00
1F00
1F00
1F00
1F00
1F00
1F00
1F00
1F00
1F00
1F00
1F00
1F00
1F00
1F00
1F00
1F00
1F00
1F00
1F00
1F00
FFE0
FFE0
ENDCHAR
STARTCHAR 00CF
ENCODING 207
SWIDTH 300 0
DWIDTH 15 0
BBX 15 44 0 0
BITMAP
F83E
F83E
F83E
F83E
F83E
0000
0000
0000
7FF0
7FF0
0F80
0F80
0F80
0F80
0F80
0F80
0F80
0F80
0F80
0F80
0F80
0F80
0F80
0F80
0F80
0F80
0F80
0F80
0F80
0F80
0F80
0F80
0F80
0F80
0F80
0F80
0F80
0F80
0F80
0F80
0F80
0F80
7FF0
7FF0
ENDCHAR
STARTCHAR 00D0
ENCODING 208
SWIDTH 620 0
DWIDTH 31 0
BBX 28 36 1 0
BITMAP
FFFFE000
FFFFFC00
1F00FE00
1F003F00
1F001F80
1F000FC0
1F0007C0
1F0007E0
1F0003E0
1F0003E0
1F0003E0
1F0003F0
1F0001F0
1F0001F0
1F0001F0
1F0001F0
1F0001F0
FFFF01F0
FFFF01F0
1F0001F0
1F0001F0
1F0001F0
1F0001F0
1F0001F0
1F0003F0
1F0003E0
1F0003E0
1F0003E0
1F0007E0
1F0007C0
1F000FC0
1F001F80
1F003F00
1F007E00
FFFFFC00
FFFFE000
ENDCHAR
STARTCHAR 00D1
ENCODING 209
SWIDTH 600 0
DWIDTH 30 0
BBX 29 46 1 0
BITMAP
00180000
003C0200
007F0200
007F8600
0067CC00
00C1FC00
0080F800
00807000
00000000
00000000
FF8007F8
FF8007F8
1FC000C0
1FC000C0
1FE000C0
1BF000C0
1BF000C0
19F800C0
19F800C0
18FC00C0
187E00C0
187E00C0
183F00C0
183F00C0
181F80C0
180FC0C0
180FC0C0
1807E0C0
1807E0C0
1803F0C0
1801F8C0
1801F8C0
1800FCC0
1800FEC0
18007EC0
18003FC0
18003FC0
18001FC0
18001FC0
18000FC0
180007C0
180007C0
180003C0
180003C0
FE0001C0
FE0000C0
ENDCHAR
STARTCHAR 00D2
ENCODING 210
SWIDTH 600 0
DWIDTH 30 0
BBX 27 47 2 -1
BITMAP
00F80000
007C0000
003C0000
003E0000
001E0000
000F0000
00070000
00060000
00000000
00000000
007F8000
01FFF000
07E0FC00
0F807E00
1F003F00
1F001F00
3E000F80
7E000F80
7C000FC0
7C0007C0
FC0007C0
FC0007E0
FC0007E0
FC0007E0
F80007E0
F80003E0
F80003E0
F80003E0
F80003E0
F80003E0
F80003E0
F80003E0
F80007E0
F80007E0
FC0007E0
FC0007E0
FC0007C0
7C0007C0
7C000FC0
7E000F80
3E000F80
1F001F00
1F003F00
0F807E00
07E0FC00
01FFF000
007FC000
ENDCHAR
STARTCHAR 00D3
ENCODING 211
SWIDTH 620 0
DWIDTH 31 0
BBX 27 47 2 -1
BITMAP
0003E000
0007C000
00078000
000F8000
000F0000
001E0000
003C0000
000C0000
00000000
00000000
007F8000
01FFF000
07E0FC00
0F807E00
1F003F00
1F001F00
3E000F80
7E000F80
7C000FC0
7C0007C0
FC0007C0
FC0007E0
FC0007E0
FC0007E0
F80007E0
F80003E0
F80003E0
F80003E0
F80003E0
F80003E0
F80003E0
F80003E0
F80007E0
F80007E0
FC0007E0
FC0007E0
FC0007C0
7C0007C0
7C000FC0
7E000F80
3E000F80
1F001F00
1F003F00
0F807E00
07E0FC00
01FFF000
007FC000
ENDCHAR
STARTCHAR 00D4
ENCODING 212
SWIDTH 600 0
DWIDTH 30 0
BBX 27 47 2 -1
BITMAP
000E0000
001F0000
001F8000
003B8000
0071C000
0060E000
00C06000
00000000
00000000
00000000
007F8000
01FFF000
07E0FC00
0F807E00
1F003F00
1F001F00
3E000F80
7E000F80
7C000FC0
7C0007C0
FC0007C0
FC0007E0
FC0007E0
FC0007E0
F80007E0
F80003E0
F80003E0
F80003E0
F80003E0
F80003E0
F80003E0
F80003E0
F80007E0
F80007E0
FC0007E0
FC0007E0
FC0007C0
7C0007C0
7C000FC0
7E000F80
3E000F80
1F001F00
1F003F00
0F807E00
07E0FC00
01FFF000
007FC000
ENDCHAR
STARTCHAR 00D5
ENCODING 213
SWIDTH 600 0
DWIDTH 30 0
BBX 27 47 2 -1
BITMAP
00600000
00F00800
01FC0800
01FE1800
019F3000
0307F000
0203E000
0201C000
00000000
00000000
007F8000
01FFF000
07E0FC00
0F807E00
1F003F00
1F001F00
3E000F80
7E000F80
7C000FC0
7C0007C0
FC0007C0
FC0007E0
FC0007E0
FC0007E0
F80007E0
F80003E0
F80003E0
F80003E0
F80003E0
F80003E0
F80003E0
F80003E0
F80007E0
F80007E0
FC0007E0
FC0007E0
FC0007C0
7C0007C0
7C000FC0
7E000F80
3E000F80
1F001F00
1F003F00
0F807E00
07E0FC00
01FFF000
007FC000
ENDCHAR
STARTCHAR 00D6
ENCODING 214
SWIDTH 600 0
DWIDTH 30 0
BBX 27 45 2 -1
BITMAP
03E0F800
03E0F800
03E0F800
03E0F800
03E0F800
00000000
00000000
00000000
007F8000
01FFF000
07E0FC00
0F807E00
1F003F00
1F001F00
3E000F80
7E000F80
7C000FC0
7C0007C0
FC0007C0
FC0007E0
FC0007E0
FC0007E0
F80007E0
F80003E0
F80003E0
F80003E0
F80003E0
F80003E0
F80003E0
F80003E0
F80007E0
F80007E0
FC0007E0
FC0007E0
FC0007C0
7C0007C0
7C000FC0
7E000F80
3E000F80
1F001F00
1F003F00
0F807E00
07E0FC00
01FFF000
007FC000
ENDCHAR
STARTCHAR 00D7
ENCODING 215
SWIDTH 600 0
DWIDTH 30 0
BBX 26 24 2 0
BITMAP
E00001C0
70000380
38000700
1C000E00
0E001C00
07003800
03007000
0180E000
00C1C000
00638000
00370000
001E0000
000C0000
001E0000
00330000
00618000
00C0C000
01806000
03003000
06001800
0C000C00
18000600
30000300
60000180
ENDCHAR
STARTCHAR 00D8
ENCODING 216
SWIDTH 660 0
DWIDTH 33 0
BBX 29 37 2 -1
BITMAP
003FF818
00FFFC38
03F07F30
07C01FE0
0F800FE0
1F800FC0
1F0007C0
1F0007C0
3E0007E0
3E0007E0
3E000FE0
7E0019E0
7C0031F0
7C0061F0
7C0041F0
7C00C1F0
7C0181F0
7C0301F0
7C0601F0
7C0401F0
7C0801F0
7C1801F0
7C3001F0
7C6001F0
7C4001F0
7C8001F0
3F8003E0
3F0003E0
3E0003E0
3F0003C0
1F0007C0
1F8007C0
3F800F80
67C01F00
C3F07E00
C1FFFC00
003FE000
ENDCHAR
STARTCHAR 00D9
ENCODING 217
SWIDTH 700 0
DWIDTH 35 0
BBX 34 47 1 -1
BITMAP
000F800000
0007C00000
0003C00000
0003E00000
0001E00000
0000F00000
0000700000
0000600000
0000000000
0000000000
FFC001FFC0
FFC001FFC0
1F00003E00
1F00003E00
1F00003E00
1F00003E00
1F00003E00
1F00003E00
1F00003E00
1F00003E00
1F00003E00
1F00003E00
1F00003E00
1F00003E00
1F00003E00
1F00003E00
1F00003E00
1F00003E00
1F00003E00
1F00003E00
1F00003E00
1F00003E00
1F00003E00
1F00003E00
1F00003E00
1F80003E00
0F80007C00
0F80007C00
0F80007C00
07C0007800
07C000F800
03E000F800
03E001F000
01F003E000
00FC0FC000
003FFF8000
0007FC0000
ENDCHAR
STARTCHAR 00DA
ENCODING 218
SWIDTH 700 0
DWIDTH 35 0
BBX 34 46 1 -1
BITMAP
0000F80000
0001F00000
0001E00000
0003E00000
0003C00000
0007800000
000F000000
0003000000
0000000000
FFC001FFC0
FFC001FFC0
1F00003E00
1F00003E00
1F00003E00
1F00003E00
1F00003E00
1F00003E00
1F00003E00
1F00003E00
1F00003E00
1F00003E00
1F00003E00
1F00003E00
1F00003E00
1F00003E00
1F00003E00
1F00003E00
1F00003E00
1F00003E00
1F00003E00
1F00003E00
1F00003E00
1F00003E00
1F00003E00
1F80003E00
0F80007C00
0F80007C00
0F80007C00
07C0007800
07C000F800
03E000F800
03E001F000
01F003E000
00FC0FC000
003FFF8000
0007FC0000
ENDCHAR
STARTCHAR 00DB
ENCODING 219
SWIDTH 700 0
DWIDTH 35 0
BBX 34 46 1 -1
BITMAP
0001C00000
0003E00000
0003F00000
0007700000
000E380000
000C1C0000
00180C0000
0000000000
0000000000
FFC001FFC0
FFC001FFC0
1F00003E00
1F00003E00
1F00003E00
1F00003E00
1F00003E00
1F00003E00
1F00003E00
1F00003E00
1F00003E00
1F00003E00
1F00003E00
1F00003E00
1F00003E00
1F00003E00
1F00003E00
1F00003E00
1F00003E00
1F00003E00
1F00003E00
1F00003E00
1F00003E00
1F00003E00
1F00003E00
1F80003E00
0F80007C00
0F80007C00
0F80007C00
07C0007800
07C000F800
03E000F800
03E001F000
01F003E000
00FC0FC000
003FFF8000
0007FC0000
ENDCHAR
STARTCHAR 00DC
ENCODING 220
SWIDTH 700 0
DWIDTH 35 0
BBX 34 44 1 -1
BITMAP
007C1F0000
007C1F0000
007C1F0000
007C1F0000
007C1F0000
0000000000
0000000000
FFC001FFC0
FFC001FFC0
1F00003E00
1F00003E00
1F00003E00
1F00003E00
1F00003E00
1F00003E00
1F00003E00
1F00003E00
1F00003E00
1F00003E00
1F00003E00
1F00003E00
1F00003E00
1F00003E00
1F00003E00
1F00003E00
1F00003E00
1F00003E00
1F00003E00
1F00003E00
1F00003E00
1F00003E00
1F00003E00
1F80003E00
0F80007C00
0F80007C00
0F80007C00
07C0007800
07C000F800
03E000F800
03E001F000
01F003E000
00FC0FC000
003FFF8000
0007FC0000
ENDCHAR
STARTCHAR 00DD
ENCODING 221
SWIDTH 640 0
DWIDTH 32 0
BBX 29 45 1 0
BITMAP
0000F800
0001F000
0001E000
0003E000
0003C000
00078000
000F0000
00030000
00000000
FFC001F8
FFC001F8
1F0000C0
0F8001C0
0FC00180
07C00300
07E00700
03E00600
03F00E00
01F00C00
00F81800
00F81800
007C3000
007C7000
003E6000
001FE000
001FC000
000F8000
000F8000
000F8000
000F8000
000F8000
000F8000
000F8000
000F8000
000F8000
000F8000
000F8000
000F8000
000F8000
000F8000
000F8000
000F8000
000F8000
007FE000
007FE000
ENDCHAR
STARTCHAR 00DE
ENCODING 222
SWIDTH 580 0
DWIDTH 29 0
BBX 27 36 1 0
BITMAP
FFC00000
FFC00000
1F000000
1F000000
1F000000
1F000000
1F000000
1F000000
1FFFF800
1FFFFC00
1F001F00
1F000F80
1F000780
1F0007C0
1F0003C0
1F0003E0
1F0003E0
1F0003E0
1F0003E0
1F0003E0
1F0003E0
1F0007C0
1F0007C0
1F000780
1F000F80
1F001F00
1FFFFE00
1FFFF000
1F000000
1F000000
1F000000
1F000000
1F000000
1F000000
FFC00000
FFC00000
ENDCHAR
STARTCHAR 00DF
ENCODING 223
SWIDTH 520 0
DWIDTH 26 0
BBX 26 36 -1 0
BITMAP
00FF0000
03FFC000
07C3E000
0781F000
0F01F000
0F00F800
1F00F800
1F00F800
1F00F800
1F00F000
1F01F000
1F03E000
1F07C000
1F0F8000
1F1F0000
1F1F0000
1F1F0000
1F0F8000
1F07E000
1F01F000
1F007C00
1F003E00
1F001F00
1F000F80
1F000F80
1F0007C0
1F0007C0
1F0007C0
1F0007C0
1F0007C0
1F0007C0
1F200780
1FF00F80
1FFC1F00
1F3FFE00
FF07F800
ENDCHAR
STARTCHAR 00E0
ENCODING 224
SWIDTH 520 0
DWIDTH 26 0
BBX 23 35 2 -1
BITMAP
0F8000
07C000
03C000
03E000
01E000
00F000
007000
006000
000000
000000
03FE00
1FFF80
3C0FC0
3807E0
3003E0
3001F0
2001F0
0001F0
0001F0
0001F0
0003F0
001DF0
03E1F0
1F01F0
3C01F0
7C01F0
F801F0
F801F0
F803F0
F803F0
F807F0
FC0DF0
7E39F8
3FF0FE
0FC000
ENDCHAR
STARTCHAR 00E1
ENCODING 225
SWIDTH 520 0
DWIDTH 26 0
BBX 23 35 2 -1
BITMAP
003E00
007C00
007800
00F800
00F000
01E000
03C000
00C000
000000
000000
03FE00
1FFF80
3C0FC0
3807E0
3003E0
3001F0
2001F0
0001F0
0001F0
0001F0
0003F0
001DF0
03E1F0
1F01F0
3C01F0
7C01F0
F801F0
F801F0
F803F0
F803F0
F807F0
FC0DF0
7E39F8
3FF0FE
0FC000
ENDCHAR
STARTCHAR 00E2
ENCODING 226
SWIDTH 520 0
DWIDTH 26 0
BBX 23 35 2 -1
BITMAP
007000
00F800
00FC00
01DC00
038E00
030700
060300
000000
000000
000000
03FE00
1FFF80
3C0FC0
3807E0
3003E0
3001F0
2001F0
0001F0
0001F0
0001F0
0003F0
001DF0
03E1F0
1F01F0
3C01F0
7C01F0
F801F0
F801F0
F803F0
F803F0
F807F0
FC0DF0
7E39F8
3FF0FE
0FC000
ENDCHAR
STARTCHAR 00E3
ENCODING 227
SWIDTH 520 0
DWIDTH 26 0
BBX 23 35 2 -1
BITMAP
030000
078040
0FE040
0FF0C0
0CF980
183F80
101F00
100E00
000000
000000
03FE00
1FFF80
3C0FC0
3807E0
3003E0
3001F0
2001F0
0001F0
0001F0
0001F0
0003F0
001DF0
03E1F0
1F01F0
3C01F0
7C01F0
F801F0
F801F0
F803F0
F803F0
F807F0
FC0DF0
7E39F8
3FF0FE
0FC000
ENDCHAR
STARTCHAR 00E4
ENCODING 228
SWIDTH 520 0
DWIDTH 26 0
BBX 23 33 2 -1
BITMAP
1F07C0
1F07C0
1F07C0
1F07C0
1F07C0
000000
000000
000000
03FE00
1FFF80
3C0FC0
3807E0
3003E0
3001F0
2001F0
0001F0
0001F0
0001F0
0003F0
001DF0
03E1F0
1F01F0
3C01F0
7C01F0
F801F0
F801F0
F803F0
F803F0
F807F0
FC0DF0
7E39F8
3FF0FE
0FC000
ENDCHAR
STARTCHAR 00E5
ENCODING 229
SWIDTH 520 0
DWIDTH 26 0
BBX 23 35 2 -1
BITMAP
01E000
03F800
031800
060C00
060C00
060C00
060C00
031800
03F800
00E000
03FE00
1FFF80
3C0FC0
3807E0
3003E0
3001F0
2001F0
0001F0
0001F0
0001F0
0003F0
001DF0
03E1F0
1F01F0
3C01F0
7C01F0
F801F0
F801F0
F803F0
F803F0
F807F0
FC0DF0
7E39F8
3FF0FE
0FC000
ENDCHAR
STARTCHAR 00E6
ENCODING 230
SWIDTH 800 0
DWIDTH 40 0
BBX 37 25 1 -1
BITMAP
01FE01FC00
1FFFC7FF00
1E07FF07C0
1C03FE03C0
1801FC01E0
1800FC01F0
1000F800F0
0000F800F0
0000F800F8
0000FFFFF8
0003FFFFF8
001CF80000
03E0F80000
1E00F80000
3C00F80000
7800F80000
F800F80000
F800FC0000
F801FC0008
F803FC0018
F8073E0030
FC0E1F0070
7E3C0FE3C0
3FF807FF80
0FC000FE00
ENDCHAR
STARTCHAR 00E7
ENCODING 231
SWIDTH 440 0
DWIDTH 22 0
BBX 19 36 2 -12
BITMAP
01F820
07FE60
1FC3E0
3F00E0
3E0060
7C0060
7C0020
7C0000
F80000
F80000
F80000
F80000
F80000
F80000
F80000
F80000
F80000
7C0000
7C0020
7E0020
3E0060
3F00C0
1F8380
0FFF00
01FC00
010000
030000
038000
07E000
01F000
00F000
00F000
00F000
01F000
0FE000
0FC000
ENDCHAR
STARTCHAR 00E8
ENCODING 232
SWIDTH 480 0
DWIDTH 24 0
BBX 21 35 2 -1
BITMAP
0F8000
07C000
03C000
03E000
01E000
00F000
007000
006000
000000
000000
01FC00
07FF00
1F07C0
3E03C0
3C01E0
7C01F0
7800F0
7800F0
F800F8
FFFFF8
FFFFF8
F80000
F80000
F80000
F80000
F80000
F80000
7C0000
7C0010
3C0018
3E0030
1F0060
0F81C0
07FF80
01FC00
ENDCHAR
STARTCHAR 00E9
ENCODING 233
SWIDTH 480 0
DWIDTH 24 0
BBX 21 35 2 -1
BITMAP
001F00
003E00
003C00
007C00
007800
00F000
01E000
006000
000000
000000
01FC00
07FF00
1F07C0
3E03C0
3C01E0
7C01F0
7800F0
7800F0
F800F8
FFFFF8
FFFFF8
F80000
F80000
F80000
F80000
F80000
F80000
7C0000
7C0010
3C0018
3E0030
1F0060
0F81C0
07FF80
01FC00
ENDCHAR
STARTCHAR 00EA
ENCODING 234
SWIDTH 480 0
DWIDTH 24 0
BBX 21 35 2 -1
BITMAP
007000
00F800
00FC00
01DC00
038E00
030700
060300
000000
000000
000000
01FC00
07FF00
1F07C0
3E03C0
3C01E0
7C01F0
7800F0
7800F0
F800F8
FFFFF8
FFFFF8
F80000
F80000
F80000
F80000
F80000
F80000
7C0000
7C0010
3C0018
3E0030
1F0060
0F81C0
07FF80
01FC00
ENDCHAR
STARTCHAR 00EB
ENCODING 235
SWIDTH 480 0
DWIDTH 24 0
BBX 21 33 2 -1
BITMAP
1F07C0
1F07C0
1F07C0
1F07C0
1F07C0
000000
000000
000000
01FC00
07FF00
1F07C0
3E03C0
3C01E0
7C01F0
7800F0
7800F0
F800F8
FFFFF8
FFFFF8
F80000
F80000
F80000
F80000
F80000
F80000
7C0000
7C0010
3C0018
3E0030
1F0060
0F81C0
07FF80
01FC00
ENDCHAR
STARTCHAR 00EC
ENCODING 236
SWIDTH 240 0
DWIDTH 12 0
BBX 10 34 1 0
BITMAP
F800
7C00
3C00
3E00
1E00
0F00
0700
0600
0000
0000
FF00
1F00
1F00
1F00
1F00
1F00
1F00
1F00
1F00
1F00
1F00
1F00
1F00
1F00
1F00
1F00
1F00
1F00
1F00
1F00
1F00
1F00
FFC0
FFC0
ENDCHAR
STARTCHAR 00ED
ENCODING 237
SWIDTH 240 0
DWIDTH 12 0
BBX 12 34 0 0
BITMAP
01F0
03E0
03C0
07C0
0780
0F00
1E00
0600
0000
0000
FF00
1F00
1F00
1F00
1F00
1F00
1F00
1F00
1F00
1F00
1F00
1F00
1F00
1F00
1F00
1F00
1F00
1F00
1F00
1F00
1F00
1F00
FFC0
FFC0
ENDCHAR
STARTCHAR 00EE
ENCODING 238
SWIDTH 260 0
DWIDTH 13 0
BBX 11 34 0 0
BITMAP
0E00
1F00
1F80
3B80
71C0
60E0
C060
0000
0000
0000
7F80
0F80
0F80
0F80
0F80
0F80
0F80
0F80
0F80
0F80
0F80
0F80
0F80
0F80
0F80
0F80
0F80
0F80
0F80
0F80
0F80
0F80
7FE0
7FE0
ENDCHAR
STARTCHAR 00EF
ENCODING 239
SWIDTH 280 0
DWIDTH 14 0
BBX 15 32 -1 0
BITMAP
F83E
F83E
F83E
F83E
F83E
0000
0000
0000
3FC0
07C0
07C0
07C0
07C0
07C0
07C0
07C0
07C0
07C0
07C0
07C0
07C0
07C0
07C0
07C0
07C0
07C0
07C0
07C0
07C0
07C0
3FF0
3FF0
ENDCHAR
STARTCHAR 00F0
ENCODING 240
SWIDTH 500 0
DWIDTH 25 0
BBX 23 37 1 -1
BITMAP
0F0000
1FE000
01F9F8
007FE0
003F80
003F00
00FF80
03F7C0
0047C0
0003E0
0003E0
0001F0
0001F0
0000F8
00FEF8
03EFF8
0F83FC
1F007C
3E007C
3C003C
7C003E
7C003E
F8003E
F8003E
F8003E
F8003E
F8003E
F8003E
F8007E
7C007C
7C007C
7E00F8
3E01F8
1F01F0
0FC7E0
07FFC0
00FE00
ENDCHAR
STARTCHAR 00F1
ENCODING 241
SWIDTH 580 0
DWIDTH 29 0
BBX 26 35 1 0
BITMAP
00300000
00780400
00FE0400
00FF0C00
00CF9800
0183F800
0101F000
0100E000
00000000
00000000
00000000
FF1F8000
1F7FE000
1FE1F800
1F80F800
1F007C00
1F007C00
1F003E00
1F003E00
1F003E00
1F003E00
1F003E00
1F003E00
1F003E00
1F003E00
1F003E00
1F003E00
1F003E00
1F003E00
1F003E00
1F003E00
1F003E00
1F003E00
FFE1FFC0
FFE1FFC0
ENDCHAR
STARTCHAR 00F2
ENCODING 242
SWIDTH 500 0
DWIDTH 25 0
BBX 22 35 2 -1
BITMAP
03E000
01F000
00F000
00F800
007800
003C00
001C00
001800
000000
000000
01FE00
07FF80
1F87E0
3F03F0
3E01F0
7C00F8
7C00F8
7C00F8
F8007C
F8007C
F8007C
F8007C
F8007C
F8007C
F8007C
F8007C
F8007C
7C00F8
7C00F8
7C00F8
3E01F0
3F03F0
1F87E0
0FFFC0
01FE00
ENDCHAR
STARTCHAR 00F3
ENCODING 243
SWIDTH 500 0
DWIDTH 25 0
BBX 22 35 1 -1
BITMAP
000F80
001F00
001E00
003E00
003C00
007800
00F000
003000
000000
000000
01FE00
07FF80
1F87E0
3F03F0
3E01F0
7C00F8
7C00F8
7C00F8
F8007C
F8007C
F8007C
F8007C
F8007C
F8007C
F8007C
F8007C
F8007C
7C00F8
7C00F8
7C00F8
3E01F0
3F03F0
1F87E0
0FFFC0
01FE00
ENDCHAR
STARTCHAR 00F4
ENCODING 244
SWIDTH 500 0
DWIDTH 25 0
BBX 22 35 1 -1
BITMAP
003800
007C00
007E00
00EE00
01C700
018380
030180
000000
000000
000000
01FE00
07FF80
1F87E0
3F03F0
3E01F0
7C00F8
7C00F8
7C00F8
F8007C
F8007C
F8007C
F8007C
F8007C
F8007C
F8007C
F8007C
F8007C
7C00F8
7C00F8
7C00F8
3E01F0
3F03F0
1F87E0
0FFFC0
01FE00
ENDCHAR
STARTCHAR 00F5
ENCODING 245
SWIDTH 500 0
DWIDTH 25 0
BBX 22 36 1 -1
BITMAP
018000
03C020
07F020
07F860
067CC0
0C1FC0
080F80
080700
000000
000000
000000
01FE00
07FF80
1F87E0
3F03F0
3E01F0
7C00F8
7C00F8
7C00F8
F8007C
F8007C
F8007C
F8007C
F8007C
F8007C
F8007C
F8007C
F8007C
7C00F8
7C00F8
7C00F8
3E01F0
3F03F0
1F87E0
0FFFC0
01FE00
ENDCHAR
STARTCHAR 00F6
ENCODING 246
SWIDTH 500 0
DWIDTH 25 0
BBX 22 33 2 -1
BITMAP
1F07C0
1F07C0
1F07C0
1F07C0
1F07C0
000000
000000
000000
01FE00
07FF80
1F87E0
3F03F0
3E01F0
7C00F8
7C00F8
7C00F8
F8007C
F8007C
F8007C
F8007C
F8007C
F8007C
F8007C
F8007C
F8007C
7C00F8
7C00F8
7C00F8
3E01F0
3F03F0
1F87E0
0FFFC0
01FE00
ENDCHAR
STARTCHAR 00F7
ENCODING 247
SWIDTH 540 0
DWIDTH 27 0
BBX 27 24 0 1
BITMAP
003E0000
003E0000
003E0000
003E0000
003E0000
00000000
00000000
00000000
00000000
00000000
00000000
FFFFFFE0
FFFFFFE0
00000000
00000000
00000000
00000000
00000000
00000000
003E0000
003E0000
003E0000
003E0000
003E0000
ENDCHAR
STARTCHAR 00F8
ENCODING 248
SWIDTH 520 0
DWIDTH 26 0
BBX 22 25 2 -1
BITMAP
01FF8C
07FFDC
1F87F8
3E01F0
3E01F0
7C00F8
7C00F8
7801F8
F8037C
F8067C
F8047C
F8087C
F8107C
F8207C
F8407C
F8807C
F9807C
7B0078
7E00F8
7C00F8
3C01F0
3E01F0
3F87E0
47FFC0
01FE00
ENDCHAR
STARTCHAR 00F9
ENCODING 249
SWIDTH 560 0
DWIDTH 28 0
BBX 27 35 1 -1
BITMAP
01F00000
00F80000
00780000
007C0000
003C0000
001E0000
000E0000
000C0000
00000000
00000000
FF00FF00
FF00FF00
1F001F00
1F001F00
1F001F00
1F001F00
1F001F00
1F001F00
1F001F00
1F001F00
1F001F00
1F001F00
1F001F00
1F001F00
1F001F00
1F001F00
1F001F00
1F001F00
1F001F00
0F801F00
0F803F00
07C07F00
03E0FF00
01FFDFE0
007F0000
ENDCHAR
STARTCHAR 00FA
ENCODING 250
SWIDTH 580 0
DWIDTH 29 0
BBX 27 35 1 -1
BITMAP
000F8000
001F0000
001E0000
003E0000
003C0000
00780000
00F00000
00300000
00000000
00000000
FF00FF00
FF00FF00
1F001F00
1F001F00
1F001F00
1F001F00
1F001F00
1F001F00
1F001F00
1F001F00
1F001F00
1F001F00
1F001F00
1F001F00
1F001F00
1F001F00
1F001F00
1F001F00
1F001F00
0F801F00
0F803F00
07C07F00
03E0FF00
01FFDFE0
007F0000
ENDCHAR
STARTCHAR 00FB
ENCODING 251
SWIDTH 560 0
DWIDTH 28 0
BBX 27 35 1 -1
BITMAP
001C0000
003E0000
003F0000
00770000
00E38000
00C1C000
0180C000
00000000
00000000
00000000
FF00FF00
FF00FF00
1F001F00
1F001F00
1F001F00
1F001F00
1F001F00
1F001F00
1F001F00
1F001F00
1F001F00
1F001F00
1F001F00
1F001F00
1F001F00
1F001F00
1F001F00
1F001F00
1F001F00
0F801F00
0F803F00
07C07F00
03E0FF00
01FFDFE0
007F0000
ENDCHAR
STARTCHAR 00FC
ENCODING 252
SWIDTH 560 0
DWIDTH 28 0
BBX 27 33 1 -1
BITMAP
07C1F000
07C1F000
07C1F000
07C1F000
07C1F000
00000000
00000000
00000000
FF00FF00
FF00FF00
1F001F00
1F001F00
1F001F00
1F001F00
1F001F00
1F001F00
1F001F00
1F001F00
1F001F00
1F001F00
1F001F00
1F001F00
1F001F00
1F001F00
1F001F00
1F001F00
1F001F00
0F801F00
0F803F00
07C07F00
03E0FF00
01FFDFE0
007F0000
ENDCHAR
STARTCHAR 00FD
ENCODING 253
SWIDTH 520 0
DWIDTH 26 0
BBX 23 46 1 -12
BITMAP
000F80
001F00
001E00
003E00
003C00
007800
00F000
003000
000000
000000
FFC07E
FFC07E
1F0018
1F0010
0F8030
0F8030
078020
07C060
07C060
03E040
03E0C0
01E080
01F180
01F180
00F900
00FB00
00FB00
007E00
007E00
003C00
003C00
003C00
001800
001800
001000
003000
003000
002000
006000
006000
004000
00C000
008000
018000
070000
0E0000
ENDCHAR
STARTCHAR 00FE
ENCODING 254
SWIDTH 520 0
DWIDTH 26 0
BBX 24 48 1 -12
BITMAP
FF0000
1F0000
1F0000
1F0000
1F0000
1F0000
1F0000
1F0000
1F0000
1F0000
1F0000
1F0000
1F3F80
1FFFF0
1FE1F8
1F80FC
1F007C
1F007E
1F003E
1F003E
1F001F
1F001F
1F001F
1F001F
1F001F
1F001F
1F001F
1F001F
1F001F
1F001E
1F003E
1F003E
1F003C
1F007C
1F80F8
1F61F0
1F1F80
1F0000
1F0000
1F0000
1F0000
1F0000
1F0000
1F0000
1F0000
1F0000
FFE000
FFE000
ENDCHAR
STARTCHAR 00FF
ENCODING 255
SWIDTH 520 0
DWIDTH 26 0
BBX 23 44 1 -12
BITMAP
03E0F8
03E0F8
03E0F8
03E0F8
03E0F8
000000
000000
000000
FFC07E
FFC07E
1F0018
1F0010
0F8030
0F8030
078020
07C060
07C060
03E040
03E0C0
01E080
01F180
01F180
00F900
00FB00
00FB00
007E00
007E00
003C00
003C00
003C00
001800
001800
001000
003000
003000
002000
006000
006000
004000
00C000
008000
018000
070000
0E0000
ENDCHAR
STARTCHAR 0100
ENCODING 256
SWIDTH 620 0
DWIDTH 31 0
BBX 29 40 1 0
BITMAP
03FFFC00
03FFFC00
00000000
00000000
00060000
000F0000
000F0000
000F0000
000F8000
001F8000
001F8000
001FC000
003FC000
0037C000
0037E000
0077E000
0063E000
0063F000
00E3F000
00C1F000
00C1F800
01C1F800
0180F800
0180FC00
0180FC00
03807C00
03FFFC00
03FFFE00
07007E00
06003E00
06003F00
0E003F00
0C001F00
0C001F80
1C001F80
18000F80
18000FC0
38000FC0
FE001FF8
FE001FF8
ENDCHAR
STARTCHAR 0101
ENCODING 257
SWIDTH 520 0
DWIDTH 26 0
BBX 23 30 2 -1
BITMAP
3FFFC0
3FFFC0
000000
000000
000000
03FE00
1FFF80
3C0FC0
3807E0
3003E0
3001F0
2001F0
0001F0
0001F0
0001F0
0003F0
001DF0
03E1F0
1F01F0
3C01F0
7C01F0
F801F0
F801F0
F803F0
F803F0
F807F0
FC0DF0
7E39F8
3FF0FE
0FC000
ENDCHAR
STARTCHAR 0102
ENCODING 258
SWIDTH 640 0
DWIDTH 32 0
BBX 29 43 1 0
BITMAP
03E03E00
03E03C00
01F0F800
007FF000
001FC000
00000000
00000000
00060000
000F0000
000F0000
000F0000
000F8000
001F8000
001F8000
001FC000
003FC000
0037C000
0037E000
0077E000
0063E000
0063F000
00E3F000
00C1F000
00C1F800
01C1F800
0180F800
0180FC00
0180FC00
03807C00
03FFFC00
03FFFE00
07007E00
06003E00
06003F00
0E003F00
0C001F00
0C001F80
1C001F80
18000F80
18000FC0
38000FC0
FE001FF8
FE001FF8
ENDCHAR
STARTCHAR 0103
ENCODING 259
SWIDTH 520 0
DWIDTH 26 0
BBX 23 32 2 -1
BITMAP
7C07C0
7C0780
3E1F00
0FFE00
03F800
000000
000000
03FE00
1FFF80
3C0FC0
3807E0
3003E0
3001F0
2001F0
0001F0
0001F0
0001F0
0003F0
001DF0
03E1F0
1F01F0
3C01F0
7C01F0
F801F0
F801F0
F803F0
F803F0
F807F0
FC0DF0
7E39F8
3FF0FE
0FC000
ENDCHAR
STARTCHAR 0104
ENCODING 260
SWIDTH 620 0
DWIDTH 31 0
BBX 31 45 1 -9
BITMAP
00060000
000F0000
000F0000
000F0000
000F8000
001F8000
001F8000
001FC000
003FC000
0037C000
0037E000
0077E000
0063E000
0063F000
00E3F000
00C1F000
00C1F800
01C1F800
0180F800
0180FC00
0180FC00
03807C00
03FFFC00
03FFFE00
07007E00
06003E00
06003F00
0E003F00
0C001F00
0C001F80
1C001F80
18000F80
18000FC0
38000FC0
FE001FF8
FE001FF8
000001F0
000001F0
000001F0
000001F0
000001F0
000000F8
000000F8
0000007E
0000001E
ENDCHAR
STARTCHAR 0105
ENCODING 261
SWIDTH 500 0
DWIDTH 25 0
BBX 23 32 2 -8
BITMAP
03FE00
1FFF80
3C0FC0
3807E0
3003E0
3001F0
2001F0
0001F0
0001F0
0001F0
0003F0
001DF0
03E1F0
1F01F0
3C01F0
7C01F0
F801F0
F801F0
F803F0
F803F0
F807F0
FC0DF0
7E39F8
3FF0FE
0FE000
03E000
03E000
03E000
01F000
01F000
00FC00
003C00
ENDCHAR
STARTCHAR 0106
ENCODING 262
SWIDTH 540 0
DWIDTH 27 0
BBX 24 46 2 -1
BITMAP
0003E0
0007C0
000780
000F80
000F00
001E00
003C00
000C00
000000
001FF0
00FFFE
03F03F
07C00F
0F8007
1F0003
3E0003
3E0000
7C0000
7C0000
7C0000
F80000
F80000
F80000
F80000
F80000
F80000
F80000
F80000
F80000
F80000
F80000
F80000
F80000
F80000
7C0000
7C0000
7C0000
7C0000
3E0000
3E0003
1F0003
0F8007
07C00F
03F03F
00FFFE
001FF0
ENDCHAR
STARTCHAR 0107
ENCODING 263
SWIDTH 440 0
DWIDTH 22 0
BBX 19 35 2 -1
BITMAP
003E00
007C00
007800
00F800
00F000
01E000
03C000
00C000
000000
000000
01F820
07FE60
1FC3E0
3F00E0
3E0060
7C0060
7C0020
7C0000
F80000
F80000
F80000
F80000
F80000
F80000
F80000
F80000
F80000
7C0000
7C0020
7E0020
3E0060
3F00C0
1F8380
0FFF00
01FC00
ENDCHAR
STARTCHAR 0108
ENCODING 264
SWIDTH 540 0
DWIDTH 27 0
BBX 24 46 2 -1
BITMAP
000E00
001F00
001F80
003B80
0071C0
0060E0
00C060
000000
000000
001FF0
00FFFE
03F03F
07C00F
0F8007
1F0003
3E0003
3E0000
7C0000
7C0000
7C0000
F80000
F80000
F80000
F80000
F80000
F80000
F80000
F80000
F80000
F80000
F80000
F80000
F80000
F80000
7C0000
7C0000
7C0000
7C0000
3E0000
3E0003
1F0003
0F8007
07C00F
03F03F
00FFFE
001FF0
ENDCHAR
STARTCHAR 0109
ENCODING 265
SWIDTH 440 0
DWIDTH 22 0
BBX 19 35 2 -1
BITMAP
007000
00F800
00FC00
01DC00
038E00
030700
060300
000000
000000
000000
01F820
07FE60
1FC3E0
3F00E0
3E0060
7C0060
7C0020
7C0000
F80000
F80000
F80000
F80000
F80000
F80000
F80000
F80000
F80000
7C0000
7C0020
7E0020
3E0060
3F00C0
1F8380
0FFF00
01FC00
ENDCHAR
STARTCHAR 010A
ENCODING 266
SWIDTH 540 0
DWIDTH 27 0
BBX 24 44 2 -1
BITMAP
0007C0
0007C0
0007C0
0007C0
0007C0
000000
000000
001FF0
00FFFE
03F03F
07C00F
0F8007
1F0003
3E0003
3E0000
7C0000
7C0000
7C0000
F80000
F80000
F80000
F80000
F80000
F80000
F80000
F80000
F80000
F80000
F80000
F80000
F80000
F80000
7C0000
7C0000
7C0000
7C0000
3E0000
3E0003
1F0003
0F8007
07C00F
03F03F
00FFFE
001FF0
ENDCHAR
STARTCHAR 010B
ENCODING 267
SWIDTH 440 0
DWIDTH 22 0
BBX 19 33 1 -1
BITMAP
007C00
007C00
007C00
007C00
007C00
000000
000000
000000
01F820
07FE60
1FC3E0
3F00E0
3E0060
7C0060
7C0020
7C0000
F80000
F80000
F80000
F80000
F80000
F80000
F80000
F80000
F80000
7C0000
7C0020
7E0020
3E0060
3F00C0
1F8380
0FFF00
01FC00
ENDCHAR
STARTCHAR 010C
ENCODING 268
SWIDTH 560 0
DWIDTH 28 0
BBX 24 45 2 -1
BITMAP
00E030
007060
0038C0
001DC0
000F80
000F00
000000
000000
001FF0
00FFFE
03F03F
07C00F
0F8007
1F0003
3E0003
3E0000
7C0000
7C0000
7C0000
F80000
F80000
F80000
F80000
F80000
F80000
F80000
F80000
F80000
F80000
F80000
F80000
F80000
F80000
7C0000
7C0000
7C0000
7C0000
3E0000
3E0003
1F0003
0F8007
07C00F
03F03F
00FFFE
001FF0
ENDCHAR
STARTCHAR 010D
ENCODING 269
SWIDTH 440 0
DWIDTH 22 0
BBX 19 34 2 -1
BITMAP
0E0300
070600
038C00
01DC00
00F800
00F000
000000
000000
000000
01F820
07FE60
1FC3E0
3F00E0
3E0060
7C0060
7C0020
7C0000
F80000
F80000
F80000
F80000
F80000
F80000
F80000
F80000
F80000
7C0000
7C0020
7E0020
3E0060
3F00C0
1F8380
0FFF00
01FC00
ENDCHAR
STARTCHAR 010E
ENCODING 270
SWIDTH 600 0
DWIDTH 30 0
BBX 28 45 1 0
BITMAP
07018000
03830000
01C60000
00EE0000
007C0000
00780000
00000000
00000000
00000000
FFFFE000
FFFFFC00
1F00FE00
1F003F00
1F001F80
1F000FC0
1F0007C0
1F0007E0
1F0003E0
1F0003E0
1F0003E0
1F0003F0
1F0001F0
1F0001F0
1F0001F0
1F0001F0
1F0001F0
1F0001F0
1F0001F0
1F0001F0
1F0001F0
1F0001F0
1F0001F0
1F0001F0
1F0003F0
1F0003E0
1F0003E0
1F0003E0
1F0007E0
1F0007C0
1F000FC0
1F001F80
1F003F00
1F007E00
FFFFFC00
FFFFE000
ENDCHAR
STARTCHAR 010F
ENCODING 271
SWIDTH 580 0
DWIDTH 29 0
BBX 27 37 1 -1
BITMAP
0007FBE0
0000FBE0
0000FBE0
0000FBE0
0000FBE0
0000F8E0
0000F860
0000F8C0
0000F980
0000FB00
0000F800
0000F800
01FCF800
0FFFF800
1F87F800
3F01F800
3E00F800
7E00F800
7C00F800
7C00F800
F800F800
F800F800
F800F800
F800F800
F800F800
F800F800
F800F800
F800F800
F800F800
7800F800
7C00F800
7C00F800
3C00F800
3E00F800
1F01F800
0F86FF00
01F80000
ENDCHAR
STARTCHAR 0112
ENCODING 274
SWIDTH 520 0
DWIDTH 26 0
BBX 24 40 1 0
BITMAP
0FFFF0
0FFFF0
000000
000000
FFFFFF
FFFFFF
1F0003
1F0003
1F0000
1F0000
1F0000
1F0000
1F0000
1F0000
1F0000
1F0000
1F0000
1F0000
1F0060
1F0060
1F0060
1FFFE0
1FFFE0
1F0060
1F0060
1F0060
1F0000
1F0000
1F0000
1F0000
1F0000
1F0000
1F0000
1F0000
1F0000
1F0003
1F0003
1F0003
FFFFFF
FFFFFF
ENDCHAR
STARTCHAR 0113
ENCODING 275
SWIDTH 480 0
DWIDTH 24 0
BBX 21 30 2 -1
BITMAP
3FFFC0
3FFFC0
000000
000000
000000
01FC00
07FF00
1F07C0
3E03C0
3C01E0
7C01F0
7800F0
7800F0
F800F8
FFFFF8
FFFFF8
F80000
F80000
F80000
F80000
F80000
F80000
7C0000
7C0010
3C0018
3E0030
1F0060
0F81C0
07FF80
01FC00
ENDCHAR
STARTCHAR 0114
ENCODING 276
SWIDTH 520 0
DWIDTH 26 0
BBX 24 43 1 0
BITMAP
07C07C
07C078
03E1F0
00FFE0
003F80
000000
000000
FFFFFF
FFFFFF
1F0003
1F0003
1F0000
1F0000
1F0000
1F0000
1F0000
1F0000
1F0000
1F0000
1F0000
1F0000
1F0060
1F0060
1F0060
1FFFE0
1FFFE0
1F0060
1F0060
1F0060
1F0000
1F0000
1F0000
1F0000
1F0000
1F0000
1F0000
1F0000
1F0000
1F0003
1F0003
1F0003
FFFFFF
FFFFFF
ENDCHAR
STARTCHAR 0115
ENCODING 277
SWIDTH 480 0
DWIDTH 24 0
BBX 21 32 2 -1
BITMAP
3E03E0
3E03C0
1F0F80
07FF00
01FC00
000000
000000
01FC00
07FF00
1F07C0
3E03C0
3C01E0
7C01F0
7800F0
7800F0
F800F8
FFFFF8
FFFFF8
F80000
F80000
F80000
F80000
F80000
F80000
7C0000
7C0010
3C0018
3E0030
1F0060
0F81C0
07FF80
01FC00
ENDCHAR
STARTCHAR 0116
ENCODING 278
SWIDTH 520 0
DWIDTH 26 0
BBX 24 43 1 0
BITMAP
001F00
001F00
001F00
001F00
001F00
000000
000000
FFFFFF
FFFFFF
1F0003
1F0003
1F0000
1F0000
1F0000
1F0000
1F0000
1F0000
1F0000
1F0000
1F0000
1F0000
1F0060
1F0060
1F0060
1FFFE0
1FFFE0
1F0060
1F0060
1F0060
1F0000
1F0000
1F0000
1F0000
1F0000
1F0000
1F0000
1F0000
1F0000
1F0003
1F0003
1F0003
FFFFFF
FFFFFF
ENDCHAR
STARTCHAR 0117
ENCODING 279
SWIDTH 480 0
DWIDTH 24 0
BBX 21 33 2 -1
BITMAP
01F000
01F000
01F000
01F000
01F000
000000
000000
000000
01FC00
07FF00
1F07C0
3E03C0
3C01E0
7C01F0
7800F0
7800F0
F800F8
FFFFF8
FFFFF8
F80000
F80000
F80000
F80000
F80000
F80000
7C0000
7C0010
3C0018
3E0030
1F0060
0F81C0
07FF80
01FC00
ENDCHAR
STARTCHAR 0118
ENCODING 280
SWIDTH 520 0
DWIDTH 26 0
BBX 24 44 1 -8
BITMAP
FFFFFF
FFFFFF
1F0003
1F0003
1F0000
1F0000
1F0000
1F0000
1F0000
1F0000
1F0000
1F0000
1F0000
1F0000
1F0060
1F0060
1F0060
1FFFE0
1FFFE0
1F0060
1F0060
1F0060
1F0000
1F0000
1F0000
1F0000
1F0000
1F0000
1F0000
1F0000
1F0000
1F0003
1F0003
1F0003
FFFFFF
FFFFFF
007C00
007C00
007C00
007C00
003E00
003E00
001F80
000780
ENDCHAR
STARTCHAR 0119
ENCODING 281
SWIDTH 480 0
DWIDTH 24 0
BBX 21 32 1 -8
BITMAP
01FC00
07FF00
1F07C0
3E03C0
3C01E0
7C01F0
7800F0
7800F0
F800F8
FFFFF8
FFFFF8
F80000
F80000
F80000
F80000
F80000
F80000
7C0000
7C0010
3C0018
3E0030
1F0060
0F81C0
07FF80
01FC00
00F800
00F800
00F800
007C00
007C00
003F00
000F00
ENDCHAR
STARTCHAR 011A
ENCODING 282
SWIDTH 520 0
DWIDTH 26 0
BBX 24 44 1 0
BITMAP
01C060
00E0C0
007180
003B80
001F00
001E00
000000
000000
FFFFFF
FFFFFF
1F0003
1F0003
1F0000
1F0000
1F0000
1F0000
1F0000
1F0000
1F0000
1F0000
1F0000
1F0000
1F0060
1F0060
1F0060
1FFFE0
1FFFE0
1F0060
1F0060
1F0060
1F0000
1F0000
1F0000
1F0000
1F0000
1F0000
1F0000
1F0000
1F0000
1F0003
1F0003
1F0003
FFFFFF
FFFFFF
ENDCHAR
STARTCHAR 011B
ENCODING 283
SWIDTH 480 0
DWIDTH 24 0
BBX 21 34 2 -1
BITMAP
0E0300
070600
038C00
01DC00
00F800
00F000
000000
000000
000000
01FC00
07FF00
1F07C0
3E03C0
3C01E0
7C01F0
7800F0
7800F0
F800F8
FFFFF8
FFFFF8
F80000
F80000
F80000
F80000
F80000
F80000
7C0000
7C0010
3C0018
3E0030
1F0060
0F81C0
07FF80
01FC00
ENDCHAR
STARTCHAR 011C
ENCODING 284
SWIDTH 600 0
DWIDTH 30 0
BBX 29 46 2 -1
BITMAP
001C0000
003E0000
003F0000
00770000
00E38000
00C1C000
0180C000
00000000
00000000
007F8000
03FFF000
07E07C00
0F801E00
1F000F00
3F000700
3E000700
7E000300
7C000300
7C000300
7C000300
FC000000
F8000000
F8000000
F8000000
F8000000
F8000000
F8000000
F8000000
F8000000
F800FFF8
F800FFF8
F80007C0
F80007C0
F80007C0
7C0007C0
7C0007C0
7C0007C0
7C0007C0
3E000FC0
3E000F80
1F000F80
1F801F00
0FC03E00
07E07C00
01FFF000
007FC000
ENDCHAR
STARTCHAR 011D
ENCODING 285
SWIDTH 500 0
DWIDTH 25 0
BBX 24 46 -1 -12
BITMAP
001C00
003E00
003F00
007700
00E380
00C1C0
0180C0
000000
000000
000000
003FFF
01FFFF
03E1F0
07C0F8
0F807C
0F807C
1F003C
1F003E
1F003E
1F003E
1F003E
1F003E
1F003C
0F807C
0F807C
07C0F8
03E1F0
01FFC0
003F80
000700
00FC00
03E000
07C000
03F000
00EF80
0780F0
1E003C
3C003E
78001F
F8001F
F8001F
F8001F
FC003E
7E00FE
3FFFF8
07FFC0
ENDCHAR
STARTCHAR 011E
ENCODING 286
SWIDTH 580 0
DWIDTH 29 0
BBX 29 44 2 -1
BITMAP
07C07C00
07C07800
03E1F000
00FFE000
003F8000
00000000
00000000
007F8000
03FFF000
07E07C00
0F801E00
1F000F00
3F000700
3E000700
7E000300
7C000300
7C000300
7C000300
FC000000
F8000000
F8000000
F8000000
F8000000
F8000000
F8000000
F8000000
F8000000
F800FFF8
F800FFF8
F80007C0
F80007C0
F80007C0
7C0007C0
7C0007C0
7C0007C0
7C0007C0
3E000FC0
3E000F80
1F000F80
1F801F00
0FC03E00
07E07C00
01FFF000
007FC000
ENDCHAR
STARTCHAR 011F
ENCODING 287
SWIDTH 500 0
DWIDTH 25 0
BBX 24 44 -1 -12
BITMAP
0F80F8
0F80F0
07C3E0
01FFC0
007F00
000000
000000
000000
003FFF
01FFFF
03E1F0
07C0F8
0F807C
0F807C
1F003C
1F003E
1F003E
1F003E
1F003E
1F003E
1F003C
0F807C
0F807C
07C0F8
03E1F0
01FFC0
003F80
000700
00FC00
03E000
07C000
03F000
00EF80
0780F0
1E003C
3C003E
78001F
F8001F
F8001F
F8001F
FC003E
7E00FE
3FFFF8
07FFC0
ENDCHAR
STARTCHAR 0120
ENCODING 288
SWIDTH 620 0
DWIDTH 31 0
BBX 29 44 2 -1
BITMAP
003E0000
003E0000
003E0000
003E0000
003E0000
00000000
00000000
007F8000
03FFF000
07E07C00
0F801E00
1F000F00
3F000700
3E000700
7E000300
7C000300
7C000300
7C000300
FC000000
F8000000
F8000000
F8000000
F8000000
F8000000
F8000000
F8000000
F8000000
F800FFF8
F800FFF8
F80007C0
F80007C0
F80007C0
7C0007C0
7C0007C0
7C0007C0
7C0007C0
3E000FC0
3E000F80
1F000F80
1F801F00
0FC03E00
07E07C00
01FFF000
007FC000
ENDCHAR
STARTCHAR 0121
ENCODING 289
SWIDTH 480 0
DWIDTH 24 0
BBX 24 44 0 -12
BITMAP
007C00
007C00
007C00
007C00
007C00
000000
000000
000000
003FFF
01FFFF
03E1F0
07C0F8
0F807C
0F807C
1F003C
1F003E
1F003E
1F003E
1F003E
1F003E
1F003C
0F807C
0F807C
07C0F8
03E1F0
01FFC0
003F80
000700
00FC00
03E000
07C000
03F000
00EF80
0780F0
1E003C
3C003E
78001F
F8001F
F8001F
F8001F
FC003E
7E00FE
3FFFF8
07FFC0
ENDCHAR
STARTCHAR 0124
ENCODING 292
SWIDTH 640 0
DWIDTH 32 0
BBX 31 45 0 0
BITMAP
00038000
0007C000
0007E000
000EE000
001C7000
00183800
00301800
00000000
00000000
FFE007FE
FFE007FE
1F0001F0
1F0001F0
1F0001F0
1F0001F0
1F0001F0
1F0001F0
1F0001F0
1F0001F0
1F0001F0
1F0001F0
1F0001F0
1F0001F0
1F0001F0
1F0001F0
1F0001F0
1FFFFFF0
1FFFFFF0
1F0001F0
1F0001F0
1F0001F0
1F0001F0
1F0001F0
1F0001F0
1F0001F0
1F0001F0
1F0001F0
1F0001F0
1F0001F0
1F0001F0
1F0001F0
1F0001F0
1F0001F0
FFE007FE
FFE007FE
ENDCHAR
STARTCHAR 0125
ENCODING 293
SWIDTH 580 0
DWIDTH 29 0
BBX 27 45 1 0
BITMAP
0E000000
1F000000
1F800000
3B800000
71C00000
60E00000
C0600000
00000000
00000000
FF000000
1F000000
1F000000
1F000000
1F000000
1F000000
1F000000
1F000000
1F000000
1F000000
1F000000
1F000000
1F1FC000
1F7FF000
1FE0F800
1FC07C00
1F003E00
1F003E00
1F001F00
1F001F00
1F001F00
1F001F00
1F001F00
1F001F00
1F001F00
1F001F00
1F001F00
1F001F00
1F001F00
1F001F00
1F001F00
1F001F00
1F001F00
1F001F00
FFE0FFE0
FFE0FFE0
ENDCHAR
STARTCHAR 0126
ENCODING 294
SWIDTH 680 0
DWIDTH 34 0
BBX 33 36 0 0
BITMAP
7FF007FF00
7FF007FF00
0F8000F800
0F8000F800
0F8000F800
0F8000F800
0F8000F800
0F8000F800
0F8000F800
0F8000F800
FFFFFFFF80
FFFFFFFF80
0F8000F800
0F8000F800
0F8000F800
0F8000F800
0F8000F800
0FFFFFF800
0FFFFFF800
0F8000F800
0F8000F800
0F8000F800
0F8000F800
0F8000F800
0F8000F800
0F8000F800
0F8000F800
0F8000F800
0F8000F800
0F8000F800
0F8000F800
0F8000F800
0F8000F800
0F8000F800
7FF007FF00
7FF007FF00
ENDCHAR
STARTCHAR 0127
ENCODING 295
SWIDTH 580 0
DWIDTH 29 0
BBX 27 36 1 0
BITMAP
FF000000
1F000000
1F000000
1F000000
1F000000
1F000000
1F000000
FFFFC000
FFFFC000
1F000000
1F000000
1F000000
1F3FC000
1FFFF000
1FE0F800
1F807C00
1F003E00
1F003E00
1F001E00
1F001F00
1F001F00
1F001F00
1F001F00
1F001F00
1F001F00
1F001F00
1F001F00
1F001F00
1F001F00
1F001F00
1F001F00
1F001F00
1F001F00
1F001F00
FFE0FFE0
FFE0FFE0
ENDCHAR
STARTCHAR 0128
ENCODING 296
SWIDTH 320 0
DWIDTH 16 0
BBX 15 46 1 0
BITMAP
1800
3C02
7F02
7F86
67CC
C1FC
80F8
8070
0000
0000
3FF8
3FF8
07C0
07C0
07C0
07C0
07C0
07C0
07C0
07C0
07C0
07C0
07C0
07C0
07C0
07C0
07C0
07C0
07C0
07C0
07C0
07C0
07C0
07C0
07C0
07C0
07C0
07C0
07C0
07C0
07C0
07C0
07C0
07C0
3FF8
3FF8
ENDCHAR
STARTCHAR 0129
ENCODING 297
SWIDTH 280 0
DWIDTH 14 0
BBX 15 35 -1 0
BITMAP
1800
3C02
7F02
7F86
67CC
C1FC
80F8
8070
0000
0000
0000
3FC0
07C0
07C0
07C0
07C0
07C0
07C0
07C0
07C0
07C0
07C0
07C0
07C0
07C0
07C0
07C0
07C0
07C0
07C0
07C0
07C0
07C0
3FF0
3FF0
ENDCHAR
STARTCHAR 012A
ENCODING 298
SWIDTH 300 0
DWIDTH 15 0
BBX 16 40 -1 0
BITMAP
FFFF
FFFF
0000
0000
3FF8
3FF8
07C0
07C0
07C0
07C0
07C0
07C0
07C0
07C0
07C0
07C0
07C0
07C0
07C0
07C0
07C0
07C0
07C0
07C0
07C0
07C0
07C0
07C0
07C0
07C0
07C0
07C0
07C0
07C0
07C0
07C0
07C0
07C0
3FF8
3FF8
ENDCHAR
STARTCHAR 012B
ENCODING 299
SWIDTH 260 0
DWIDTH 13 0
BBX 16 29 -2 0
BITMAP
FFFF
FFFF
0000
0000
0000
1FE0
03E0
03E0
03E0
03E0
03E0
03E0
03E0
03E0
03E0
03E0
03E0
03E0
03E0
03E0
03E0
03E0
03E0
03E0
03E0
03E0
03E0
1FF8
1FF8
ENDCHAR
STARTCHAR 012C
ENCODING 300
SWIDTH 280 0
DWIDTH 14 0
BBX 17 43 -1 0
BITMAP
F80F80
F80F00
7C3E00
1FFC00
07F000
000000
000000
3FF800
3FF800
07C000
07C000
07C000
07C000
07C000
07C000
07C000
07C000
07C000
07C000
07C000
07C000
07C000
07C000
07C000
07C000
07C000
07C000
07C000
07C000
07C000
07C000
07C000
07C000
07C000
07C000
07C000
07C000
07C000
07C000
07C000
07C000
3FF800
3FF800
ENDCHAR
STARTCHAR 012D
ENCODING 301
SWIDTH 260 0
DWIDTH 13 0
BBX 17 31 -2 0
BITMAP
F80F80
F80F00
7C3E00
1FFC00
07F000
000000
000000
1FE000
03E000
03E000
03E000
03E000
03E000
03E000
03E000
03E000
03E000
03E000
03E000
03E000
03E000
03E000
03E000
03E000
03E000
03E000
03E000
03E000
03E000
1FF800
1FF800
ENDCHAR
STARTCHAR 012E
ENCODING 302
SWIDTH 280 0
DWIDTH 14 0
BBX 14 44 1 -8
BITMAP
FFE0
FFE0
1F00
1F00
1F00
1F00
1F00
1F00
1F00
1F00
1F00
1F00
1F00
1F00
1F00
1F00
1F00
1F00
1F00
1F00
1F00
1F00
1F00
1F00
1F00
1F00
1F00
1F00
1F00
1F00
1F00
1F00
1F00
1F00
FFE0
FFE0
03E0
03E0
03E0
03E0
01F0
01F0
00FC
003C
ENDCHAR
STARTCHAR 012F
ENCODING 303
SWIDTH 260 0
DWIDTH 13 0
BBX 10 43 1 -8
BITMAP
1F00
1F00
1F00
1F00
1F00
0000
0000
0000
0000
0000
0000
FF00
1F00
1F00
1F00
1F00
1F00
1F00
1F00
1F00
1F00
1F00
1F00
1F00
1F00
1F00
1F00
1F00
1F00
1F00
1F00
1F00
1F00
FFC0
FFC0
7C00
7C00
7C00
7C00
3E00
3E00
1F80
0780
ENDCHAR
STARTCHAR 0130
ENCODING 304
SWIDTH 280 0
DWIDTH 14 0
BBX 11 43 1 0
BITMAP
0F80
0F80
0F80
0F80
0F80
0000
0000
FFE0
FFE0
1F00
1F00
1F00
1F00
1F00
1F00
1F00
1F00
1F00
1F00
1F00
1F00
1F00
1F00
1F00
1F00
1F00
1F00
1F00
1F00
1F00
1F00
1F00
1F00
1F00
1F00
1F00
1F00
1F00
1F00
1F00
1F00
FFE0
FFE0
ENDCHAR
STARTCHAR 0131
ENCODING 305
SWIDTH 260 0
DWIDTH 13 0
BBX 10 24 1 0
BITMAP
FF00
1F00
1F00
1F00
1F00
1F00
1F00
1F00
1F00
1F00
1F00
1F00
1F00
1F00
1F00
1F00
1F00
1F00
1F00
1F00
1F00
1F00
FFC0
FFC0
ENDCHAR
STARTCHAR 0134
ENCODING 308
SWIDTH 480 0
DWIDTH 24 0
BBX 22 46 1 -1
BITMAP
0001C0
0003E0
0003F0
000770
000E38
000C1C
00180C
000000
000000
000FFC
000FFC
0003E0
0003E0
0003E0
0003E0
0003E0
0003E0
0003E0
0003E0
0003E0
0003E0
0003E0
0003E0
0003E0
0003E0
0003E0
0003E0
0003E0
0003E0
0003E0
0003E0
0003E0
0003E0
0003E0
0003E0
0003E0
0003E0
3003E0
F003E0
F003E0
7007E0
7807C0
3C0FC0
1E1F80
0FFF00
01F800
ENDCHAR
STARTCHAR 0135
ENCODING 309
SWIDTH 280 0
DWIDTH 14 0
BBX 11 45 2 -12
BITMAP
0E00
1F00
3B80
31C0
60C0
C060
0000
0000
1F00
1F00
1F00
1F00
1F00
1F00
1F00
1F00
1F00
1F00
1F00
1F00
1F00
1F00
1F00
1F00
1F00
1F00
1F00
1F00
1F00
1F00
1F00
1F00
1F00
1F00
1F00
1F00
1F00
1F00
1F00
1F00
1F00
1F00
3E00
7C00
F000
ENDCHAR
STARTCHAR 0136
ENCODING 310
SWIDTH 460 0
DWIDTH 23 0
BBX 1 1 0 0
BITMAP
00
ENDCHAR
STARTCHAR 0139
ENCODING 313
SWIDTH 520 0
DWIDTH 26 0
BBX 23 46 1 0
BITMAP
03E000
07C000
078000
0F8000
0F0000
1E0000
3C0000
0C0000
000000
000000
FFC000
FFC000
1F0000
1F0000
1F0000
1F0000
1F0000
1F0000
1F0000
1F0000
1F0000
1F0000
1F0000
1F0000
1F0000
1F0000
1F0000
1F0000
1F0000
1F0000
1F0000
1F0000
1F0000
1F0000
1F0000
1F0000
1F0000
1F0000
1F0000
1F0000
1F0000
1F0006
1F0006
1F0006
FFFFFE
FFFFFE
ENDCHAR
STARTCHAR 013A
ENCODING 314
SWIDTH 240 0
DWIDTH 12 0
BBX 11 46 1 0
BITMAP
03E0
07C0
0780
0F80
0F00
1E00
3C00
0C00
0000
0000
FF00
1F00
1F00
1F00
1F00
1F00
1F00
1F00
1F00
1F00
1F00
1F00
1F00
1F00
1F00
1F00
1F00
1F00
1F00
1F00
1F00
1F00
1F00
1F00
1F00
1F00
1F00
1F00
1F00
1F00
1F00
1F00
1F00
1F00
FFE0
FFE0
ENDCHAR
STARTCHAR 013D
ENCODING 317
SWIDTH 520 0
DWIDTH 26 0
BBX 23 36 1 0
BITMAP
FFC3E0
FFC3E0
1F03E0
1F03E0
1F03E0
1F00E0
1F0060
1F00C0
1F0180
1F0300
1F0000
1F0000
1F0000
1F0000
1F0000
1F0000
1F0000
1F0000
1F0000
1F0000
1F0000
1F0000
1F0000
1F0000
1F0000
1F0000
1F0000
1F0000
1F0000
1F0000
1F0000
1F0006
1F0006
1F0006
FFFFFE
FFFFFE
ENDCHAR
STARTCHAR 013E
ENCODING 318
SWIDTH 320 0
DWIDTH 16 0
BBX 14 36 1 0
BITMAP
FF7C
1F7C
1F7C
1F7C
1F7C
1F1C
1F0C
1F18
1F30
1F60
1F00
1F00
1F00
1F00
1F00
1F00
1F00
1F00
1F00
1F00
1F00
1F00
1F00
1F00
1F00
1F00
1F00
1F00
1F00
1F00
1F00
1F00
1F00
1F00
FFE0
FFE0
ENDCHAR
STARTCHAR 013F
ENCODING 319
SWIDTH 520 0
DWIDTH 26 0
BBX 23 36 1 0
BITMAP
FFC000
FFC000
1F0000
1F0000
1F0000
1F0000
1F0000
1F0000
1F0000
1F0000
1F0000
1F0000
1F0000
1F0000
1F0000
1F0000
1F0000
1F0000
1F0000
1F0000
1F07C0
1F07C0
1F07C0
1F07C0
1F07C0
1F0000
1F0000
1F0000
1F0000
1F0000
1F0000
1F0006
1F0006
1F0006
FFFFFE
FFFFFE
ENDCHAR
STARTCHAR 0140
ENCODING 320
SWIDTH 360 0
DWIDTH 18 0
BBX 15 36 1 0
BITMAP
FF00
1F00
1F00
1F00
1F00
1F00
1F00
1F00
1F00
1F00
1F00
1F00
1F00
1F00
1F00
1F00
1F00
1F00
1F00
1F00
1F3E
1F3E
1F3E
1F3E
1F3E
1F00
1F00
1F00
1F00
1F00
1F00
1F00
1F00
1F00
FFE0
FFE0
ENDCHAR
STARTCHAR 0141
ENCODING 321
SWIDTH 560 0
DWIDTH 28 0
BBX 27 38 1 0
BITMAP
01F00000
01F00000
01F00000
01F00000
01F00000
01F00000
01F00000
01F00000
01F3C000
01F7C000
01FF0000
01FE0000
01F80000
03F00000
07F00000
1FF00000
3FF00000
F9F00000
01F00000
01F00000
01F00000
01F00000
01F00000
01F00000
01F00000
01F00000
01F00000
01F00000
01F00000
01F00000
01F00000
01F00000
01F00000
01F00000
01F00000
01F00000
01FFFFE0
00FFFFE0
ENDCHAR
STARTCHAR 0142
ENCODING 322
SWIDTH 380 0
DWIDTH 19 0
BBX 17 40 1 -2
BITMAP
03E000
03E000
03E000
03E000
03E000
03E000
03E000
03E000
03E000
03E000
03EF80
03FF00
03FC00
03F000
07E000
1FE000
3FE000
FBE000
03E000
03E000
03E000
03E000
03E000
03E000
03E000
03E000
03E000
03E000
03E000
03E000
03E000
03E000
03E000
03E000
03E000
03E000
03E000
03E000
03E000
03E000
ENDCHAR
STARTCHAR 0143
ENCODING 323
SWIDTH 600 0
DWIDTH 30 0
BBX 29 46 1 0
BITMAP
0007C000
000F8000
000F0000
001F0000
001E0000
003C0000
00780000
00180000
00000000
00000000
FF8007F8
FF8007F8
1FC000C0
1FC000C0
1FE000C0
1BF000C0
1BF000C0
19F800C0
19F800C0
18FC00C0
187E00C0
187E00C0
183F00C0
183F00C0
181F80C0
180FC0C0
180FC0C0
1807E0C0
1807E0C0
1803F0C0
1801F8C0
1801F8C0
1800FCC0
1800FEC0
18007EC0
18003FC0
18003FC0
18001FC0
18001FC0
18000FC0
180007C0
180007C0
180003C0
180003C0
FE0001C0
FE0000C0
ENDCHAR
STARTCHAR 0144
ENCODING 324
SWIDTH 580 0
DWIDTH 29 0
BBX 26 34 1 0
BITMAP
0003E000
0007C000
00078000
000F8000
000F0000
001E0000
003C0000
000C0000
00000000
00000000
FF1F8000
1F7FE000
1FE1F800
1F80F800
1F007C00
1F007C00
1F003E00
1F003E00
1F003E00
1F003E00
1F003E00
1F003E00
1F003E00
1F003E00
1F003E00
1F003E00
1F003E00
1F003E00
1F003E00
1F003E00
1F003E00
1F003E00
FFE1FFC0
FFE1FFC0
ENDCHAR
STARTCHAR 0147
ENCODING 327
SWIDTH 600 0
DWIDTH 30 0
BBX 29 45 1 0
BITMAP
00E03000
00706000
0038C000
001DC000
000F8000
000F0000
00000000
00000000
00000000
FF8007F8
FF8007F8
1FC000C0
1FC000C0
1FE000C0
1BF000C0
1BF000C0
19F800C0
19F800C0
18FC00C0
187E00C0
187E00C0
183F00C0
183F00C0
181F80C0
180FC0C0
180FC0C0
1807E0C0
1807E0C0
1803F0C0
1801F8C0
1801F8C0
1800FCC0
1800FEC0
18007EC0
18003FC0
18003FC0
18001FC0
18001FC0
18000FC0
180007C0
180007C0
180003C0
180003C0
FE0001C0
FE0000C0
ENDCHAR
STARTCHAR 0148
ENCODING 328
SWIDTH 560 0
DWIDTH 28 0
BBX 26 33 1 0
BITMAP
01C06000
00E0C000
00718000
003B8000
001F0000
001E0000
00000000
00000000
00000000
FF1F8000
1F7FE000
1FE1F800
1F80F800
1F007C00
1F007C00
1F003E00
1F003E00
1F003E00
1F003E00
1F003E00
1F003E00
1F003E00
1F003E00
1F003E00
1F003E00
1F003E00
1F003E00
1F003E00
1F003E00
1F003E00
1F003E00
FFE1FFC0
FFE1FFC0
ENDCHAR
STARTCHAR 0149
ENCODING 329
SWIDTH 700 0
DWIDTH 35 0
BBX 31 31 3 0
BITMAP
F8000000
F8000000
F8000000
F8000000
F8000000
38000000
18000000
37F8FC00
60FBFF00
C0FF0FC0
00FC07C0
00F803E0
00F803E0
00F801F0
00F801F0
00F801F0
00F801F0
00F801F0
00F801F0
00F801F0
00F801F0
00F801F0
00F801F0
00F801F0
00F801F0
00F801F0
00F801F0
00F801F0
00F801F0
07FF0FFE
07FF0FFE
ENDCHAR
STARTCHAR 014A
ENCODING 330
SWIDTH 580 0
DWIDTH 29 0
BBX 25 44 2 -8
BITMAP
F8000F80
FC000F80
FC000F80
FE000F80
FF000F80
FF000F80
FF800F80
FF800F80
FFC00F80
FFC00F80
FBE00F80
FBE00F80
F9F00F80
F9F80F80
F8F80F80
F87C0F80
F87C0F80
F83E0F80
F83E0F80
F81F0F80
F80F0F80
F80F8F80
F807CF80
F807CF80
F803EF80
F801EF80
F801FF80
F800FF80
F800FF80
F8007F80
F8007F80
F8003F80
F8001F80
F8001F80
F8000F80
F8000F80
00000F80
00000F80
00000F80
00001F00
00001F00
00003E00
0000FC00
0000F000
ENDCHAR
STARTCHAR 014B
ENCODING 331
SWIDTH 520 0
DWIDTH 26 0
BBX 23 33 1 -9
BITMAP
FF1F80
1F61E0
1F80F0
1F0078
1F0078
1F007C
1F003C
1F003C
1F003E
1F003E
1F003E
1F003E
1F003E
1F003E
1F003E
1F003E
1F003E
1F003E
1F003E
1F003E
1F003E
1F003E
FFE03E
FFE03E
00003E
00003E
00003E
00003E
00007C
00007C
0000F8
0003F0
0003C0
ENDCHAR
STARTCHAR 014C
ENCODING 332
SWIDTH 620 0
DWIDTH 31 0
BBX 27 41 2 -1
BITMAP
07FFF800
07FFF800
00000000
00000000
007F8000
01FFF000
07E0FC00
0F807E00
1F003F00
1F001F00
3E000F80
7E000F80
7C000FC0
7C0007C0
FC0007C0
FC0007E0
FC0007E0
FC0007E0
F80007E0
F80003E0
F80003E0
F80003E0
F80003E0
F80003E0
F80003E0
F80003E0
F80007E0
F80007E0
FC0007E0
FC0007E0
FC0007C0
7C0007C0
7C000FC0
7E000F80
3E000F80
1F001F00
1F003F00
0F807E00
07E0FC00
01FFF000
007FC000
ENDCHAR
STARTCHAR 014D
ENCODING 333
SWIDTH 500 0
DWIDTH 25 0
BBX 22 30 2 -1
BITMAP
1FFFE0
1FFFE0
000000
000000
000000
01FE00
07FF80
1F87E0
3F03F0
3E01F0
7C00F8
7C00F8
7C00F8
F8007C
F8007C
F8007C
F8007C
F8007C
F8007C
F8007C
F8007C
F8007C
7C00F8
7C00F8
7C00F8
3E01F0
3F03F0
1F87E0
0FFFC0
01FE00
ENDCHAR
STARTCHAR 014E
ENCODING 334
SWIDTH 600 0
DWIDTH 30 0
BBX 27 44 2 -1
BITMAP
07C07C00
07C07800
03E1F000
00FFE000
003F8000
00000000
00000000
007F8000
01FFF000
07E0FC00
0F807E00
1F003F00
1F001F00
3E000F80
7E000F80
7C000FC0
7C0007C0
FC0007C0
FC0007E0
FC0007E0
FC0007E0
F80007E0
F80003E0
F80003E0
F80003E0
F80003E0
F80003E0
F80003E0
F80003E0
F80007E0
F80007E0
FC0007E0
FC0007E0
FC0007C0
7C0007C0
7C000FC0
7E000F80
3E000F80
1F001F00
1F003F00
0F807E00
07E0FC00
01FFF000
007FC000
ENDCHAR
STARTCHAR 014F
ENCODING 335
SWIDTH 500 0
DWIDTH 25 0
BBX 22 32 1 -1
BITMAP
1F01F0
1F01E0
0F87C0
03FF80
00FE00
000000
000000
01FE00
07FF80
1F87E0
3F03F0
3E01F0
7C00F8
7C00F8
7C00F8
F8007C
F8007C
F8007C
F8007C
F8007C
F8007C
F8007C
F8007C
F8007C
7C00F8
7C00F8
7C00F8
3E01F0
3F03F0
1F87E0
0FFFC0
01FE00
ENDCHAR
STARTCHAR 0150
ENCODING 336
SWIDTH 600 0
DWIDTH 30 0
BBX 27 46 2 -1
BITMAP
001F8FC0
003F1F80
007C3E00
00F07800
01E0F000
0783C000
0E070000
00000000
00000000
007F8000
01FFF000
07E0FC00
0F807E00
1F003F00
1F001F00
3E000F80
7E000F80
7C000FC0
7C0007C0
FC0007C0
FC0007E0
FC0007E0
FC0007E0
F80007E0
F80003E0
F80003E0
F80003E0
F80003E0
F80003E0
F80003E0
F80003E0
F80007E0
F80007E0
FC0007E0
FC0007E0
FC0007C0
7C0007C0
7C000FC0
7E000F80
3E000F80
1F001F00
1F003F00
0F807E00
07E0FC00
01FFF000
007FC000
ENDCHAR
STARTCHAR 0151
ENCODING 337
SWIDTH 500 0
DWIDTH 25 0
BBX 24 34 2 -1
BITMAP
007E3F
00FC7E
01F0F8
03C1E0
0783C0
1E0F00
381C00
000000
000000
01FE00
07FF80
1F87E0
3F03F0
3E01F0
7C00F8
7C00F8
7C00F8
F8007C
F8007C
F8007C
F8007C
F8007C
F8007C
F8007C
F8007C
F8007C
7C00F8
7C00F8
7C00F8
3E01F0
3F03F0
1F87E0
0FFFC0
01FE00
ENDCHAR
STARTCHAR 0152
ENCODING 338
SWIDTH 860 0
DWIDTH 43 0
BBX 39 37 2 -1
BITMAP
007FFFFFFE
03FFFFFFFE
07F0FF0006
0FC03F0006
1F801F0000
3F001F0000
3F001F0000
7E001F0000
7E001F0000
7C001F0000
7C001F0000
FC001F0000
FC001F0000
F8001F0000
F8001F00C0
F8001F00C0
F8001F00C0
F8001FFFC0
F8001FFFC0
F8001F00C0
F8001F00C0
F8001F00C0
F8001F0000
F8001F0000
FC001F0000
7C001F0000
7C001F0000
7C001F0000
7E001F0000
3E001F0000
3F001F0000
1F001F0000
1F801F0006
0FC03F0006
07F0FF0006
03FFFFFFFE
007F800000
ENDCHAR
STARTCHAR 0153
ENCODING 339
SWIDTH 860 0
DWIDTH 43 0
BBX 39 25 2 -1
BITMAP
00FF007F00
07FFC1FFC0
0F83F3C1F0
1F01F780F0
3E00FF0078
7C007F007C
7C007E003C
7C007E003C
F8003E003E
F8003FFFFE
F8003FFFFE
F8003E0000
F8003E0000
F8003E0000
F8003E0000
F8003E0000
F8003E0000
7C007F0000
7C007F0002
7C007F0006
3E00FF800E
3F01F7C01C
1F83F3F078
07FFC1FFE0
01FF003F80
ENDCHAR
STARTCHAR 0154
ENCODING 340
SWIDTH 660 0
DWIDTH 33 0
BBX 31 45 1 0
BITMAP
0007C000
000F8000
000F0000
001F0000
001E0000
003C0000
00780000
00180000
00000000
FFFFE000
FFFFFC00
1F007E00
1F001F00
1F000F80
1F0007C0
1F0007C0
1F0003E0
1F0003E0
1F0003E0
1F0003E0
1F0003E0
1F0007C0
1F0007C0
1F000F80
1F001F80
1F007F00
1FFFFC00
1FFFF000
1F07E000
1F03E000
1F03F000
1F03F000
1F01F800
1F00F800
1F00FC00
1F007C00
1F007E00
1F003F00
1F003F80
1F001F80
1F000FC0
1F000FE0
1F0007F0
FFE003FE
FFE001FE
ENDCHAR
STARTCHAR 0155
ENCODING 341
SWIDTH 440 0
DWIDTH 22 0
BBX 20 34 1 0
BITMAP
000F80
001F00
001E00
003E00
003C00
007800
00F000
003000
000000
000000
FF1F80
1F7FE0
1FE1F0
1F8060
1F0000
1F0000
1F0000
1F0000
1F0000
1F0000
1F0000
1F0000
1F0000
1F0000
1F0000
1F0000
1F0000
1F0000
1F0000
1F0000
1F0000
1F0000
FFE000
FFE000
ENDCHAR
STARTCHAR 0158
ENCODING 344
SWIDTH 600 0
DWIDTH 30 0
BBX 31 45 1 0
BITMAP
01C06000
00E0C000
00718000
003B8000
001F0000
001E0000
00000000
00000000
00000000
FFFFE000
FFFFFC00
1F007E00
1F001F00
1F000F80
1F0007C0
1F0007C0
1F0003E0
1F0003E0
1F0003E0
1F0003E0
1F0003E0
1F0007C0
1F0007C0
1F000F80
1F001F80
1F007F00
1FFFFC00
1FFFF000
1F07E000
1F03E000
1F03F000
1F03F000
1F01F800
1F00F800
1F00FC00
1F007C00
1F007E00
1F003F00
1F003F80
1F001F80
1F000FC0
1F000FE0
1F0007F0
FFE003FE
FFE001FE
ENDCHAR
STARTCHAR 0159
ENCODING 345
SWIDTH 440 0
DWIDTH 22 0
BBX 20 33 1 0
BITMAP
0380C0
01C180
00E300
007700
003E00
003C00
000000
000000
000000
FF1F80
1F7FE0
1FE1F0
1F8060
1F0000
1F0000
1F0000
1F0000
1F0000
1F0000
1F0000
1F0000
1F0000
1F0000
1F0000
1F0000
1F0000
1F0000
1F0000
1F0000
1F0000
1F0000
FFE000
FFE000
ENDCHAR
STARTCHAR 015A
ENCODING 346
SWIDTH 520 0
DWIDTH 26 0
BBX 23 47 2 -1
BITMAP
000F80
001F00
001E00
003E00
003C00
007800
00F000
003000
000000
000000
01FE00
0FFFE0
1F83F0
3F00F0
7E0070
7C0070
F80030
F80000
F80000
F80000
F80000
FC0000
FC0000
7E0000
7F0000
3FC000
1FF800
0FFF00
03FFC0
00FFE0
001FF0
0003F8
0000FC
00007C
00007E
00003E
00003E
C0003E
C0003E
E0003E
E0007C
E0007C
F000F8
7801F0
3E07E0
0FFFC0
03FE00
ENDCHAR
STARTCHAR 015B
ENCODING 347
SWIDTH 420 0
DWIDTH 21 0
BBX 17 35 3 -1
BITMAP
00F800
01F000
01E000
03E000
03C000
078000
0F0000
030000
000000
000000
07FF00
1FFF00
3E1F00
7C0F00
F80700
F80300
F80300
F80000
FC0000
7E0000
7FC000
3FF000
0FFC00
03FE00
007F00
001F00
001F80
000F80
800F80
C00F80
C01F80
E01F00
F87E00
CFFC00
03F000
ENDCHAR
STARTCHAR 015C
ENCODING 348
SWIDTH 520 0
DWIDTH 26 0
BBX 23 46 2 -1
BITMAP
003800
007C00
007E00
00EE00
01C700
018380
030180
000000
000000
01FE00
0FFFE0
1F83F0
3F00F0
7E0070
7C0070
F80030
F80000
F80000
F80000
F80000
FC0000
FC0000
7E0000
7F0000
3FC000
1FF800
0FFF00
03FFC0
00FFE0
001FF0
0003F8
0000FC
00007C
00007E
00003E
00003E
C0003E
C0003E
E0003E
E0007C
E0007C
F000F8
7801F0
3E07E0
0FFFC0
03FE00
ENDCHAR
STARTCHAR 015D
ENCODING 349
SWIDTH 400 0
DWIDTH 20 0
BBX 17 35 2 -1
BITMAP
01C000
03E000
03F000
077000
0E3800
0C1C00
180C00
000000
000000
000000
07FF00
1FFF00
3E1F00
7C0F00
F80700
F80300
F80300
F80000
FC0000
7E0000
7FC000
3FF000
0FFC00
03FE00
007F00
001F00
001F80
000F80
800F80
C00F80
C01F80
E01F00
F87E00
CFFC00
03F000
ENDCHAR
STARTCHAR 015E
ENCODING 350
SWIDTH 520 0
DWIDTH 26 0
BBX 23 48 2 -12
BITMAP
01FE00
0FFFE0
1F83F0
3F00F0
7E0070
7C0070
F80030
F80000
F80000
F80000
F80000
FC0000
FC0000
7E0000
7F0000
3FC000
1FF800
0FFF00
03FFC0
00FFE0
001FF0
0003F8
0000FC
00007C
00007E
00003E
00003E
C0003E
C0003E
E0003E
E0007C
E0007C
F000F8
7801F0
3E07E0
0FFFC0
03FE00
008000
018000
01C000
03F000
00F800
007800
007800
007800
00F800
07F000
07E000
ENDCHAR
STARTCHAR 015F
ENCODING 351
SWIDTH 400 0
DWIDTH 20 0
BBX 17 36 2 -12
BITMAP
07FF00
1FFF00
3E1F00
7C0F00
F80700
F80300
F80300
F80000
FC0000
7E0000
7FC000
3FF000
0FFC00
03FE00
007F00
001F00
001F80
000F80
800F80
C00F80
C01F80
E01F00
F87E00
CFFC00
03F000
020000
060000
070000
0FC000
03E000
01E000
01E000
01E000
03E000
1FC000
1F8000
ENDCHAR
STARTCHAR 0160
ENCODING 352
SWIDTH 520 0
DWIDTH 26 0
BBX 23 46 2 0
BITMAP
070180
038300
01C600
00EE00
007C00
007800
000000
000000
000000
01FE00
0FFFE0
1F83F0
3F00F0
7E0070
7C0070
F80030
F80000
F80000
F80000
F80000
FC0000
FC0000
7E0000
7F0000
3FC000
1FF800
0FFF00
03FFC0
00FFE0
001FF0
0003F8
0000FC
00007C
00007E
00003E
00003E
C0003E
C0003E
E0003E
E0007C
E0007C
F000F8
7801F0
3E07E0
0FFFC0
03FE00
ENDCHAR
STARTCHAR 0161
ENCODING 353
SWIDTH 400 0
DWIDTH 20 0
BBX 17 34 3 0
BITMAP
1C0600
0E0C00
071800
03B800
01F000
01E000
000000
000000
000000
07FF00
1FFF00
3E1F00
7C0F00
F80700
F80300
F80300
F80000
FC0000
7E0000
7FC000
3FF000
0FFC00
03FE00
007F00
001F00
001F80
000F80
800F80
C00F80
C01F80
E01F00
F87E00
CFFC00
03F000
ENDCHAR
STARTCHAR 0162
ENCODING 354
SWIDTH 540 0
DWIDTH 27 0
BBX 25 48 1 -12
BITMAP
FFFFFF80
FFFFFF80
C03E0380
C03E0380
C03E0380
003E0000
003E0000
003E0000
003E0000
003E0000
003E0000
003E0000
003E0000
003E0000
003E0000
003E0000
003E0000
003E0000
003E0000
003E0000
003E0000
003E0000
003E0000
003E0000
003E0000
003E0000
003E0000
003E0000
003E0000
003E0000
003E0000
003E0000
003E0000
003E0000
01FF8000
01FF8000
00180000
00100000
00300000
00380000
007E0000
001F0000
000F0000
000F0000
000F0000
001F0000
00FE0000
00FC0000
ENDCHAR
STARTCHAR 0163
ENCODING 355
SWIDTH 320 0
DWIDTH 16 0
BBX 14 47 1 -12
BITMAP
0080
0180
0380
0780
0F80
0F80
0F80
0F80
0F80
0F80
0F80
FFF8
FFF8
0F80
0F80
0F80
0F80
0F80
0F80
0F80
0F80
0F80
0F80
0F80
0F80
0F80
0F80
0F80
0F80
0F80
0F80
0F80
0FC0
07F8
00F8
0060
0040
00C0
00E0
01F8
007C
003C
003C
003C
007C
03F8
03F0
ENDCHAR
STARTCHAR 0164
ENCODING 356
SWIDTH 560 0
DWIDTH 28 0
BBX 25 45 1 0
BITMAP
01C06000
00E0C000
00718000
003B8000
001F0000
001E0000
00000000
00000000
00000000
FFFFFF80
FFFFFF80
C03E0380
C03E0380
C03E0380
003E0000
003E0000
003E0000
003E0000
003E0000
003E0000
003E0000
003E0000
003E0000
003E0000
003E0000
003E0000
003E0000
003E0000
003E0000
003E0000
003E0000
003E0000
003E0000
003E0000
003E0000
003E0000
003E0000
003E0000
003E0000
003E0000
003E0000
003E0000
003E0000
01FF8000
01FF8000
ENDCHAR
STARTCHAR 0165
ENCODING 357
SWIDTH 400 0
DWIDTH 20 0
BBX 19 37 1 0
BITMAP
0003E0
0003E0
0083E0
0183E0
0383E0
0780E0
0F8060
0F80C0
0F8180
0F8300
0F8000
0F8000
0F8000
FFF800
FFF800
0F8000
0F8000
0F8000
0F8000
0F8000
0F8000
0F8000
0F8000
0F8000
0F8000
0F8000
0F8000
0F8000
0F8000
0F8000
0F8000
0F8000
0F8000
0F8000
0FC000
07F800
00F800
ENDCHAR
STARTCHAR 0166
ENCODING 358
SWIDTH 540 0
DWIDTH 27 0
BBX 25 36 1 0
BITMAP
FFFFFF80
FFFFFF80
C03E0380
C03E0380
C03E0380
003E0000
003E0000
003E0000
003E0000
003E0000
003E0000
003E0000
003E0000
003E0000
003E0000
003E0000
003E0000
0FFFF000
0FFFF000
003E0000
003E0000
003E0000
003E0000
003E0000
003E0000
003E0000
003E0000
003E0000
003E0000
003E0000
003E0000
003E0000
003E0000
003E0000
01FF8000
01FF8000
ENDCHAR
STARTCHAR 0167
ENCODING 359
SWIDTH 320 0
DWIDTH 16 0
BBX 13 35 1 0
BITMAP
0080
0180
0380
0780
0F80
0F80
0F80
0F80
0F80
0F80
0F80
FFF8
3FF8
0F80
0F80
0F80
0F80
0F80
0F80
FFF8
FFF8
0F80
0F80
0F80
0F80
0F80
0F80
0F80
0F80
0F80
0F80
0F80
0FC0
07F8
00F8
ENDCHAR
STARTCHAR 0168
ENCODING 360
SWIDTH 700 0
DWIDTH 35 0
BBX 34 47 1 -1
BITMAP
000C000000
001E010000
003F810000
003FC30000
0033E60000
0060FE0000
00407C0000
0040380000
0000000000
0000000000
FFC001FFC0
FFC001FFC0
1F00003E00
1F00003E00
1F00003E00
1F00003E00
1F00003E00
1F00003E00
1F00003E00
1F00003E00
1F00003E00
1F00003E00
1F00003E00
1F00003E00
1F00003E00
1F00003E00
1F00003E00
1F00003E00
1F00003E00
1F00003E00
1F00003E00
1F00003E00
1F00003E00
1F00003E00
1F00003E00
1F80003E00
0F80007C00
0F80007C00
0F80007C00
07C0007800
07C000F800
03E000F800
03E001F000
01F003E000
00FC0FC000
003FFF8000
0007FC0000
ENDCHAR
STARTCHAR 0169
ENCODING 361
SWIDTH 580 0
DWIDTH 29 0
BBX 27 36 1 -1
BITMAP
00600000
00F00800
01FC0800
01FE1800
019F3000
0307F000
0203E000
0201C000
00000000
00000000
00000000
FF00FF00
FF00FF00
1F001F00
1F001F00
1F001F00
1F001F00
1F001F00
1F001F00
1F001F00
1F001F00
1F001F00
1F001F00
1F001F00
1F001F00
1F001F00
1F001F00
1F001F00
1F001F00
1F001F00
0F801F00
0F803F00
07C07F00
03E0FF00
01FFDFE0
007F0000
ENDCHAR
STARTCHAR 016A
ENCODING 362
SWIDTH 560 0
DWIDTH 28 0
BBX 34 41 1 -1
BITMAP
007FFF8000
007FFF8000
0000000000
0000000000
FFC001FFC0
FFC001FFC0
1F00003E00
1F00003E00
1F00003E00
1F00003E00
1F00003E00
1F00003E00
1F00003E00
1F00003E00
1F00003E00
1F00003E00
1F00003E00
1F00003E00
1F00003E00
1F00003E00
1F00003E00
1F00003E00
1F00003E00
1F00003E00
1F00003E00
1F00003E00
1F00003E00
1F00003E00
1F00003E00
1F80003E00
0F80007C00
0F80007C00
0F80007C00
07C0007800
07C000F800
03E000F800
03E001F000
01F003E000
00FC0FC000
003FFF8000
0007FC0000
ENDCHAR
STARTCHAR 016B
ENCODING 363
SWIDTH 560 0
DWIDTH 28 0
BBX 27 30 1 -1
BITMAP
07FFF800
07FFF800
00000000
00000000
00000000
FF00FF00
FF00FF00
1F001F00
1F001F00
1F001F00
1F001F00
1F001F00
1F001F00
1F001F00
1F001F00
1F001F00
1F001F00
1F001F00
1F001F00
1F001F00
1F001F00
1F001F00
1F001F00
1F001F00
0F801F00
0F803F00
07C07F00
03E0FF00
01FFDFE0
007F0000
ENDCHAR
STARTCHAR 016C
ENCODING 364
SWIDTH 700 0
DWIDTH 35 0
BBX 34 44 1 -1
BITMAP
00F80F8000
00F80F0000
007C3E0000
001FFC0000
0007F00000
0000000000
0000000000
FFC001FFC0
FFC001FFC0
1F00003E00
1F00003E00
1F00003E00
1F00003E00
1F00003E00
1F00003E00
1F00003E00
1F00003E00
1F00003E00
1F00003E00
1F00003E00
1F00003E00
1F00003E00
1F00003E00
1F00003E00
1F00003E00
1F00003E00
1F00003E00
1F00003E00
1F00003E00
1F00003E00
1F00003E00
1F00003E00
1F80003E00
0F80007C00
0F80007C00
0F80007C00
07C0007800
07C000F800
03E000F800
03E001F000
01F003E000
00FC0FC000
003FFF8000
0007FC0000
ENDCHAR
STARTCHAR 016D
ENCODING 365
SWIDTH 560 0
DWIDTH 28 0
BBX 27 32 1 -1
BITMAP
0F80F800
0F80F000
07C3E000
01FFC000
007F0000
00000000
00000000
FF00FF00
FF00FF00
1F001F00
1F001F00
1F001F00
1F001F00
1F001F00
1F001F00
1F001F00
1F001F00
1F001F00
1F001F00
1F001F00
1F001F00
1F001F00
1F001F00
1F001F00
1F001F00
1F001F00
0F801F00
0F803F00
07C07F00
03E0FF00
01FFDFE0
007F0000
ENDCHAR
STARTCHAR 016E
ENCODING 366
SWIDTH 700 0
DWIDTH 35 0
BBX 34 46 1 -1
BITMAP
0003C00000
0007F00000
0006300000
000C180000
000C180000
000C180000
000C180000
0006300000
0007F00000
FFC1C1FFC0
FFC001FFC0
1F00003E00
1F00003E00
1F00003E00
1F00003E00
1F00003E00
1F00003E00
1F00003E00
1F00003E00
1F00003E00
1F00003E00
1F00003E00
1F00003E00
1F00003E00
1F00003E00
1F00003E00
1F00003E00
1F00003E00
1F00003E00
1F00003E00
1F00003E00
1F00003E00
1F00003E00
1F00003E00
1F80003E00
0F80007C00
0F80007C00
0F80007C00
07C0007800
07C000F800
03E000F800
03E001F000
01F003E000
00FC0FC000
003FFF8000
0007FC0000
ENDCHAR
STARTCHAR 016F
ENCODING 367
SWIDTH 560 0
DWIDTH 28 0
BBX 27 37 1 -1
BITMAP
003C0000
007F0000
00630000
00C18000
00C18000
00C18000
00C18000
00630000
007F0000
001C0000
00000000
00000000
FF00FF00
FF00FF00
1F001F00
1F001F00
1F001F00
1F001F00
1F001F00
1F001F00
1F001F00
1F001F00
1F001F00
1F001F00
1F001F00
1F001F00
1F001F00
1F001F00
1F001F00
1F001F00
1F001F00
0F801F00
0F803F00
07C07F00
03E0FF00
01FFDFE0
007F0000
ENDCHAR
STARTCHAR 0170
ENCODING 368
SWIDTH 700 0
DWIDTH 35 0
BBX 34 46 1 -1
BITMAP
0007E3F000
000FC7E000
001F0F8000
003C1E0000
00783C0000
01E0F00000
0381C00000
0000000000
0000000000
FFC001FFC0
FFC001FFC0
1F00003E00
1F00003E00
1F00003E00
1F00003E00
1F00003E00
1F00003E00
1F00003E00
1F00003E00
1F00003E00
1F00003E00
1F00003E00
1F00003E00
1F00003E00
1F00003E00
1F00003E00
1F00003E00
1F00003E00
1F00003E00
1F00003E00
1F00003E00
1F00003E00
1F00003E00
1F00003E00
1F80003E00
0F80007C00
0F80007C00
0F80007C00
07C0007800
07C000F800
03E000F800
03E001F000
01F003E000
00FC0FC000
003FFF8000
0007FC0000
ENDCHAR
STARTCHAR 0171
ENCODING 369
SWIDTH 560 0
DWIDTH 28 0
BBX 27 35 0 -1
BITMAP
001F8FC0
003F1F80
007C3E00
00F07800
01E0F000
0783C000
0E070000
00000000
00000000
00000000
FF00FF00
FF00FF00
1F001F00
1F001F00
1F001F00
1F001F00
1F001F00
1F001F00
1F001F00
1F001F00
1F001F00
1F001F00
1F001F00
1F001F00
1F001F00
1F001F00
1F001F00
1F001F00
1F001F00
0F801F00
0F803F00
07C07F00
03E0FF00
01FFDFE0
007F0000
ENDCHAR
STARTCHAR 0174
ENCODING 372
SWIDTH 860 0
DWIDTH 43 0
BBX 41 45 1 0
BITMAP
00001C000000
00003E000000
00003F000000
000077000000
0000E3800000
0000C1C00000
000180C00000
000000000000
000000000000
FFCFFFF83F80
FFCFFFF83F80
1F03F0C00C00
1F81F0C01C00
1F81F9C01800
0F81F9801800
0FC0F9803800
0FC0FF803000
07C0FF003000
07E07F007000
07E07F006000
03E07F006000
03F03E00E000
03F03E00C000
01F03F00C000
01F83F01C000
01F81F018000
00F81F818000
00FC1F818000
00FC1F838000
007C3FC30000
007C3FC30000
007E37C70000
003E77E60000
003E67E60000
003F63EE0000
003FE3FC0000
001FC3FC0000
001FC1FC0000
001FC1F80000
000FC1F80000
000F80F80000
000F80F00000
000780F00000
000700700000
000700700000
ENDCHAR
STARTCHAR 0175
ENCODING 373
SWIDTH 740 0
DWIDTH 37 0
BBX 35 34 1 0
BITMAP
0000E00000
0001F00000
0001F80000
0003B80000
00071C0000
00060E0000
000C060000
0000000000
0000000000
0000000000
FFDFFF07E0
FFDFFF07E0
1F03EC0100
0F03E80300
0F83F80200
0F81F00600
07C1F00600
07C0F80400
07C0F80C00
03E0F80800
03E07C1800
01F0FC1800
01F0FE1000
01F0BE3000
00F9BE3000
00F91F6000
007D1F6000
007F0FC000
007E0FC000
003E0FC000
003E078000
001C078000
001C030000
0018030000
ENDCHAR
STARTCHAR 0176
ENCODING 374
SWIDTH 640 0
DWIDTH 32 0
BBX 29 45 1 0
BITMAP
00038000
0007C000
0007E000
000EE000
001C7000
00183800
00301800
00000000
00000000
FFC001F8
FFC001F8
1F0000C0
0F8001C0
0FC00180
07C00300
07E00700
03E00600
03F00E00
01F00C00
00F81800
00F81800
007C3000
007C7000
003E6000
001FE000
001FC000
000F8000
000F8000
000F8000
000F8000
000F8000
000F8000
000F8000
000F8000
000F8000
000F8000
000F8000
000F8000
000F8000
000F8000
000F8000
000F8000
000F8000
007FE000
007FE000
ENDCHAR
STARTCHAR 0177
ENCODING 375
SWIDTH 520 0
DWIDTH 26 0
BBX 23 46 1 -12
BITMAP
001C00
003E00
003F00
007700
00E380
00C1C0
0180C0
000000
000000
000000
FFC07E
FFC07E
1F0018
1F0010
0F8030
0F8030
078020
07C060
07C060
03E040
03E0C0
01E080
01F180
01F180
00F900
00FB00
00FB00
007E00
007E00
003C00
003C00
003C00
001800
001800
001000
003000
003000
002000
006000
006000
004000
00C000
008000
018000
070000
0E0000
ENDCHAR
STARTCHAR 0178
ENCODING 376
SWIDTH 520 0
DWIDTH 26 0
BBX 29 45 1 1
BITMAP
00F83E00
00F83E00
00F83E00
00F83E00
00F83E00
00000000
00000000
00000000
00000000
FFC001F8
FFC001F8
1F0000C0
0F8001C0
0FC00180
07C00300
07E00700
03E00600
03F00E00
01F00C00
00F81800
00F81800
007C3000
007C7000
003E6000
001FE000
001FC000
000F8000
000F8000
000F8000
000F8000
000F8000
000F8000
000F8000
000F8000
000F8000
000F8000
000F8000
000F8000
000F8000
000F8000
000F8000
000F8000
000F8000
007FE000
007FE000
ENDCHAR
STARTCHAR 0179
ENCODING 377
SWIDTH 580 0
DWIDTH 29 0
BBX 26 46 1 0
BITMAP
0001F000
0003E000
0003C000
0007C000
00078000
000F0000
001E0000
00060000
00000000
00000000
7FFFFFC0
7FFFFF80
60001F80
60001F00
60003F00
00003E00
00007C00
0000FC00
0000F800
0001F800
0001F000
0003F000
0007E000
0007C000
000FC000
000F8000
001F8000
001F0000
003E0000
007E0000
007C0000
00FC0000
00F80000
01F80000
03F00000
03E00000
07E00000
07C00000
0FC00000
0F800000
1F000000
3F0000C0
3E0000C0
7E0000C0
7FFFFFC0
FFFFFFC0
ENDCHAR
STARTCHAR 017A
ENCODING 378
SWIDTH 480 0
DWIDTH 24 0
BBX 21 34 2 0
BITMAP
003E00
007C00
007800
00F800
00F000
01E000
03C000
00C000
000000
000000
FFFFF8
FFFFF0
C001E0
C003E0
C007C0
000780
000F80
001F00
003E00
003C00
007C00
00F800
00F000
01F000
03E000
03C000
07C000
0F8000
1F0000
1E0008
3E0008
7C0008
7FFFF8
FFFFF8
ENDCHAR
STARTCHAR 017B
ENCODING 379
SWIDTH 580 0
DWIDTH 29 0
BBX 26 43 1 0
BITMAP
003E0000
003E0000
003E0000
003E0000
003E0000
00000000
00000000
7FFFFFC0
7FFFFF80
60001F80
60001F00
60003F00
00003E00
00007C00
0000FC00
0000F800
0001F800
0001F000
0003F000
0007E000
0007C000
000FC000
000F8000
001F8000
001F0000
003E0000
007E0000
007C0000
00FC0000
00F80000
01F80000
03F00000
03E00000
07E00000
07C00000
0FC00000
0F800000
1F000000
3F0000C0
3E0000C0
7E0000C0
7FFFFFC0
FFFFFFC0
ENDCHAR
STARTCHAR 017C
ENCODING 380
SWIDTH 480 0
DWIDTH 24 0
BBX 21 32 1 0
BITMAP
01F000
01F000
01F000
01F000
01F000
000000
000000
000000
FFFFF8
FFFFF0
C001E0
C003E0
C007C0
000780
000F80
001F00
003E00
003C00
007C00
00F800
00F000
01F000
03E000
03C000
07C000
0F8000
1F0000
1E0008
3E0008
7C0008
7FFFF8
FFFFF8
ENDCHAR
STARTCHAR 017D
ENCODING 381
SWIDTH 520 0
DWIDTH 26 0
BBX 26 45 1 1
BITMAP
00E03000
00706000
0038C000
001DC000
000F8000
000F0000
00000000
00000000
00000000
7FFFFFC0
7FFFFF80
60001F80
60001F00
60003F00
00003E00
00007C00
0000FC00
0000F800
0001F800
0001F000
0003F000
0007E000
0007C000
000FC000
000F8000
001F8000
001F0000
003E0000
007E0000
007C0000
00FC0000
00F80000
01F80000
03F00000
03E00000
07E00000
07C00000
0FC00000
0F800000
1F000000
3F0000C0
3E0000C0
7E0000C0
7FFFFFC0
FFFFFFC0
ENDCHAR
STARTCHAR 017E
ENCODING 382
SWIDTH 440 0
DWIDTH 22 0
BBX 21 33 2 1
BITMAP
1C0600
0E0C00
071800
03B800
01F000
01E000
000000
000000
000000
FFFFF8
FFFFF0
C001E0
C003E0
C007C0
000780
000F80
001F00
003E00
003C00
007C00
00F800
00F000
01F000
03E000
03C000
07C000
0F8000
1F0000
1E0008
3E0008
7C0008
7FFFF8
FFFFF8
ENDCHAR
STARTCHAR 0192
ENCODING 402
SWIDTH 480 0
DWIDTH 24 0
BBX 21 43 2 -7
BITMAP
000FF0
001FF8
003E00
003E00
007C00
007C00
007C00
007C00
00FC00
00F800
00F800
00F800
07FF00
07FF00
01F800
01F800
01F000
01F000
01F000
01F000
03F000
03E000
03E000
03E000
03E000
03E000
03E000
07C000
07C000
07C000
07C000
07C000
07C000
0F8000
0F8000
0F8000
0F8000
1F0000
1F0000
3E0000
3E0000
FC0000
F00000
ENDCHAR
STARTCHAR 01CD
ENCODING 461
SWIDTH 620 0
DWIDTH 31 0
BBX 29 45 1 0
BITMAP
00E03000
00706000
0038C000
001DC000
000F8000
000F0000
00000000
00000000
00000000
00060000
000F0000
000F0000
000F0000
000F8000
001F8000
001F8000
001FC000
003FC000
0037C000
0037E000
0077E000
0063E000
0063F000
00E3F000
00C1F000
00C1F800
01C1F800
0180F800
0180FC00
0180FC00
03807C00
03FFFC00
03FFFE00
07007E00
06003E00
06003F00
0E003F00
0C001F00
0C001F80
1C001F80
18000F80
18000FC0
38000FC0
FE001FF8
FE001FF8
ENDCHAR
STARTCHAR 01CE
ENCODING 462
SWIDTH 520 0
DWIDTH 26 0
BBX 23 34 1 -1
BITMAP
070180
038300
01C600
00EE00
007C00
007800
000000
000000
000000
03FE00
1FFF80
3C0FC0
3807E0
3003E0
3001F0
2001F0
0001F0
0001F0
0001F0
0003F0
001DF0
03E1F0
1F01F0
3C01F0
7C01F0
F801F0
F801F0
F803F0
F803F0
F807F0
FC0DF0
7E39F8
3FF0FE
0FC000
ENDCHAR
STARTCHAR 01CF
ENCODING 463
SWIDTH 300 0
DWIDTH 15 0
BBX 12 45 1 0
BITMAP
E030
7060
38C0
1DC0
0F80
0F00
0000
0000
0000
FFE0
FFE0
1F00
1F00
1F00
1F00
1F00
1F00
1F00
1F00
1F00
1F00
1F00
1F00
1F00
1F00
1F00
1F00
1F00
1F00
1F00
1F00
1F00
1F00
1F00
1F00
1F00
1F00
1F00
1F00
1F00
1F00
1F00
1F00
FFE0
FFE0
ENDCHAR
STARTCHAR 01D0
ENCODING 464
SWIDTH 260 0
DWIDTH 13 0
BBX 12 33 1 0
BITMAP
E030
7060
38C0
1DC0
0F80
0F00
0000
0000
0000
FF00
1F00
1F00
1F00
1F00
1F00
1F00
1F00
1F00
1F00
1F00
1F00
1F00
1F00
1F00
1F00
1F00
1F00
1F00
1F00
1F00
1F00
FFC0
FFC0
ENDCHAR
STARTCHAR 01D1
ENCODING 465
SWIDTH 600 0
DWIDTH 30 0
BBX 27 46 2 -1
BITMAP
0380C000
01C18000
00E30000
00770000
003E0000
003C0000
00000000
00000000
00000000
007F8000
01FFF000
07E0FC00
0F807E00
1F003F00
1F001F00
3E000F80
7E000F80
7C000FC0
7C0007C0
FC0007C0
FC0007E0
FC0007E0
FC0007E0
F80007E0
F80003E0
F80003E0
F80003E0
F80003E0
F80003E0
F80003E0
F80003E0
F80007E0
F80007E0
FC0007E0
FC0007E0
FC0007C0
7C0007C0
7C000FC0
7E000F80
3E000F80
1F001F00
1F003F00
0F807E00
07E0FC00
01FFF000
007FC000
ENDCHAR
STARTCHAR 01D2
ENCODING 466
SWIDTH 500 0
DWIDTH 25 0
BBX 22 34 2 -1
BITMAP
070180
038300
01C600
00EE00
007C00
007800
000000
000000
000000
01FE00
07FF80
1F87E0
3F03F0
3E01F0
7C00F8
7C00F8
7C00F8
F8007C
F8007C
F8007C
F8007C
F8007C
F8007C
F8007C
F8007C
F8007C
7C00F8
7C00F8
7C00F8
3E01F0
3F03F0
1F87E0
0FFFC0
01FE00
ENDCHAR
STARTCHAR 01D3
ENCODING 467
SWIDTH 700 0
DWIDTH 35 0
BBX 34 46 1 -1
BITMAP
00380C0000
001C180000
000E300000
0007700000
0003E00000
0003C00000
0000000000
0000000000
0000000000
FFC001FFC0
FFC001FFC0
1F00003E00
1F00003E00
1F00003E00
1F00003E00
1F00003E00
1F00003E00
1F00003E00
1F00003E00
1F00003E00
1F00003E00
1F00003E00
1F00003E00
1F00003E00
1F00003E00
1F00003E00
1F00003E00
1F00003E00
1F00003E00
1F00003E00
1F00003E00
1F00003E00
1F00003E00
1F00003E00
1F80003E00
0F80007C00
0F80007C00
0F80007C00
07C0007800
07C000F800
03E000F800
03E001F000
01F003E000
00FC0FC000
003FFF8000
0007FC0000
ENDCHAR
STARTCHAR 01D4
ENCODING 468
SWIDTH 580 0
DWIDTH 29 0
BBX 27 34 1 -1
BITMAP
01C06000
00E0C000
00718000
003B8000
001F0000
001E0000
00000000
00000000
00000000
FF00FF00
FF00FF00
1F001F00
1F001F00
1F001F00
1F001F00
1F001F00
1F001F00
1F001F00
1F001F00
1F001F00
1F001F00
1F001F00
1F001F00
1F001F00
1F001F00
1F001F00
1F001F00
1F001F00
0F801F00
0F803F00
07C07F00
03E0FF00
01FFDFE0
007F0000
ENDCHAR
STARTCHAR 01D5
ENCODING 469
SWIDTH 700 0
DWIDTH 35 0
BBX 34 48 1 -1
BITMAP
007FFF8000
007FFF8000
0000000000
007C1F0000
007C1F0000
007C1F0000
007C1F0000
007C1F0000
0000000000
0000000000
0000000000
FFC001FFC0
FFC001FFC0
1F00003E00
1F00003E00
1F00003E00
1F00003E00
1F00003E00
1F00003E00
1F00003E00
1F00003E00
1F00003E00
1F00003E00
1F00003E00
1F00003E00
1F00003E00
1F00003E00
1F00003E00
1F00003E00
1F00003E00
1F00003E00
1F00003E00
1F00003E00
1F00003E00
1F00003E00
1F00003E00
1F80003E00
0F80007C00
0F80007C00
0F80007C00
07C0007800
07C000F800
03E000F800
03E001F000
01F003E000
00FC0FC000
003FFF8000
0007FC0000
ENDCHAR
STARTCHAR 01D6
ENCODING 470
SWIDTH 560 0
DWIDTH 28 0
BBX 27 37 1 -1
BITMAP
07FFF800
07FFF800
00000000
00000000
07C1F000
07C1F000
07C1F000
07C1F000
07C1F000
00000000
00000000
00000000
FF00FF00
FF00FF00
1F001F00
1F001F00
1F001F00
1F001F00
1F001F00
1F001F00
1F001F00
1F001F00
1F001F00
1F001F00
1F001F00
1F001F00
1F001F00
1F001F00
1F001F00
1F001F00
1F001F00
0F801F00
0F803F00
07C07F00
03E0FF00
01FFDFE0
007F0000
ENDCHAR
STARTCHAR 01D7
ENCODING 471
SWIDTH 700 0
DWIDTH 35 0
BBX 34 53 1 -1
BITMAP
00003E0000
00007C0000
0000780000
0000F80000
0000F00000
0001E00000
0003C00000
0000C00000
003E0F8000
003E0F8000
003E0F8000
003E0F8000
003E0F8000
0000000000
0000000000
0000000000
FFC001FFC0
FFC001FFC0
1F00003E00
1F00003E00
1F00003E00
1F00003E00
1F00003E00
1F00003E00
1F00003E00
1F00003E00
1F00003E00
1F00003E00
1F00003E00
1F00003E00
1F00003E00
1F00003E00
1F00003E00
1F00003E00
1F00003E00
1F00003E00
1F00003E00
1F00003E00
1F00003E00
1F00003E00
1F00003E00
1F80003E00
0F80007C00
0F80007C00
0F80007C00
07C0007800
07C000F800
03E000F800
03E001F000
01F003E000
00FC0FC000
003FFF8000
0007FC0000
ENDCHAR
STARTCHAR 01D8
ENCODING 472
SWIDTH 560 0
DWIDTH 28 0
BBX 27 42 1 -1
BITMAP
0007C000
000F8000
000F0000
001F0000
001E0000
003C0000
00780000
00180000
00000000
07C1F000
07C1F000
07C1F000
07C1F000
07C1F000
00000000
00000000
00000000
FF00FF00
FF00FF00
1F001F00
1F001F00
1F001F00
1F001F00
1F001F00
1F001F00
1F001F00
1F001F00
1F001F00
1F001F00
1F001F00
1F001F00
1F001F00
1F001F00
1F001F00
1F001F00
1F001F00
0F801F00
0F803F00
07C07F00
03E0FF00
01FFDFE0
007F0000
ENDCHAR
STARTCHAR 01D9
ENCODING 473
SWIDTH 700 0
DWIDTH 35 0
BBX 34 51 1 -1
BITMAP
00380C0000
001C180000
000E300000
0007700000
0003E00000
0003C00000
0000000000
007C1F0000
007C1F0000
007C1F0000
007C1F0000
007C1F0000
0000000000
0000000000
FFC001FFC0
FFC001FFC0
1F00003E00
1F00003E00
1F00003E00
1F00003E00
1F00003E00
1F00003E00
1F00003E00
1F00003E00
1F00003E00
1F00003E00
1F00003E00
1F00003E00
1F00003E00
1F00003E00
1F00003E00
1F00003E00
1F00003E00
1F00003E00
1F00003E00
1F00003E00
1F00003E00
1F00003E00
1F00003E00
1F80003E00
0F80007C00
0F80007C00
0F80007C00
07C0007800
07C000F800
03E000F800
03E001F000
01F003E000
00FC0FC000
003FFF8000
0007FC0000
ENDCHAR
STARTCHAR 01DA
ENCODING 474
SWIDTH 560 0
DWIDTH 28 0
BBX 27 41 0 -1
BITMAP
01C06000
00E0C000
00718000
003B8000
001F0000
001E0000
00000000
00000000
03E0F800
03E0F800
03E0F800
03E0F800
03E0F800
00000000
00000000
00000000
FF00FF00
FF00FF00
1F001F00
1F001F00
1F001F00
1F001F00
1F001F00
1F001F00
1F001F00
1F001F00
1F001F00
1F001F00
1F001F00
1F001F00
1F001F00
1F001F00
1F001F00
1F001F00
1F001F00
0F801F00
0F803F00
07C07F00
03E0FF00
01FFDFE0
007F0000
ENDCHAR
STARTCHAR 01DB
ENCODING 475
SWIDTH 700 0
DWIDTH 35 0
BBX 34 54 1 -1
BITMAP
007C000000
003E000000
001E000000
001F000000
000F000000
0007800000
0003800000
0003000000
0000000000
00F83E0000
00F83E0000
00F83E0000
00F83E0000
00F83E0000
0000000000
0000000000
0000000000
FFC001FFC0
FFC001FFC0
1F00003E00
1F00003E00
1F00003E00
1F00003E00
1F00003E00
1F00003E00
1F00003E00
1F00003E00
1F00003E00
1F00003E00
1F00003E00
1F00003E00
1F00003E00
1F00003E00
1F00003E00
1F00003E00
1F00003E00
1F00003E00
1F00003E00
1F00003E00
1F00003E00
1F00003E00
1F00003E00
1F80003E00
0F80007C00
0F80007C00
0F80007C00
07C0007800
07C000F800
03E000F800
03E001F000
01F003E000
00FC0FC000
003FFF8000
0007FC0000
ENDCHAR
STARTCHAR 01DC
ENCODING 476
SWIDTH 560 0
DWIDTH 28 0
BBX 27 43 1 -1
BITMAP
01F00000
00F80000
00780000
007C0000
003C0000
001E0000
000E0000
000C0000
00000000
00000000
07C1F000
07C1F000
07C1F000
07C1F000
07C1F000
00000000
00000000
00000000
FF00FF00
FF00FF00
1F001F00
1F001F00
1F001F00
1F001F00
1F001F00
1F001F00
1F001F00
1F001F00
1F001F00
1F001F00
1F001F00
1F001F00
1F001F00
1F001F00
1F001F00
1F001F00
1F001F00
0F801F00
0F803F00
07C07F00
03E0FF00
01FFDFE0
007F0000
ENDCHAR
STARTCHAR 01E2
ENCODING 482
SWIDTH 920 0
DWIDTH 46 0
BBX 45 40 0 0
BITMAP
0000001FFFE0
0000001FFFE0
000000000000
000000000000
000007FFFFF8
000007FFFFF8
000003F80018
000002F80018
000006F80018
00000CF80000
000008F80000
000018F80000
000030F80000
000030F80000
000060F80000
000040F80000
0000C0F80000
000180F80000
000180F80300
000300F80300
000200F80300
000600FFFF00
000C00FFFF00
000C00F80300
001800F80300
003FFFF80300
003FFFF80000
007000F80000
006000F80000
00C000F80000
01C000F80000
018000F80000
030000F80000
030000F80000
060000F80000
0C0000F80018
0C0000F80018
180000F80018
FC0007FFFFF8
FC0007FFFFF8
ENDCHAR
STARTCHAR 01E3
ENCODING 483
SWIDTH 780 0
DWIDTH 39 0
BBX 37 30 1 -1
BITMAP
003FFFC000
003FFFC000
0000000000
0000000000
0000000000
01FE01FC00
1FFFC7FF00
1E07FF07C0
1C03FE03C0
1801FC01E0
1800FC01F0
1000F800F0
0000F800F0
0000F800F8
0000FFFFF8
0003FFFFF8
001CF80000
03E0F80000
1E00F80000
3C00F80000
7800F80000
F800F80000
F800FC0000
F801FC0008
F803FC0018
F8073E0030
FC0E1F0070
7E3C0FE3C0
3FF807FF80
0FC000FE00
ENDCHAR
STARTCHAR 01E6
ENCODING 486
SWIDTH 620 0
DWIDTH 31 0
BBX 29 46 2 -1
BITMAP
01C06000
00E0C000
00718000
003B8000
001F0000
001E0000
00000000
00000000
00000000
007F8000
03FFF000
07E07C00
0F801E00
1F000F00
3F000700
3E000700
7E000300
7C000300
7C000300
7C000300
FC000000
F8000000
F8000000
F8000000
F8000000
F8000000
F8000000
F8000000
F8000000
F800FFF8
F800FFF8
F80007C0
F80007C0
F80007C0
7C0007C0
7C0007C0
7C0007C0
7C0007C0
3E000FC0
3E000F80
1F000F80
1F801F00
0FC03E00
07E07C00
01FFF000
007FC000
ENDCHAR
STARTCHAR 01E7
ENCODING 487
SWIDTH 480 0
DWIDTH 24 0
BBX 24 45 0 -12
BITMAP
0380C0
01C180
00E300
007700
003E00
003C00
000000
000000
000000
003FFF
01FFFF
03E1F0
07C0F8
0F807C
0F807C
1F003C
1F003E
1F003E
1F003E
1F003E
1F003E
1F003C
0F807C
0F807C
07C0F8
03E1F0
01FFC0
003F80
000700
00FC00
03E000
07C000
03F000
00EF80
0780F0
1E003C
3C003E
78001F
F8001F
F8001F
F8001F
FC003E
7E00FE
3FFFF8
07FFC0
ENDCHAR
STARTCHAR 01FC
ENCODING 508
SWIDTH 920 0
DWIDTH 46 0
BBX 45 46 0 0
BITMAP
000000007C00
00000000F800
00000000F000
00000001F000
00000001E000
00000003C000
000000078000
000000018000
000000000000
000000000000
000007FFFFF8
000007FFFFF8
000003F80018
000002F80018
000006F80018
00000CF80000
000008F80000
000018F80000
000030F80000
000030F80000
000060F80000
000040F80000
0000C0F80000
000180F80000
000180F80300
000300F80300
000200F80300
000600FFFF00
000C00FFFF00
000C00F80300
001800F80300
003FFFF80300
003FFFF80000
007000F80000
006000F80000
00C000F80000
01C000F80000
018000F80000
030000F80000
030000F80000
060000F80000
0C0000F80018
0C0000F80018
180000F80018
FC0007FFFFF8
FC0007FFFFF8
ENDCHAR
STARTCHAR 01FD
ENCODING 509
SWIDTH 780 0
DWIDTH 39 0
BBX 37 35 1 -1
BITMAP
00003E0000
00007C0000
0000780000
0000F80000
0000F00000
0001E00000
0003C00000
0000C00000
0000000000
0000000000
01FE01FC00
1FFFC7FF00
1E07FF07C0
1C03FE03C0
1801FC01E0
1800FC01F0
1000F800F0
0000F800F0
0000F800F8
0000FFFFF8
0003FFFFF8
001CF80000
03E0F80000
1E00F80000
3C00F80000
7800F80000
F800F80000
F800FC0000
F801FC0008
F803FC0018
F8073E0030
FC0E1F0070
7E3C0FE3C0
3FF807FF80
0FC000FE00
ENDCHAR
STARTCHAR 01FE
ENCODING 510
SWIDTH 640 0
DWIDTH 32 0
BBX 29 47 1 -1
BITMAP
0001F000
0003E000
0003C000
0007C000
00078000
000F0000
001E0000
00060000
00000000
00000000
003FF818
00FFFC38
03F07F30
07C01FE0
0F800FE0
1F800FC0
1F0007C0
1F0007C0
3E0007E0
3E0007E0
3E000FE0
7E0019E0
7C0031F0
7C0061F0
7C0041F0
7C00C1F0
7C0181F0
7C0301F0
7C0601F0
7C0401F0
7C0801F0
7C1801F0
7C3001F0
7C6001F0
7C4001F0
7C8001F0
3F8003E0
3F0003E0
3E0003E0
3F0003C0
1F0007C0
1F8007C0
3F800F80
67C01F00
C3F07E00
C1FFFC00
003FE000
ENDCHAR
STARTCHAR 01FF
ENCODING 511
SWIDTH 500 0
DWIDTH 25 0
BBX 22 35 2 -1
BITMAP
001F00
003E00
003C00
007C00
007800
00F000
01E000
006000
000000
000000
01FF8C
07FFDC
1F87F8
3E01F0
3E01F0
7C00F8
7C00F8
7801F8
F8037C
F8067C
F8047C
F8087C
F8107C
F8207C
F8407C
F8807C
F9807C
7B0078
7E00F8
7C00F8
3C01F0
3E01F0
3F87E0
47FFC0
01FE00
ENDCHAR
STARTCHAR 0200
ENCODING 512
SWIDTH 600 0
DWIDTH 30 0
BBX 29 46 1 0
BITMAP
0007C000
07C3E000
03E1E000
01E1F000
01F0F000
00F07800
00783800
00383000
00300000
00000000
00060000
000F0000
000F0000
000F0000
000F8000
001F8000
001F8000
001FC000
003FC000
0037C000
0037E000
0077E000
0063E000
0063F000
00E3F000
00C1F000
00C1F800
01C1F800
0180F800
0180FC00
0180FC00
03807C00
03FFFC00
03FFFE00
07007E00
06003E00
06003F00
0E003F00
0C001F00
0C001F80
1C001F80
18000F80
18000FC0
38000FC0
FE001FF8
FE001FF8
ENDCHAR
STARTCHAR 0232
ENCODING 562
SWIDTH 660 0
DWIDTH 33 0
BBX 29 40 1 0
BITMAP
01FFFE00
01FFFE00
00000000
00000000
FFC001F8
FFC001F8
1F0000C0
0F8001C0
0FC00180
07C00300
07E00700
03E00600
03F00E00
01F00C00
00F81800
00F81800
007C3000
007C7000
003E6000
001FE000
001FC000
000F8000
000F8000
000F8000
000F8000
000F8000
000F8000
000F8000
000F8000
000F8000
000F8000
000F8000
000F8000
000F8000
000F8000
000F8000
000F8000
000F8000
007FE000
007FE000
ENDCHAR
STARTCHAR 02C6
ENCODING 710
SWIDTH 380 0
DWIDTH 19 0
BBX 11 7 4 29
BITMAP
0E00
1F00
1F80
3B80
71C0
60E0
C060
ENDCHAR
STARTCHAR 02C7
ENCODING 711
SWIDTH 360 0
DWIDTH 18 0
BBX 12 6 3 29
BITMAP
E030
7060
38C0
1DC0
0F80
0F00
ENDCHAR
STARTCHAR 02C9
ENCODING 713
SWIDTH 400 0
DWIDTH 20 0
BBX 16 2 2 34
BITMAP
FFFF
FFFF
ENDCHAR
STARTCHAR 02D8
ENCODING 728
SWIDTH 420 0
DWIDTH 21 0
BBX 17 5 2 29
BITMAP
F80F80
F80F00
7C3E00
1FFC00
07F000
ENDCHAR
STARTCHAR 02DA
ENCODING 730
SWIDTH 260 0
DWIDTH 13 0
BBX 9 10 2 25
BITMAP
3C00
7F00
6300
C180
C180
C180
C180
6300
7F00
1C00
ENDCHAR
STARTCHAR 02DB
ENCODING 731
SWIDTH 240 0
DWIDTH 12 0
BBX 8 9 2 -8
BITMAP
F8
F8
F8
F8
F8
7C
7C
3F
0F
ENDCHAR
STARTCHAR 02DC
ENCODING 732
SWIDTH 380 0
DWIDTH 19 0
BBX 15 8 2 28
BITMAP
1800
3C02
7F02
7F86
67CC
C1FC
80F8
8070
ENDCHAR
STARTCHAR 02DD
ENCODING 733
SWIDTH 520 0
DWIDTH 26 0
BBX 22 7 2 28
BITMAP
01F8FC
03F1F8
07C3E0
0F0780
1E0F00
783C00
E07000
ENDCHAR
STARTCHAR 037E
ENCODING 894
SWIDTH 180 0
DWIDTH 9 0
BBX 5 29 2 -5
BITMAP
F8
F8
F8
F8
F8
00
00
00
00
00
00
00
00
00
00
00
00
00
00
F8
F8
F8
F8
F8
38
18
30
60
C0
ENDCHAR
STARTCHAR 0386
ENCODING 902
SWIDTH 640 0
DWIDTH 32 0
BBX 29 39 1 0
BITMAP
01F00000
03E00000
03C00000
07C60000
078F0000
0F0F0000
1E0F0000
060F8000
001F8000
001F8000
001FC000
003FC000
0037C000
0037E000
0077E000
0063E000
0063F000
00E3F000
00C1F000
00C1F800
01C1F800
0180F800
0180FC00
0180FC00
03807C00
03FFFC00
03FFFE00
07007E00
06003E00
06003F00
0E003F00
0C001F00
0C001F80
1C001F80
18000F80
18000FC0
38000FC0
FE001FF8
FE001FF8
ENDCHAR
STARTCHAR 0388
ENCODING 904
SWIDTH 660 0
DWIDTH 33 0
BBX 30 41 1 0
BITMAP
0F800000
1F000000
1E000000
3E000000
3C000000
7BFFFFFC
F3FFFFFC
307C000C
007C000C
007C0000
007C0000
007C0000
007C0000
007C0000
007C0000
007C0000
007C0000
007C0000
007C0000
007C0180
007C0180
007C0180
007FFF80
007FFF80
007C0180
007C0180
007C0180
007C0000
007C0000
007C0000
007C0000
007C0000
007C0000
007C0000
007C0000
007C0000
007C000C
007C000C
007C000C
03FFFFFC
03FFFFFC
ENDCHAR
STARTCHAR 0389
ENCODING 905
SWIDTH 740 0
DWIDTH 37 0
BBX 39 41 -2 0
BITMAP
0F80000000
1F00000000
1E00000000
3E00000000
3C00000000
78FFE007FE
F0FFE007FE
301F0001F0
001F0001F0
001F0001F0
001F0001F0
001F0001F0
001F0001F0
001F0001F0
001F0001F0
001F0001F0
001F0001F0
001F0001F0
001F0001F0
001F0001F0
001F0001F0
001F0001F0
001FFFFFF0
001FFFFFF0
001F0001F0
001F0001F0
001F0001F0
001F0001F0
001F0001F0
001F0001F0
001F0001F0
001F0001F0
001F0001F0
001F0001F0
001F0001F0
001F0001F0
001F0001F0
001F0001F0
001F0001F0
00FFE007FE
00FFE007FE
ENDCHAR
STARTCHAR 038A
ENCODING 906
SWIDTH 340 0
DWIDTH 17 0
BBX 17 42 -2 0
BITMAP
0F8000
1F0000
1E0000
3E0000
3C0000
780000
F3FF80
33FF80
007C00
007C00
007C00
007C00
007C00
007C00
007C00
007C00
007C00
007C00
007C00
007C00
007C00
007C00
007C00
007C00
007C00
007C00
007C00
007C00
007C00
007C00
007C00
007C00
007C00
007C00
007C00
007C00
007C00
007C00
007C00
007C00
03FF80
03FF80
ENDCHAR
STARTCHAR 038C
ENCODING 908
SWIDTH 680 0
DWIDTH 34 0
BBX 32 40 0 -1
BITMAP
0F800000
1F000000
1E000000
3E03FC00
3C0FFF80
783F07E0
F07C03F0
30F801F8
00F800F8
01F0007C
03F0007C
03E0007E
03E0003E
07E0003E
07E0003F
07E0003F
07E0003F
07C0003F
07C0001F
07C0001F
07C0001F
07C0001F
07C0001F
07C0001F
07C0001F
07C0003F
07C0003F
07E0003F
07E0003F
07E0003E
03E0003E
03E0007E
03F0007C
01F0007C
00F800F8
00F801F8
007C03F0
003F07E0
000FFF80
0003FE00
ENDCHAR
STARTCHAR 038E
ENCODING 910
SWIDTH 660 0
DWIDTH 33 0
BBX 37 42 -6 0
BITMAP
0F80000000
1F00000000
1E00000000
3E00000000
3C00000000
7800000000
F0FFC001F8
30FFC001F8
001F0000C0
000F8001C0
000FC00180
0007C00300
0007E00700
0003E00600
0003F00E00
0001F00C00
0000F81800
0000F81800
00007C3000
00007C7000
00003E6000
00001FE000
00001FC000
00000F8000
00000F8000
00000F8000
00000F8000
00000F8000
00000F8000
00000F8000
00000F8000
00000F8000
00000F8000
00000F8000
00000F8000
00000F8000
00000F8000
00000F8000
00000F8000
00000F8000
00007FE000
00007FE000
ENDCHAR
STARTCHAR 038F
ENCODING 911
SWIDTH 800 0
DWIDTH 40 0
BBX 36 40 1 0
BITMAP
0F80000000
1F00000000
1E00000000
3E003C0000
3C07FFE000
781FC3F800
F07E007E00
30FC003F00
01F8001F80
01F0000F80
03E00007C0
03E00007C0
07C00003E0
07C00003E0
07C00003E0
0F800001F0
0F800001F0
0F800001F0
0F800001F0
0F800001F0
0F800001F0
0F800001F0
0F800001F0
0F800001F0
07C00001E0
07C00003E0
03C00003C0
03E00007C0
01F0000780
00F0000F00
0078001E00
003C003C00
000E007800
0203006020
0203006020
0203006020
03FF007FE0
03FF007FE0
03FF007FE0
03FF007FE0
ENDCHAR
STARTCHAR 0391
ENCODING 913
SWIDTH 640 0
DWIDTH 32 0
BBX 29 36 1 0
BITMAP
00060000
000F0000
000F0000
000F0000
000F8000
001F8000
001F8000
001FC000
003FC000
0037C000
0037E000
0077E000
0063E000
0063F000
00E3F000
00C1F000
00C1F800
01C1F800
0180F800
0180FC00
0180FC00
03807C00
03FFFC00
03FFFE00
07007E00
06003E00
06003F00
0E003F00
0C001F00
0C001F80
1C001F80
18000F80
18000FC0
38000FC0
FE001FF8
FE001FF8
ENDCHAR
STARTCHAR 0392
ENCODING 914
SWIDTH 560 0
DWIDTH 28 0
BBX 26 36 1 0
BITMAP
FFFFC000
FFFFF000
1F01F800
1F007C00
1F003E00
1F003E00
1F001F00
1F001F00
1F001F00
1F001F00
1F001F00
1F001F00
1F003E00
1F003E00
1F007C00
1F01F800
1FFFF000
1FFFFC00
1F007E00
1F003F00
1F001F80
1F000F80
1F000F80
1F0007C0
1F0007C0
1F0007C0
1F0007C0
1F0007C0
1F0007C0
1F000F80
1F000F80
1F001F00
1F003F00
1F007E00
FFFFF800
FFFFE000
ENDCHAR
STARTCHAR 0393
ENCODING 915
SWIDTH 540 0
DWIDTH 27 0
BBX 25 36 1 0
BITMAP
FFFFFF80
FFFFFF80
1F000080
1F000080
1F000080
1F000000
1F000000
1F000000
1F000000
1F000000
1F000000
1F000000
1F000000
1F000000
1F000000
1F000000
1F000000
1F000000
1F000000
1F000000
1F000000
1F000000
1F000000
1F000000
1F000000
1F000000
1F000000
1F000000
1F000000
1F000000
1F000000
1F000000
1F000000
1F000000
FFE00000
FFE00000
ENDCHAR
STARTCHAR 0394
ENCODING 916
SWIDTH 540 0
DWIDTH 27 0
BBX 25 36 1 0
BITMAP
000C0000
000C0000
001C0000
001E0000
001E0000
003E0000
003F0000
003F0000
006F0000
004F8000
004F8000
00CF8000
00878000
0087C000
0187C000
0103C000
0103E000
0303E000
0201E000
0201F000
0601F000
0401F000
0400F800
0C00F800
0800F800
08007800
18007C00
10007C00
10003C00
30003E00
20003E00
20001E00
60001F00
40001F00
7FFFFF00
FFFFFF80
ENDCHAR
STARTCHAR 0395
ENCODING 917
SWIDTH 520 0
DWIDTH 26 0
BBX 24 36 1 0
BITMAP
FFFFFF
FFFFFF
1F0003
1F0003
1F0000
1F0000
1F0000
1F0000
1F0000
1F0000
1F0000
1F0000
1F0000
1F0000
1F0060
1F0060
1F0060
1FFFE0
1FFFE0
1F0060
1F0060
1F0060
1F0000
1F0000
1F0000
1F0000
1F0000
1F0000
1F0000
1F0000
1F0000
1F0003
1F0003
1F0003
FFFFFF
FFFFFF
ENDCHAR
STARTCHAR 0396
ENCODING 918
SWIDTH 560 0
DWIDTH 28 0
BBX 26 36 1 0
BITMAP
7FFFFFC0
7FFFFF80
60001F80
60001F00
60003F00
00003E00
00007C00
0000FC00
0000F800
0001F800
0001F000
0003F000
0007E000
0007C000
000FC000
000F8000
001F8000
001F0000
003E0000
007E0000
007C0000
00FC0000
00F80000
01F80000
03F00000
03E00000
07E00000
07C00000
0FC00000
0F800000
1F000000
3F0000C0
3E0000C0
7E0000C0
7FFFFFC0
FFFFFFC0
ENDCHAR
STARTCHAR 0397
ENCODING 919
SWIDTH 640 0
DWIDTH 32 0
BBX 31 36 1 0
BITMAP
FFE007FE
FFE007FE
1F0001F0
1F0001F0
1F0001F0
1F0001F0
1F0001F0
1F0001F0
1F0001F0
1F0001F0
1F0001F0
1F0001F0
1F0001F0
1F0001F0
1F0001F0
1F0001F0
1F0001F0
1FFFFFF0
1FFFFFF0
1F0001F0
1F0001F0
1F0001F0
1F0001F0
1F0001F0
1F0001F0
1F0001F0
1F0001F0
1F0001F0
1F0001F0
1F0001F0
1F0001F0
1F0001F0
1F0001F0
1F0001F0
FFE007FE
FFE007FE
ENDCHAR
STARTCHAR 0398
ENCODING 920
SWIDTH 620 0
DWIDTH 31 0
BBX 27 37 2 -1
BITMAP
007FC000
01FFF800
07E0FC00
0F803E00
1F001F00
3F001F80
3E000F80
3E000F80
7C0007C0
7C0007C0
7C0007C0
F80007C0
F80003E0
F80003E0
F80003E0
F80003E0
F80003E0
FFFFFFE0
FFFFFFE0
F80003E0
F80003E0
F80003E0
F80003E0
F80003E0
F80003E0
FC0007E0
7C0007C0
7C0007C0
7C0007C0
3E000F80
3E000F80
3F001F80
1F001F00
0F803E00
07E0FC00
03FFF800
007FC000
ENDCHAR
STARTCHAR 0399
ENCODING 921
SWIDTH 280 0
DWIDTH 14 0
BBX 11 36 1 0
BITMAP
FFE0
FFE0
1F00
1F00
1F00
1F00
1F00
1F00
1F00
1F00
1F00
1F00
1F00
1F00
1F00
1F00
1F00
1F00
1F00
1F00
1F00
1F00
1F00
1F00
1F00
1F00
1F00
1F00
1F00
1F00
1F00
1F00
1F00
1F00
FFE0
FFE0
ENDCHAR
STARTCHAR 039A
ENCODING 922
SWIDTH 660 0
DWIDTH 33 0
BBX 30 36 1 0
BITMAP
FFE003F0
FFE003F0
1F000180
1F000700
1F000E00
1F001C00
1F003000
1F006000
1F00C000
1F038000
1F070000
1F0E0000
1F1C0000
1F300000
1F600000
1FE00000
1FF00000
1FF80000
1FFC0000
1FFE0000
1F7F0000
1F3F8000
1F1F8000
1F1FC000
1F0FE000
1F07F000
1F03F800
1F01FC00
1F00FE00
1F007F00
1F003F80
1F001FC0
1F000FC0
1F000FE0
FFE00FFC
FFE00FFC
ENDCHAR
STARTCHAR 039B
ENCODING 923
SWIDTH 620 0
DWIDTH 31 0
BBX 29 36 1 0
BITMAP
00030000
00070000
00070000
00078000
000F8000
000F8000
000FC000
001FC000
001FC000
0013C000
0033E000
0033E000
0021E000
0061F000
0061F000
0040F000
00C0F800
00C0F800
0080F800
01807C00
01807C00
01007C00
03003E00
03003E00
02003E00
06001E00
06001F00
04001F00
0C000F00
0C000F80
08000F80
18000F80
180007C0
100007C0
FC001FF8
FC001FF8
ENDCHAR
STARTCHAR 039C
ENCODING 924
SWIDTH 760 0
DWIDTH 38 0
BBX 35 36 1 0
BITMAP
FF80003FE0
FF80003FE0
1F80003F00
1FC0007F00
1FC0007F00
1FC0007F00
1FE000FF00
1FE000FF00
1BE000FF00
1BF001DF00
1BF001DF00
19F001DF00
19F8039F00
19F8039F00
18F8039F00
18FC071F00
18FC071F00
187C071F00
187E0E1F00
187E0E1F00
183E0E1F00
183F1C1F00
183F1C1F00
181F1C1F00
181FB81F00
181FB81F00
180FB01F00
180FF01F00
180FF01F00
1807E01F00
1807E01F00
1807E01F00
1803C01F00
1803C01F00
FF03C07FE0
FF01807FE0
ENDCHAR
STARTCHAR 039D
ENCODING 925
SWIDTH 620 0
DWIDTH 31 0
BBX 29 36 1 0
BITMAP
FF8007F8
FF8007F8
1FC000C0
1FC000C0
1FE000C0
1BF000C0
1BF000C0
19F800C0
19F800C0
18FC00C0
187E00C0
187E00C0
183F00C0
183F00C0
181F80C0
180FC0C0
180FC0C0
1807E0C0
1807E0C0
1803F0C0
1801F8C0
1801F8C0
1800FCC0
1800FEC0
18007EC0
18003FC0
18003FC0
18001FC0
18001FC0
18000FC0
180007C0
180007C0
180003C0
180003C0
FE0001C0
FE0000C0
ENDCHAR
STARTCHAR 039E
ENCODING 926
SWIDTH 420 0
DWIDTH 21 0
BBX 20 36 0 0
BITMAP
FFFFF0
FFFFF0
000000
000000
000000
000000
000000
000000
000000
000000
000000
000000
000000
000000
000000
000000
000000
1FFFC0
1FFFC0
000000
000000
000000
000000
000000
000000
000000
000000
000000
000000
000000
000000
000000
000000
000000
FFFFF0
FFFFF0
ENDCHAR
STARTCHAR 039F
ENCODING 927
SWIDTH 600 0
DWIDTH 30 0
BBX 27 37 2 -1
BITMAP
007F8000
01FFF000
07E0FC00
0F807E00
1F003F00
1F001F00
3E000F80
7E000F80
7C000FC0
7C0007C0
FC0007C0
FC0007E0
FC0007E0
FC0007E0
F80007E0
F80003E0
F80003E0
F80003E0
F80003E0
F80003E0
F80003E0
F80003E0
F80007E0
F80007E0
FC0007E0
FC0007E0
FC0007C0
7C0007C0
7C000FC0
7E000F80
3E000F80
1F001F00
1F003F00
0F807E00
07E0FC00
01FFF000
007FC000
ENDCHAR
STARTCHAR 03A0
ENCODING 928
SWIDTH 600 0
DWIDTH 30 0
BBX 26 36 2 0
BITMAP
FFFFFFC0
FFFFFFC0
1F003E00
1F003E00
1F003E00
1F003E00
1F003E00
1F003E00
1F003E00
1F003E00
1F003E00
1F003E00
1F003E00
1F003E00
1F003E00
1F003E00
1F003E00
1F003E00
1F003E00
1F003E00
1F003E00
1F003E00
1F003E00
1F003E00
1F003E00
1F003E00
1F003E00
1F003E00
1F003E00
1F003E00
1F003E00
1F003E00
1F003E00
1F003E00
FFE1FFC0
FFE1FFC0
ENDCHAR
STARTCHAR 03A1
ENCODING 929
SWIDTH 580 0
DWIDTH 29 0
BBX 27 36 1 0
BITMAP
FFFFE000
FFFFFC00
1F007E00
1F001F80
1F000F80
1F0007C0
1F0007C0
1F0003E0
1F0003E0
1F0003E0
1F0003E0
1F0003E0
1F0007C0
1F0007C0
1F000F80
1F001F80
1F007E00
1FFFFC00
1FFFE000
1F000000
1F000000
1F000000
1F000000
1F000000
1F000000
1F000000
1F000000
1F000000
1F000000
1F000000
1F000000
1F000000
1F000000
1F000000
FFE00000
FFE00000
ENDCHAR
STARTCHAR 03A3
ENCODING 931
SWIDTH 540 0
DWIDTH 27 0
BBX 22 36 3 0
BITMAP
FFFFFC
7FFFFC
78000C
3C000C
1E000C
1E0000
0F0000
0F8000
078000
03C000
03E000
01E000
00F000
00F800
007800
003C00
003E00
001E00
001C00
000C00
001800
003000
002000
004000
00C000
018000
010000
020000
06000C
0C000C
08000C
1FFFFC
3FFFFC
7FFFFC
7FFFFC
FFFFFC
ENDCHAR
STARTCHAR 03A4
ENCODING 932
SWIDTH 560 0
DWIDTH 28 0
BBX 25 36 1 0
BITMAP
FFFFFF80
FFFFFF80
C03E0380
C03E0380
C03E0380
003E0000
003E0000
003E0000
003E0000
003E0000
003E0000
003E0000
003E0000
003E0000
003E0000
003E0000
003E0000
003E0000
003E0000
003E0000
003E0000
003E0000
003E0000
003E0000
003E0000
003E0000
003E0000
003E0000
003E0000
003E0000
003E0000
003E0000
003E0000
003E0000
01FF8000
01FF8000
ENDCHAR
STARTCHAR 03A5
ENCODING 933
SWIDTH 620 0
DWIDTH 31 0
BBX 29 36 1 0
BITMAP
FFC001F8
FFC001F8
1F0000C0
0F8001C0
0FC00180
07C00300
07E00700
03E00600
03F00E00
01F00C00
00F81800
00F81800
007C3000
007C7000
003E6000
001FE000
001FC000
000F8000
000F8000
000F8000
000F8000
000F8000
000F8000
000F8000
000F8000
000F8000
000F8000
000F8000
000F8000
000F8000
000F8000
000F8000
000F8000
000F8000
007FE000
007FE000
ENDCHAR
STARTCHAR 03A6
ENCODING 934
SWIDTH 660 0
DWIDTH 33 0
BBX 31 36 1 0
BITMAP
001FF800
001FF800
0007C000
0007C000
0007C000
0007C000
007FFC00
01E7CF80
07C7C7C0
0F87C3E0
1F07C1F0
3E07C0F8
7C07C07C
7C07C07C
7C07C07C
F807C03E
F807C03E
F807C03E
F807C03E
F807C03E
F807C03E
7C07C07C
7C07C07C
7C07C0FC
3E07C0F8
1F07C1F0
0F87C3E0
07C7C7C0
03E7DF80
007FFE00
0007C000
0007C000
0007C000
0007C000
001FF800
001FF800
ENDCHAR
STARTCHAR 03A7
ENCODING 935
SWIDTH 640 0
DWIDTH 32 0
BBX 29 36 2 0
BITMAP
FFC01FC0
FFC01FC0
1F000600
1F800E00
0F800C00
0FC01800
07C03800
07E03000
03F07000
01F06000
01F8E000
00F9C000
00FD8000
007F8000
003F0000
003F0000
001F0000
001F8000
001F8000
001FC000
003FE000
0033E000
0063F000
00E1F000
00C1F800
01C0FC00
01807C00
03007E00
03003E00
06003F00
0E001F00
0C000F80
1C000FC0
180007C0
FC001FF8
FC001FF8
ENDCHAR
STARTCHAR 03A8
ENCODING 936
SWIDTH 780 0
DWIDTH 39 0
BBX 36 36 1 0
BITMAP
FF07FF07F0
FF07FF07F0
1F00F807C0
1F00F807C0
1F00F807C0
1F00F807C0
1F00F807C0
1F00F807C0
1F00F807C0
1F00F807C0
1F00F807C0
1F00F807C0
1F00F807C0
1F00F807C0
0F80F80F80
0F80F80F80
0FC0F81F80
07C0F81F00
03E0F83E00
01F0F87C00
00F8F8F800
003EFBE000
000FFF8000
0000F80000
0000F80000
0000F80000
0000F80000
0000F80000
0000F80000
0000F80000
0000F80000
0000F80000
0000F80000
0000F80000
0007FF0000
0007FF0000
ENDCHAR
STARTCHAR 03A9
ENCODING 937
SWIDTH 700 0
DWIDTH 35 0
BBX 32 37 1 0
BITMAP
0003C000
007FFE00
01FC3F80
07E007E0
0FC003F0
1F8001F8
1F0000F8
3E00007C
3E00007C
7C00003E
7C00003E
7C00003E
F800001F
F800001F
F800001F
F800001F
F800001F
F800001F
F800001F
F800001F
F800001F
7C00001E
7C00003E
3C00003C
3E00007C
1F000078
0F0000F0
078001E0
03C003C0
00E00780
20300602
20300602
20300602
3FF007FE
3FF007FE
3FF007FE
3FF007FE
ENDCHAR
STARTCHAR 03AA
ENCODING 938
SWIDTH 300 0
DWIDTH 15 0
BBX 15 44 0 0
BITMAP
F83E
F83E
F83E
F83E
F83E
0000
0000
0000
7FF0
7FF0
0F80
0F80
0F80
0F80
0F80
0F80
0F80
0F80
0F80
0F80
0F80
0F80
0F80
0F80
0F80
0F80
0F80
0F80
0F80
0F80
0F80
0F80
0F80
0F80
0F80
0F80
0F80
0F80
0F80
0F80
0F80
0F80
7FF0
7FF0
ENDCHAR
STARTCHAR 03AB
ENCODING 939
SWIDTH 640 0
DWIDTH 32 0
BBX 29 44 1 0
BITMAP
007C1F00
007C1F00
007C1F00
007C1F00
007C1F00
00000000
00000000
00000000
FFC001F8
FFC001F8
1F0000C0
0F8001C0
0FC00180
07C00300
07E00700
03E00600
03F00E00
01F00C00
00F81800
00F81800
007C3000
007C7000
003E6000
001FE000
001FC000
000F8000
000F8000
000F8000
000F8000
000F8000
000F8000
000F8000
000F8000
000F8000
000F8000
000F8000
000F8000
000F8000
000F8000
000F8000
000F8000
000F8000
007FE000
007FE000
ENDCHAR
STARTCHAR 03AC
ENCODING 940
SWIDTH 460 0
DWIDTH 23 0
BBX 24 36 2 -1
BITMAP
000F80
001F00
001E00
003E00
003C00
007800
00F000
003000
000000
000000
000000
01FE1E
07FF9E
1F87FE
3F03FE
3E01FE
7C00FE
7C00FE
7C00FE
F8007E
F8007E
F8007E
F8003E
F8003E
F8003E
F8007E
F8007E
F8007E
7C007E
7C00FE
7C00FE
3E01FE
3F03FE
1F87FF
07FF9F
01FE00
ENDCHAR
STARTCHAR 03AD
ENCODING 941
SWIDTH 460 0
DWIDTH 23 0
BBX 20 36 2 -1
BITMAP
003E00
007C00
007800
00F800
00F000
01E000
03C000
00C000
000000
000000
000000
03FE00
1FFF80
3F0FC0
7E03E0
FC01F0
F801F0
F80000
F80000
F80000
7C0000
3E0000
1F8000
07E000
1F8000
3E0000
7C0000
F80000
F80000
F80000
F800C0
FC01F0
7C03E0
3F07E0
1FFF80
03FE00
ENDCHAR
STARTCHAR 03AE
ENCODING 942
SWIDTH 460 0
DWIDTH 23 0
BBX 21 48 1 -12
BITMAP
000F80
001F00
001E00
003E00
003C00
007800
00F000
003000
000000
000000
000000
000000
F9FC00
FFCF80
FF87C0
FF03E0
FE01E0
FC01F0
FC01F0
FC00F0
F800F8
F800F8
F800F8
F800F8
F800F8
F800F8
F800F8
F800F8
F800F8
F800F8
F800F8
F800F8
F800F8
F800F8
F800F8
F800F8
0000F8
0000F8
0000F8
0000F8
0000F8
0000F8
0000F8
0000F8
0000F8
0000F8
0000F8
0000F8
ENDCHAR
STARTCHAR 03B1
ENCODING 945
SWIDTH 560 0
DWIDTH 28 0
BBX 24 25 2 -1
BITMAP
01FE1E
07FF9E
1F87FE
3F03FE
3E01FE
7C00FE
7C00FE
7C00FE
F8007E
F8007E
F8007E
F8003E
F8003E
F8003E
F8007E
F8007E
F8007E
7C007E
7C00FE
7C00FE
3E01FE
3F03FE
1F87FF
07FF9F
01FE00
ENDCHAR
STARTCHAR 03B2
ENCODING 946
SWIDTH 520 0
DWIDTH 26 0
BBX 23 43 2 -7
BITMAP
01FC00
0F9F80
1F07C0
3E03E0
7C01F0
7C01F0
F800F8
F800F8
F800F8
F800F8
F800F8
F801F8
F801F0
F803E0
F807E0
F81F80
FBFE00
FBFC00
F80F80
F803E0
F800F0
F80078
F8007C
F8007C
F8003E
F8003E
F8003E
F8003E
F8003E
F8007E
F8007C
FC00FC
FC00F8
FE03F0
FF87E0
FFFFC0
F87E00
F80000
F80000
F80000
F80000
F80000
180000
ENDCHAR
STARTCHAR 03B3
ENCODING 947
SWIDTH 520 0
DWIDTH 26 0
BBX 23 36 2 -12
BITMAP
F8003E
F8003E
78007C
7C007C
7C007C
3E00F8
3E00F8
1E01F0
1F01F0
1F01F0
0F83E0
0F83E0
07C7C0
07C7C0
07C7C0
03EF80
03EF80
01FF00
01FF00
01FF00
00FE00
00FE00
007C00
007C00
007C00
007C00
007C00
007C00
007C00
007C00
007C00
007C00
007C00
007C00
007C00
007C00
ENDCHAR
STARTCHAR 03B4
ENCODING 948
SWIDTH 520 0
DWIDTH 26 0
BBX 23 35 2 -1
BITMAP
0FFF80
1FFF80
0F0000
0F8000
07C000
03C000
03E000
01F000
00F000
00F800
03FE00
0FC3C0
1F01E0
3E00F0
3E0078
7C007C
7C007C
7C003C
F8003E
F8003E
F8003E
F8003E
F8003E
F8003E
F8003E
F8003E
F8003E
7C007C
7C007C
7C00FC
3E00F8
3F01F8
1F83F0
07FFC0
00FF00
ENDCHAR
STARTCHAR 03B5
ENCODING 949
SWIDTH 480 0
DWIDTH 24 0
BBX 20 25 2 -1
BITMAP
03FE00
1FFF80
3F0FC0
7E03E0
FC01F0
F801F0
F80000
F80000
F80000
7C0000
3E0000
1F8000
07E000
1F8000
3E0000
7C0000
F80000
F80000
F80000
F800C0
FC01F0
7C03E0
3F07E0
1FFF80
03FE00
ENDCHAR
STARTCHAR 03B6
ENCODING 950
SWIDTH 440 0
DWIDTH 22 0
BBX 18 46 1 -10
BITMAP
0FFF80
0FFFC0
0007C0
000F80
001F00
001E00
003E00
007C00
007800
00F800
01F000
01F000
03E000
03C000
07C000
078000
0F8000
1F0000
1F0000
1E0000
3E0000
3E0000
7C0000
7C0000
7C0000
F80000
F80000
F80000
F80000
F80000
F80000
FC0000
7C0000
3E0000
1F0000
07FE00
001F80
000F80
0007C0
0007C0
0007C0
0007C0
000FC0
000F80
003F00
003C00
ENDCHAR
STARTCHAR 03B7
ENCODING 951
SWIDTH 480 0
DWIDTH 24 0
BBX 21 36 1 -12
BITMAP
F9FC00
FFCF80
FF87C0
FF03E0
FE01E0
FC01F0
FC01F0
FC00F0
F800F8
F800F8
F800F8
F800F8
F800F8
F800F8
F800F8
F800F8
F800F8
F800F8
F800F8
F800F8
F800F8
F800F8
F800F8
F800F8
0000F8
0000F8
0000F8
0000F8
0000F8
0000F8
0000F8
0000F8
0000F8
0000F8
0000F8
0000F8
ENDCHAR
STARTCHAR 03B8
ENCODING 952
SWIDTH 540 0
DWIDTH 27 0
BBX 23 37 2 -1
BITMAP
00FE00
03CF80
0703C0
0F01E0
1E01F0
1C00F0
3C00F8
3C00F8
780078
78007C
78007C
78007C
F8003C
F8003E
F8003E
F8003E
F8003E
FFFFFE
FFFFFE
F8003E
F8003E
F8003E
F8003E
78003E
78003C
78007C
78007C
78007C
3C00F8
3C00F8
3E00F8
1E01F0
1F03F0
0F87E0
07EFC0
03FF80
00FE00
ENDCHAR
STARTCHAR 03B9
ENCODING 953
SWIDTH 200 0
DWIDTH 10 0
BBX 5 24 2 0
BITMAP
F8
F8
F8
F8
F8
F8
F8
F8
F8
F8
F8
F8
F8
F8
F8
F8
F8
F8
F8
F8
F8
F8
F8
F8
ENDCHAR
STARTCHAR 03BA
ENCODING 954
SWIDTH 440 0
DWIDTH 22 0
BBX 18 24 2 0
BITMAP
F80700
F80E00
F81C00
F83800
F87000
F8E000
F9C000
FB8000
FF0000
FE0000
FF0000
FF8000
FF8000
FFC000
FBE000
F9F000
F9F000
F8F800
F87C00
F83E00
F83E00
F81F00
F80F80
F807C0
ENDCHAR
STARTCHAR 03BB
ENCODING 955
SWIDTH 520 0
DWIDTH 26 0
BBX 22 36 2 0
BITMAP
0F8000
0F8000
0F8000
07C000
07C000
03C000
03E000
03E000
01F000
01F000
00F000
00F800
00F800
00FC00
00FC00
01FC00
01FE00
01FE00
03FF00
03FF00
07CF00
07CF80
07CF80
0F87C0
0F87C0
0F83C0
1F03E0
1F03E0
3E01F0
3E01F0
3E00F0
7C00F8
7C00F8
78007C
F8007C
F8007C
ENDCHAR
STARTCHAR 03BC
ENCODING 956
SWIDTH 540 0
DWIDTH 27 0
BBX 26 34 0 -10
BITMAP
1F007C00
1F007C00
1F007C00
1F007C00
1F007C00
1F007C00
1F007C00
1F007C00
1F007C00
1F007C00
1F007C00
1F007C00
1F007C00
1F007C00
1F007C00
1F007C00
1F007C00
1F807C00
1F807E00
1F807E00
1F80FE00
1FE1FE00
1F7FDFC0
1F7F9FC0
1F0E0000
1F000000
3F000000
3E000000
3E000000
3E000000
7C000000
7C000000
F8000000
70000000
ENDCHAR
STARTCHAR 03BD
ENCODING 957
SWIDTH 500 0
DWIDTH 25 0
BBX 21 24 2 0
BITMAP
F000F8
F800F8
F800F8
7801F0
7C01F0
7C01F0
3C03E0
3E03E0
3E03E0
1E07C0
1F07C0
1F07C0
0F8F80
0F8F80
0F8F00
07DF00
07DF00
07DE00
03FE00
03FE00
03FC00
01FC00
01FC00
01F800
ENDCHAR
STARTCHAR 03BE
ENCODING 958
SWIDTH 500 0
DWIDTH 25 0
BBX 23 46 1 -9
BITMAP
003F80
01FFC0
03F000
07C000
0F8000
0F8000
1F0000
1F0000
1F0000
1F0000
1F0000
1F8000
0F8000
0FC000
07E000
01F800
00F800
03F000
07C000
0F8000
1F0000
3E0000
7C0000
7C0000
780000
F80000
F80000
F80000
F80000
F80000
FC0000
7C0000
7E0000
3F0000
1FE000
07FFE0
007FF8
00007C
00007E
00003E
00003E
00003E
00007C
000078
0001F8
0003C0
ENDCHAR
STARTCHAR 03BF
ENCODING 959
SWIDTH 520 0
DWIDTH 26 0
BBX 22 25 2 -1
BITMAP
01FE00
07FF80
1F87E0
3F03F0
3E01F0
7E00F8
7C00F8
7C0078
F8007C
F8007C
F8007C
F8007C
F8007C
F8007C
F8007C
F8007C
F8007C
780078
7C00F8
7C00F8
3C00F0
3E01F0
1F03E0
0787C0
01FE00
ENDCHAR
STARTCHAR 03C0
ENCODING 960
SWIDTH 500 0
DWIDTH 25 0
BBX 21 24 2 0
BITMAP
FFFFF8
FFFFF8
1F07C0
1F07C0
1F07C0
1F07C0
1F07C0
1F07C0
1F07C0
1F07C0
1F07C0
1F07C0
1F07C0
1F07C0
1F07C0
1F07C0
1F07C0
1F07C0
1F07C0
1F07C0
1F07C0
1F07C0
1F07C0
1F07C0
ENDCHAR
STARTCHAR 03C1
ENCODING 961
SWIDTH 520 0
DWIDTH 26 0
BBX 23 36 2 -12
BITMAP
00FF00
03FFC0
0F83F0
1F01F8
1E00F8
3C007C
7C007C
78003C
78003E
F8003E
F8003E
F8003E
F8003E
F8003E
F8003E
F8003E
F8003E
FC007C
FC007C
FC007C
FE00F8
FF01F8
FF83F0
F9FFC0
F87F00
F80000
F80000
F80000
F80000
F80000
F80000
F80000
F80000
F80000
F80000
F80000
ENDCHAR
STARTCHAR 03C2
ENCODING 962
SWIDTH 500 0
DWIDTH 25 0
BBX 23 34 1 -10
BITMAP
007F80
03FF80
07E000
1F8000
1F0000
3E0000
7E0000
7C0000
FC0000
F80000
F80000
F80000
F80000
F80000
F80000
F80000
7C0000
7C0000
3E0000
3E0000
1F0000
0F8000
03E000
00FF80
0003F0
0000F8
00007C
00003C
00003E
00003E
00003E
00007C
0000F8
0000E0
ENDCHAR
STARTCHAR 03C3
ENCODING 963
SWIDTH 580 0
DWIDTH 29 0
BBX 25 25 2 -1
BITMAP
01FFFF80
07FFFF80
1F87E000
3F03E000
3E01F000
7C00F800
7C00F800
7C00F800
F8007C00
F8007C00
F8007C00
F8007C00
F8007C00
F8007C00
F8007C00
F8007C00
F8007C00
7C00F800
7C00F800
7C00F800
3E01F000
3F03F000
1F87E000
0FFFC000
01FE0000
ENDCHAR
STARTCHAR 03C4
ENCODING 964
SWIDTH 400 0
DWIDTH 20 0
BBX 18 23 0 1
BITMAP
FFFFC0
FFFFC0
01F000
01F000
01F000
01F000
01F000
01F000
01F000
01F000
01F000
01F000
01F000
01F000
01F000
01F000
01F000
01F000
01F000
01F000
01F000
01F000
01F000
ENDCHAR
STARTCHAR 03C5
ENCODING 965
SWIDTH 540 0
DWIDTH 27 0
BBX 23 25 2 -1
BITMAP
F8003E
F8003E
F8003E
F8003E
F8003E
F8003E
F8003E
F8003E
F8003E
F8003E
F8003E
F8003E
F8003E
F8003E
F8003E
F8003E
F8003E
F8003E
7C007C
7C007C
3E00F8
3F01F8
0FC7F0
07FFC0
00FE00
ENDCHAR
STARTCHAR 03C6
ENCODING 966
SWIDTH 580 0
DWIDTH 29 0
BBX 26 36 1 -12
BITMAP
00E1E000
03823800
0F061C00
1E040E00
3E040700
3C040780
7C040780
780403C0
F80403C0
F80403C0
F80403C0
F80403C0
F80403C0
F80403C0
F80403C0
780403C0
7C0407C0
7C040780
3C040780
3E040F00
1F041E00
0F043C00
03C47800
01FFE000
003F8000
00040000
00040000
00040000
00040000
00040000
00040000
00040000
00040000
00040000
00040000
00040000
ENDCHAR
STARTCHAR 03C7
ENCODING 967
SWIDTH 560 0
DWIDTH 28 0
BBX 24 36 2 -12
BITMAP
F8001F
7C003E
7C003E
3E007C
3E007C
1F00F8
1F00F8
0F81F0
0F81F0
07C3E0
07C3E0
03E7C0
03E7C0
01FF80
01FF80
00FF00
00FF00
007E00
007E00
007E00
007E00
00FF00
00FF00
01FF80
01FF80
03E7C0
03C7C0
07C3E0
0783E0
0F81F0
0F01F0
1F00F8
3E00F8
3E007C
7C003C
7C003E
ENDCHAR
STARTCHAR 03C8
ENCODING 968
SWIDTH 520 0
DWIDTH 26 0
BBX 22 36 2 -12
BITMAP
F87C7C
F87C7C
F87C7C
F87C7C
F87C7C
F87C7C
F87C7C
F87C7C
F87C7C
F87C7C
F87C7C
F87C7C
F87C7C
F87C7C
F87C7C
F87C7C
F87C7C
F87C7C
F87C7C
FC7C7C
7C7CF8
7E7CF8
3F7DF0
1FFFE0
01FF00
007C00
007C00
007C00
007C00
007C00
007C00
007C00
007C00
007C00
007C00
007C00
ENDCHAR
STARTCHAR 03C9
ENCODING 969
SWIDTH 680 0
DWIDTH 34 0
BBX 30 25 2 -1
BITMAP
00303000
00F03C00
03C00F00
07000380
0F0003C0
0E0001E0
1C0000E0
3C0000F0
3C0000F0
7C0000F8
78000078
78000078
F803007C
F803007C
F803007C
F803007C
F803007C
F803007C
F803007C
780780F8
7C0480F8
3C0CC0F0
3E1861F0
0FF03FC0
03800700
ENDCHAR
STARTCHAR 03CA
ENCODING 970
SWIDTH 260 0
DWIDTH 13 0
BBX 15 32 -1 0
BITMAP
F83E
F83E
F83E
F83E
F83E
0000
0000
0000
3FC0
07C0
07C0
07C0
07C0
07C0
07C0
07C0
07C0
07C0
07C0
07C0
07C0
07C0
07C0
07C0
07C0
07C0
07C0
07C0
07C0
07C0
3FF0
3FF0
ENDCHAR
STARTCHAR 03CB
ENCODING 971
SWIDTH 520 0
DWIDTH 26 0
BBX 23 33 2 -1
BITMAP
0F83E0
0F83E0
0F83E0
0F83E0
0F83E0
000000
000000
000000
F8003E
F8003E
F8003E
F8003E
F8003E
F8003E
F8003E
F8003E
F8003E
F8003E
F8003E
F8003E
F8003E
F8003E
F8003E
F8003E
F8003E
F8003E
7C007C
7C007C
3E00F8
3F01F8
0FC7F0
07FFC0
00FE00
ENDCHAR
STARTCHAR 03CC
ENCODING 972
SWIDTH 500 0
DWIDTH 25 0
BBX 22 35 2 -1
BITMAP
003E00
007C00
007800
00F800
00F000
01E000
03C000
00C000
000000
000000
01FE00
07FF80
1F87E0
3F03F0
3E01F0
7C00F8
7C00F8
7C00F8
F8007C
F8007C
F8007C
F8007C
F8007C
F8007C
F8007C
F8007C
F8007C
7C00F8
7C00F8
7C00F8
3E01F0
3F03F0
1F87E0
0FFFC0
01FE00
ENDCHAR
STARTCHAR 03CD
ENCODING 973
SWIDTH 500 0
DWIDTH 25 0
BBX 23 35 2 -1
BITMAP
003E00
007C00
007800
00F800
00F000
01E000
03C000
00C000
000000
000000
F8003E
F8003E
F8003E
F8003E
F8003E
F8003E
F8003E
F8003E
F8003E
F8003E
F8003E
F8003E
F8003E
F8003E
F8003E
F8003E
F8003E
F8003E
7C007C
7C007C
3E00F8
3F01F8
0FC7F0
07FFC0
00FE00
ENDCHAR
STARTCHAR 03CE
ENCODING 974
SWIDTH 660 0
DWIDTH 33 0
BBX 30 35 2 -1
BITMAP
0001F000
0003E000
0003C000
0007C000
00078000
000F0000
001E0000
00060000
00000000
00000000
00303000
00F03C00
03C00F00
07000380
0F0003C0
0E0001E0
1C0000E0
3C0000F0
3C0000F0
7C0000F8
78000078
78000078
F803007C
F803007C
F803007C
F803007C
F803007C
F803007C
F803007C
780780F8
7C0480F8
3C0CC0F0
3E1861F0
0FF03FC0
03800700
ENDCHAR
STARTCHAR 2013
ENCODING 8211
SWIDTH 500 0
DWIDTH 25 0
BBX 20 2 2 17
BITMAP
FFFFF0
FFFFF0
ENDCHAR
STARTCHAR 2014
ENCODING 8212
SWIDTH 760 0
DWIDTH 38 0
BBX 33 2 2 17
BITMAP
FFFFFFFF80
FFFFFFFF80
ENDCHAR
STARTCHAR 2018
ENCODING 8216
SWIDTH 180 0
DWIDTH 9 0
BBX 5 10 2 26
BITMAP
18
30
60
C0
C0
F8
F8
F8
F8
F8
ENDCHAR
STARTCHAR 2019
ENCODING 8217
SWIDTH 180 0
DWIDTH 9 0
BBX 5 10 2 26
BITMAP
F8
F8
F8
F8
F8
18
18
30
60
C0
ENDCHAR
STARTCHAR 201A
ENCODING 8218
SWIDTH 180 0
DWIDTH 9 0
BBX 5 10 2 -5
BITMAP
F8
F8
F8
F8
F8
38
18
30
60
C0
ENDCHAR
STARTCHAR 201C
ENCODING 8220
SWIDTH 380 0
DWIDTH 19 0
BBX 15 11 2 25
BITMAP
1806
300C
6018
C030
C030
E038
F83E
F83E
F83E
F83E
F83E
ENDCHAR
STARTCHAR 201D
ENCODING 8221
SWIDTH 380 0
DWIDTH 19 0
BBX 15 10 2 26
BITMAP
F83E
F83E
F83E
F83E
F83E
380E
1806
300C
6018
C030
ENDCHAR
STARTCHAR 201E
ENCODING 8222
SWIDTH 380 0
DWIDTH 19 0
BBX 15 10 2 -5
BITMAP
F83E
F83E
F83E
F83E
F83E
380E
1806
300C
6018
C030
ENDCHAR
STARTCHAR 2020
ENCODING 8224
SWIDTH 440 0
DWIDTH 22 0
BBX 22 45 0 -10
BITMAP
007800
007800
00FC00
00FC00
00FC00
007800
007800
007800
7C30F8
FFB7FC
FFFFFC
FFB7FC
7C30F8
003000
003000
003000
007800
007800
00FC00
01FE00
00FC00
00FC00
00FC00
007800
007800
007800
007800
007800
007800
007800
007000
003000
003000
003000
003000
003000
003000
003000
003000
003000
003000
003000
003000
003000
003000
ENDCHAR
STARTCHAR 2021
ENCODING 8225
SWIDTH 420 0
DWIDTH 21 0
BBX 22 48 -1 -12
BITMAP
007000
00F800
00F800
00F800
00F800
00F800
007000
007000
7C70F8
FFA7FC
FFFFFC
FFB7FC
7C30F8
003000
003000
003000
007800
007800
00FC00
01FE00
00FC00
007800
007800
003000
003000
007800
007800
00FC00
01FE00
00FC00
007800
007800
003000
003000
003000
7C30F8
FFA7FC
FFFFFC
FFB7FC
7C60F8
006000
00F000
00F000
00F800
00F800
00F800
00F800
007000
ENDCHAR
STARTCHAR 2022
ENCODING 8226
SWIDTH 320 0
DWIDTH 16 0
BBX 12 12 2 12
BITMAP
1F00
3FC0
7FE0
FFE0
FFF0
FFF0
FFF0
FFF0
FFE0
7FE0
3FC0
1F00
ENDCHAR
STARTCHAR 2026
ENCODING 8230
SWIDTH 860 0
DWIDTH 43 0
BBX 39 5 2 0
BITMAP
F8007C003E
F8007C003E
F8007C003E
F8007C003E
F8007C003E
ENDCHAR
STARTCHAR 2030
ENCODING 8240
SWIDTH 780 0
DWIDTH 39 0
BBX 36 37 2 -1
BITMAP
1E00C00000
7F80C00000
7380C00000
E1C1800000
E1C1800000
E1C1000000
E1C3000000
E1C3000000
E1C6000000
7386000000
7F84000000
1E0C000000
000C000000
0008000000
0018000000
0010000000
0030000000
0030000000
0020000000
0060000000
0040000000
00C0000000
00C0000000
0080000000
0180000000
0183C00F80
010FF03FE0
030E7038E0
021C387070
061C387070
061C387070
041C387070
0C1C387070
081C387070
080E7038E0
180FF03FE0
0003C00F80
ENDCHAR
STARTCHAR 2039
ENCODING 8249
SWIDTH 260 0
DWIDTH 13 0
BBX 10 15 1 10
BITMAP
07C0
0FC0
0F80
1F00
3E00
7C00
7C00
F800
7C00
7C00
3E00
1F00
0F80
07C0
07C0
ENDCHAR
STARTCHAR 203A
ENCODING 8250
SWIDTH 260 0
DWIDTH 13 0
BBX 10 21 2 7
BITMAP
8000
C000
E000
F000
F800
7800
3C00
1E00
1F00
0F80
07C0
0F80
1F00
3E00
3C00
7800
F800
F000
E000
C000
8000
ENDCHAR
STARTCHAR 2044
ENCODING 8260
SWIDTH 580 0
DWIDTH 29 0
BBX 27 36 1 0
BITMAP
00000060
00000040
000000C0
00000180
00000300
00000200
00000600
00000C00
00000800
00001000
00003000
00006000
00004000
0000C000
00018000
00030000
00020000
00060000
000C0000
00180000
00100000
00300000
00600000
00400000
00C00000
01800000
03000000
02000000
06000000
0C000000
18000000
10000000
30000000
60000000
C0000000
C0000000
ENDCHAR
STARTCHAR 20AC
ENCODING 8364
SWIDTH 520 0
DWIDTH 26 0
BBX 22 37 2 -1
BITMAP
003F80
00FBE0
01F0F8
03E0F8
07C07C
0F807C
0F8000
1F0000
1F0000
1F0000
3E0000
3E0000
FFFF00
FFFF00
3E0000
3E0000
3E0000
3E0000
3E0000
3E0000
3E0000
3E0000
FFFF00
FFFF00
3E0000
3E0000
1F0000
1F0000
1F0000
0F0000
0F8000
0F807C
07C07C
03E078
01E0F8
00FBF0
003F80
ENDCHAR
STARTCHAR 2122
ENCODING 8482
SWIDTH 980 0
DWIDTH 49 0
BBX 46 21 1 15
BITMAP
FFFFC7FC03FC
FFFFC7FC03FC
C1F040FC07E0
C1F040FE07E0
C1F040FE0FE0
01F000FE0FE0
01F000DF0FE0
01F000DF1BE0
01F000DF1BE0
01F000CF9BE0
01F000CFB3E0
01F000CFB3E0
01F000C7F3E0
01F000C7E3E0
01F000C7E3E0
01F000C3E3E0
01F000C3C3E0
01F000C3C3E0
01F000C1C3E0
0FFE07F98FFC
0FFE07F98FFC
ENDCHAR
STARTCHAR 2202
ENCODING 8706
SWIDTH 520 0
DWIDTH 26 0
BBX 22 37 2 -1
BITMAP
01F800
079E00
0F0F00
1F0780
3E03C0
0003C0
0001E0
0001E0
0001F0
0000F0
0000F0
0000F8
0000F8
000078
000078
0003FC
001FFC
00FE7C
03F87C
07E07C
1F807C
3F007C
3E007C
7C007C
7C007C
F8007C
F8007C
F800FC
F800F8
F800F8
F801F8
7C01F0
7C03E0
3E07E0
1F0FC0
0FFF00
03F800
ENDCHAR
STARTCHAR 2206
ENCODING 8710
SWIDTH 600 0
DWIDTH 30 0
BBX 24 36 3 0
BITMAP
001800
001800
003C00
003C00
003C00
007E00
007E00
005E00
00DF00
00DF00
009F00
018F00
018F80
010F80
010780
0307C0
0207C0
0203C0
0603E0
0403E0
0403E0
0C01E0
0801F0
0801F0
1800F0
1000F8
1000F8
300078
20007C
20007C
60003C
40003E
40003E
C0003E
FFFFFE
FFFFFF
ENDCHAR
STARTCHAR 220F
ENCODING 8719
SWIDTH 760 0
DWIDTH 38 0
BBX 34 48 2 -12
BITMAP
FFFFFFFFC0
FFFFFFFFC0
1F00003E00
1F00003E00
1F00003E00
1F00003E00
1F00003E00
1F00003E00
1F00003E00
1F00003E00
1F00003E00
1F00003E00
1F00003E00
1F00003E00
1F00003E00
1F00003E00
1F00003E00
1F00003E00
1F00003E00
1F00003E00
1F00003E00
1F00003E00
1F00003E00
1F00003E00
1F00003E00
1F00003E00
1F00003E00
1F00003E00
1F00003E00
1F00003E00
1F00003E00
1F00003E00
1F00003E00
1F00003E00
1F00003E00
1F00003E00
1F00003E00
1F00003E00
1F00003E00
1F00003E00
1F00003E00
1F00003E00
1F00003E00
1F00003E00
1F00003E00
1F00003E00
FFE001FFC0
FFE001FFC0
ENDCHAR
STARTCHAR 2210
ENCODING 8720
SWIDTH 760 0
DWIDTH 38 0
BBX 34 48 2 -12
BITMAP
FFE001FFC0
FFE001FFC0
1F00003E00
1F00003E00
1F00003E00
1F00003E00
1F00003E00
1F00003E00
1F00003E00
1F00003E00
1F00003E00
1F00003E00
1F00003E00
1F00003E00
1F00003E00
1F00003E00
1F00003E00
1F00003E00
1F00003E00
1F00003E00
1F00003E00
1F00003E00
1F00003E00
1F00003E00
1F00003E00
1F00003E00
1F00003E00
1F00003E00
1F00003E00
1F00003E00
1F00003E00
1F00003E00
1F00003E00
1F00003E00
1F00003E00
1F00003E00
1F00003E00
1F00003E00
1F00003E00
1F00003E00
1F00003E00
1F00003E00
1F00003E00
1F00003E00
1F00003E00
1F00003E00
FFFFFFFFC0
FFFFFFFFC0
ENDCHAR
STARTCHAR 2211
ENCODING 8721
SWIDTH 620 0
DWIDTH 31 0
BBX 27 46 2 -10
BITMAP
FFFFFFE0
7FFFFFE0
3C000020
3E000020
1F000020
0F000000
0F800000
07C00000
07C00000
03E00000
01E00000
01F00000
00F80000
00780000
007C0000
003E0000
003E0000
001F0000
000F8000
000F8000
0007C000
0003E000
0003E000
0001C000
0001C000
00018000
00030000
00060000
000C0000
000C0000
00180000
00300000
00600000
00600000
00C00000
01800000
03000000
02000000
06000060
0C000060
18000060
1FFFFFE0
3FFFFFE0
7FFFFFE0
FFFFFFE0
FFFFFFE0
ENDCHAR
STARTCHAR 2212
ENCODING 8722
SWIDTH 400 0
DWIDTH 20 0
BBX 16 2 2 17
BITMAP
FFFF
FFFF
ENDCHAR
STARTCHAR 2215
ENCODING 8725
SWIDTH 580 0
DWIDTH 29 0
BBX 27 36 1 0
BITMAP
00000060
00000040
000000C0
00000180
00000300
00000200
00000600
00000C00
00000800
00001000
00003000
00006000
00004000
0000C000
00018000
00030000
00020000
00060000
000C0000
00180000
00100000
00300000
00600000
00400000
00C00000
01800000
03000000
02000000
06000000
0C000000
18000000
10000000
30000000
60000000
C0000000
C0000000
ENDCHAR
STARTCHAR 2219
ENCODING 8729
SWIDTH 200 0
DWIDTH 10 0
BBX 5 5 2 19
BITMAP
F8
F8
F8
F8
F8
ENDCHAR
STARTCHAR 221A
ENCODING 8730
SWIDTH 480 0
DWIDTH 24 0
BBX 19 38 1 0
BITMAP
000060
000040
0000C0
0000C0
0000C0
0000C0
000080
000180
000180
000180
000100
000300
000300
000300
000200
000600
000600
000600
000400
000C00
FE0C00
3E0C00
1E0C00
1F0800
1F1800
0F9800
0F9800
0F9000
07F000
07F000
03F000
03E000
03E000
01E000
01E000
00C000
00C000
00C000
ENDCHAR
STARTCHAR 221E
ENCODING 8734
SWIDTH 740 0
DWIDTH 37 0
BBX 33 15 2 6
BITMAP
000007E000
07E03FFC00
1FF8783E00
383CE00F00
701FC00700
E00FC00780
E007800380
E007800380
E007800380
E00FC00380
700FC00700
383CE00F00
1FF8783E00
07E03FF800
00000FE000
ENDCHAR
STARTCHAR 221F
ENCODING 8735
SWIDTH 580 0
DWIDTH 29 0
BBX 27 35 2 0
BITMAP
F8000000
F8000000
F8000000
F8000000
F8000000
F8000000
F8000000
F8000000
F8000000
F8000000
F8000000
F8000000
F8000000
F8000000
F8000000
F8000000
F8000000
F8000000
F8000000
F8000000
F8000000
F8000000
F8000000
F8000000
F8000000
F8000000
F8000000
F8000000
F8000000
F8000000
F8000000
F8000000
F8000000
FFFFFFE0
7FFFFFE0
ENDCHAR
STARTCHAR 222B
ENCODING 8747
SWIDTH 360 0
DWIDTH 18 0
BBX 17 48 1 -12
BITMAP
00FC00
01FE00
03FF00
03FF00
03EF80
03E000
03E000
03E000
03E000
03E000
03E000
03E000
03E000
03E000
03E000
03E000
03E000
03E000
03E000
03E000
03E000
03E000
03E000
03E000
03E000
03E000
03E000
03E000
03E000
03E000
03E000
03E000
03E000
03E000
03E000
03E000
03E000
03E000
03E000
03E000
03E000
03E000
03E000
FBE000
7FE000
7FE000
3FC000
1F8000
ENDCHAR
STARTCHAR 2248
ENCODING 8776
SWIDTH 520 0
DWIDTH 26 0
BBX 23 15 2 12
BITMAP
0FC000
3FF07E
7CF8FC
F83FF0
000FC0
000000
000000
000000
000000
000000
0FC000
3FF07E
7CF8FC
F83FF0
000FC0
ENDCHAR
STARTCHAR 2249
ENCODING 8777
SWIDTH 500 0
DWIDTH 25 0
BBX 23 26 1 6
BITMAP
0007C0
000780
000F80
000F80
000F00
001F00
1FFF00
7EFE7C
F87EF8
003FF0
007C00
007C00
007C00
00F800
00F800
0FF800
3FF03E
7DFC7C
F9FFF0
03E7C0
03E000
03E000
07C000
07C000
07C000
0F8000
ENDCHAR
STARTCHAR 2260
ENCODING 8800
SWIDTH 400 0
DWIDTH 20 0
BBX 18 27 1 5
BITMAP
0007C0
0007C0
000F80
000F80
001F00
003F00
FFFF80
FFFF80
007C00
007C00
00F800
01F000
01F000
03E000
03E000
07C000
07C000
FFFF80
FFFF80
1F0000
1F0000
3E0000
3E0000
7E0000
7C0000
FC0000
180000
ENDCHAR
STARTCHAR 2261
ENCODING 8801
SWIDTH 380 0
DWIDTH 19 0
BBX 17 22 1 7
BITMAP
FFFF80
FFFF80
000000
000000
000000
000000
000000
000000
000000
000000
FFFF80
FFFF80
000000
000000
000000
000000
000000
000000
000000
000000
FFFF80
FFFF80
ENDCHAR
STARTCHAR 2262
ENCODING 8802
SWIDTH 420 0
DWIDTH 21 0
BBX 19 33 1 2
BITMAP
0003E0
0003E0
0007C0
0007C0
000F80
000F80
FFFF80
FFFF80
001F00
003E00
003E00
007C00
007C00
00F800
00F800
00F000
FFFF80
FFFF80
03E000
03E000
03C000
07C000
07C000
0F8000
0F8000
1F0000
FFFF80
FFFF80
3E0000
3E0000
7C0000
7C0000
F80000
ENDCHAR
STARTCHAR 2264
ENCODING 8804
SWIDTH 540 0
DWIDTH 27 0
BBX 24 31 2 2
BITMAP
00001E
00007C
0001F8
0003E0
000F80
003F00
007C00
01F800
07E000
0F8000
3F0000
7C0000
F00000
FC0000
3E0000
0F8000
07E000
01F000
007C00
003F00
000F80
0007E0
0001F0
00007C
00003F
000000
000000
000000
000000
7FFFF8
7FFFF8
ENDCHAR
STARTCHAR 2265
ENCODING 8805
SWIDTH 540 0
DWIDTH 27 0
BBX 24 30 2 3
BITMAP
F80000
7C0000
1F0000
0FC000
03E000
01F800
007C00
001F00
000FC0
0003E0
0000F8
00007E
00001F
00007C
0001F8
0003E0
000FC0
001F00
007C00
01F800
03E000
0F8000
3F0000
7C0000
780000
000000
000000
000000
7FFFF8
7FFFF8
ENDCHAR
STARTCHAR 226E
ENCODING 8814
SWIDTH 560 0
DWIDTH 28 0
BBX 24 34 2 1
BITMAP
0001F0
0001F0
0001F0
0003E0
0003E0
0003FF
0003FC
0007F8
0007E0
000FC0
001FC0
007F80
01FF80
03EF80
0F8F80
3F1F00
7C1F00
F81F00
7E1E00
1F3E00
0FFE00
03FE00
00FC00
007E00
007F80
007FC0
007BF0
00F8F8
00F83E
00F800
01F000
01F000
01F000
01F000
ENDCHAR
STARTCHAR 226F
ENCODING 8815
SWIDTH 560 0
DWIDTH 28 0
BBX 24 34 2 1
BITMAP
0F8000
0F8000
0F8000
0F8000
07C000
FFC000
7FC000
1FC000
07E000
03F000
03F800
03FE00
01FF80
01F7C0
01F1F0
00F0F8
00F83E
00F81F
00F87E
0079F8
007FE0
007FC0
007F00
007C00
01FE00
07FE00
0FBE00
3E1E00
FC1F00
001F00
001F00
000F80
000F80
000F80
ENDCHAR
STARTCHAR 2310
ENCODING 8976
SWIDTH 540 0
DWIDTH 27 0
BBX 25 12 2 12
BITMAP
FFFFFF80
FFFFFF80
C0000000
C0000000
C0000000
C0000000
C0000000
C0000000
C0000000
C0000000
C0000000
C0000000
ENDCHAR
STARTCHAR 2500
ENCODING 9472
SWIDTH 620 0
DWIDTH 31 0
BBX 27 2 2 17
BITMAP
FFFFFFE0
FFFFFFE0
ENDCHAR
STARTCHAR 2502
ENCODING 9474
SWIDTH 200 0
DWIDTH 10 0
BBX 5 36 2 0
BITMAP
F8
F8
F8
F8
F8
F8
F8
F8
F8
F8
F8
F8
F8
F8
F8
F8
F8
F8
F8
F8
F8
F8
F8
F8
F8
F8
F8
F8
F8
F8
F8
F8
F8
F8
F8
F8
ENDCHAR
STARTCHAR 250C
ENCODING 9484
SWIDTH 460 0
DWIDTH 23 0
BBX 20 24 2 0
BITMAP
7FFFF0
FFFFF0
F80000
F80000
F80000
F80000
F80000
F80000
F80000
F80000
F80000
F80000
F80000
F80000
F80000
F80000
F80000
F80000
F80000
F80000
F80000
F80000
F80000
F80000
ENDCHAR
STARTCHAR 2510
ENCODING 9488
SWIDTH 460 0
DWIDTH 23 0
BBX 20 24 1 0
BITMAP
FFFFE0
FFFFF0
0001F0
0001F0
0001F0
0001F0
0001F0
0001F0
0001F0
0001F0
0001F0
0001F0
0001F0
0001F0
0001F0
0001F0
0001F0
0001F0
0001F0
0001F0
0001F0
0001F0
0001F0
0001F0
ENDCHAR
STARTCHAR 2514
ENCODING 9492
SWIDTH 460 0
DWIDTH 23 0
BBX 20 19 2 17
BITMAP
F80000
F80000
F80000
F80000
F80000
F80000
F80000
F80000
F80000
F80000
F80000
F80000
F80000
F80000
F80000
F80000
F80000
FFFFF0
7FFFF0
ENDCHAR
STARTCHAR 2518
ENCODING 9496
SWIDTH 460 0
DWIDTH 23 0
BBX 20 19 1 17
BITMAP
0001F0
0001F0
0001F0
0001F0
0001F0
0001F0
0001F0
0001F0
0001F0
0001F0
0001F0
0001F0
0001F0
0001F0
0001F0
0001F0
0001F0
FFFFF0
FFFFE0
ENDCHAR
STARTCHAR 251C
ENCODING 9500
SWIDTH 420 0
DWIDTH 21 0
BBX 18 36 2 0
BITMAP
F80000
F80000
F80000
F80000
F80000
F80000
F80000
F80000
F80000
F80000
F80000
F80000
F80000
F80000
F80000
F80000
F80000
FFFFC0
FFFFC0
F80000
F80000
F80000
F80000
F80000
F80000
F80000
F80000
F80000
F80000
F80000
F80000
F80000
F80000
F80000
F80000
F80000
ENDCHAR
STARTCHAR 2524
ENCODING 9508
SWIDTH 420 0
DWIDTH 21 0
BBX 18 36 1 0
BITMAP
0007C0
0007C0
0007C0
0007C0
0007C0
0007C0
0007C0
0007C0
0007C0
0007C0
0007C0
0007C0
0007C0
0007C0
0007C0
0007C0
0007C0
FFFFC0
FFFFC0
0007C0
0007C0
0007C0
0007C0
0007C0
0007C0
0007C0
0007C0
0007C0
0007C0
0007C0
0007C0
0007C0
0007C0
0007C0
0007C0
0007C0
ENDCHAR
STARTCHAR 252C
ENCODING 9516
SWIDTH 600 0
DWIDTH 30 0
BBX 29 19 1 0
BITMAP
FFFFFFF8
FFFFFFF8
000F8000
000F8000
000F8000
000F8000
000F8000
000F8000
000F8000
000F8000
000F8000
000F8000
000F8000
000F8000
000F8000
000F8000
000F8000
000F8000
000F8000
ENDCHAR
STARTCHAR 2534
ENCODING 9524
SWIDTH 600 0
DWIDTH 30 0
BBX 29 22 1 14
BITMAP
000F8000
000F8000
000F8000
000F8000
000F8000
000F8000
000F8000
000F8000
000F8000
000F8000
000F8000
000F8000
000F8000
000F8000
000F8000
000F8000
000F8000
000F8000
000F8000
000F8000
FFFFFFF8
FFFFFFF8
ENDCHAR
STARTCHAR 253C
ENCODING 9532
SWIDTH 560 0
DWIDTH 28 0
BBX 27 36 1 0
BITMAP
001F0000
001F0000
001F0000
001F0000
001F0000
001F0000
001F0000
001F0000
001F0000
001F0000
001F0000
001F0000
001F0000
001F0000
001F0000
001F0000
001F0000
001F0000
001F0000
001F0000
FFFFFFE0
FFFFFFE0
001F0000
001F0000
001F0000
001F0000
001F0000
001F0000
001F0000
001F0000
001F0000
001F0000
001F0000
001F0000
001F0000
001F0000
ENDCHAR
STARTCHAR 2550
ENCODING 9552
SWIDTH 600 0
DWIDTH 30 0
BBX 27 9 2 10
BITMAP
FFFFFFE0
FFFFFFE0
00000000
00000000
00000000
00000000
00000000
FFFFFFE0
FFFFFFE0
ENDCHAR
STARTCHAR 2551
ENCODING 9553
SWIDTH 320 0
DWIDTH 16 0
BBX 12 36 2 0
BITMAP
F9F0
F9F0
F9F0
F9F0
F9F0
F9F0
F9F0
F9F0
F9F0
F9F0
F9F0
F9F0
F9F0
F9F0
F9F0
F9F0
F9F0
F9F0
F9F0
F9F0
F9F0
F9F0
F9F0
F9F0
F9F0
F9F0
F9F0
F9F0
F9F0
F9F0
F9F0
F9F0
F9F0
F9F0
F9F0
F9F0
ENDCHAR
STARTCHAR 2552
ENCODING 9554
SWIDTH 460 0
DWIDTH 23 0
BBX 20 19 2 0
BITMAP
7FFFF0
FFFFF0
F80000
F80000
F80000
F80000
F80000
FFFFF0
FFFFF0
F80000
F80000
F80000
F80000
F80000
F80000
F80000
F80000
F80000
F80000
ENDCHAR
STARTCHAR 2553
ENCODING 9555
SWIDTH 460 0
DWIDTH 23 0
BBX 20 19 2 0
BITMAP
7FFFF0
FFFFF0
F9F000
F9F000
F9F000
F9F000
F9F000
F9F000
F9F000
F9F000
F9F000
F9F000
F9F000
F9F000
F9F000
F9F000
F9F000
F9F000
F9F000
ENDCHAR
STARTCHAR 2554
ENCODING 9556
SWIDTH 460 0
DWIDTH 23 0
BBX 20 19 2 0
BITMAP
7FFFF0
FFFFF0
F80000
F80000
F80000
F80000
F80000
F8FFF0
F9FFF0
F9F000
F9F000
F9F000
F9F000
F9F000
F9F000
F9F000
F9F000
F9F000
F9F000
ENDCHAR
STARTCHAR 2555
ENCODING 9557
SWIDTH 460 0
DWIDTH 23 0
BBX 20 19 1 0
BITMAP
FFFFE0
FFFFF0
0001F0
0001F0
0001F0
0001F0
0001F0
FFFFF0
FFFFF0
0001F0
0001F0
0001F0
0001F0
0001F0
0001F0
0001F0
0001F0
0001F0
0001F0
ENDCHAR
STARTCHAR 2556
ENCODING 9558
SWIDTH 480 0
DWIDTH 24 0
BBX 21 19 1 0
BITMAP
FFFFF0
FFFFF8
007CF8
007CF8
007CF8
007CF8
007CF8
007CF8
007CF8
007CF8
007CF8
007CF8
007CF8
007CF8
007CF8
007CF8
007CF8
007CF8
007CF8
ENDCHAR
STARTCHAR 2557
ENCODING 9559
SWIDTH 480 0
DWIDTH 24 0
BBX 20 19 2 0
BITMAP
FFFFE0
FFFFF0
0001F0
0001F0
0001F0
0001F0
0001F0
0001F0
FFF9F0
FFFDF0
007DF0
007DF0
007DF0
007DF0
007DF0
007DF0
007DF0
007DF0
007DF0
ENDCHAR
STARTCHAR 2558
ENCODING 9560
SWIDTH 460 0
DWIDTH 23 0
BBX 20 24 2 12
BITMAP
F80000
F80000
F80000
F80000
F80000
F80000
F80000
F80000
F80000
F80000
F80000
F80000
F80000
F80000
F80000
FFFFF0
FFFFF0
F80000
F80000
F80000
F80000
F80000
FFFFF0
7FFFF0
ENDCHAR
STARTCHAR 2559
ENCODING 9561
SWIDTH 460 0
DWIDTH 23 0
BBX 20 21 2 15
BITMAP
F9F000
F9F000
F9F000
F9F000
F9F000
F9F000
F9F000
F9F000
F9F000
F9F000
F9F000
F9F000
F9F000
F9F000
F9F000
F9F000
F9F000
F9F000
F9F000
FFFFF0
7FFFF0
ENDCHAR
STARTCHAR 255A
ENCODING 9562
SWIDTH 460 0
DWIDTH 23 0
BBX 20 24 2 12
BITMAP
F9F000
F9F000
F9F000
F9F000
F9F000
F9F000
F9F000
F9F000
F9F000
F9F000
F9F000
F9F000
F9F000
F9F000
F9F000
F9FFF0
F8FFF0
F80000
F80000
F80000
F80000
F80000
FFFFF0
7FFFF0
ENDCHAR
STARTCHAR 255B
ENCODING 9563
SWIDTH 460 0
DWIDTH 23 0
BBX 20 24 1 12
BITMAP
0001F0
0001F0
0001F0
0001F0
0001F0
0001F0
0001F0
0001F0
0001F0
0001F0
0001F0
0001F0
0001F0
0001F0
0001F0
FFFFF0
FFFFF0
0001F0
0001F0
0001F0
0001F0
0001F0
FFFFF0
FFFFE0
ENDCHAR
STARTCHAR 255C
ENCODING 9564
SWIDTH 480 0
DWIDTH 24 0
BBX 21 21 1 15
BITMAP
007CF8
007CF8
007CF8
007CF8
007CF8
007CF8
007CF8
007CF8
007CF8
007CF8
007CF8
007CF8
007CF8
007CF8
007CF8
007CF8
007CF8
007CF8
007CF8
FFFFF8
FFFFF0
ENDCHAR
STARTCHAR 255D
ENCODING 9565
SWIDTH 460 0
DWIDTH 23 0
BBX 20 24 1 12
BITMAP
007DF0
007DF0
007DF0
007DF0
007DF0
007DF0
007DF0
007DF0
007DF0
007DF0
007DF0
007DF0
007DF0
007DF0
007DF0
FFFDF0
FFF9F0
0001F0
0001F0
0001F0
0001F0
0001F0
FFFFF0
FFFFE0
ENDCHAR
STARTCHAR 255E
ENCODING 9566
SWIDTH 420 0
DWIDTH 21 0
BBX 18 36 2 0
BITMAP
F80000
F80000
F80000
F80000
F80000
F80000
F80000
F80000
F80000
F80000
F80000
F80000
F80000
F80000
F80000
F80000
F80000
FFFFC0
FFFFC0
F80000
F80000
F80000
F80000
F80000
FFFFC0
FFFFC0
F80000
F80000
F80000
F80000
F80000
F80000
F80000
F80000
F80000
F80000
ENDCHAR
STARTCHAR 255F
ENCODING 9567
SWIDTH 460 0
DWIDTH 23 0
BBX 20 36 2 0
BITMAP
F9F000
F9F000
F9F000
F9F000
F9F000
F9F000
F9F000
F9F000
F9F000
F9F000
F9F000
F9F000
F9F000
F9F000
F9F000
F9F000
F9F000
F9F000
F9F000
F9F000
F9FFF0
F9FFF0
F9F000
F9F000
F9F000
F9F000
F9F000
F9F000
F9F000
F9F000
F9F000
F9F000
F9F000
F9F000
F9F000
F9F000
ENDCHAR
STARTCHAR 2560
ENCODING 9568
SWIDTH 460 0
DWIDTH 23 0
BBX 20 36 2 0
BITMAP
F9F000
F9F000
F9F000
F9F000
F9F000
F9F000
F9F000
F9F000
F9F000
F9F000
F9F000
F9F000
F9F000
F9F000
F9F000
F9FFF0
F8FFF0
F80000
F80000
F80000
F80000
F80000
F8FFF0
F9FFF0
F9F000
F9F000
F9F000
F9F000
F9F000
F9F000
F9F000
F9F000
F9F000
F9F000
F9F000
F9F000
ENDCHAR
STARTCHAR 2561
ENCODING 9569
SWIDTH 420 0
DWIDTH 21 0
BBX 18 38 1 -2
BITMAP
0007C0
0007C0
0007C0
0007C0
0007C0
0007C0
0007C0
0007C0
0007C0
0007C0
0007C0
0007C0
0007C0
0007C0
0007C0
0007C0
0007C0
FFFFC0
FFFFC0
0007C0
0007C0
0007C0
0007C0
0007C0
FFFFC0
FFFFC0
0007C0
0007C0
0007C0
0007C0
0007C0
0007C0
0007C0
0007C0
0007C0
0007C0
0007C0
0007C0
ENDCHAR
STARTCHAR 2562
ENCODING 9570
SWIDTH 460 0
DWIDTH 23 0
BBX 21 36 0 0
BITMAP
007CF8
007CF8
007CF8
007CF8
007CF8
007CF8
007CF8
007CF8
007CF8
007CF8
007CF8
007CF8
007CF8
007CF8
007CF8
007CF8
007CF8
007CF8
007CF8
007CF8
FFFCF8
FFFCF8
007CF8
007CF8
007CF8
007CF8
007CF8
007CF8
007CF8
007CF8
007CF8
007CF8
007CF8
007CF8
007CF8
007CF8
ENDCHAR
STARTCHAR 2563
ENCODING 9571
SWIDTH 460 0
DWIDTH 23 0
BBX 21 36 0 0
BITMAP
007CF8
007CF8
007CF8
007CF8
007CF8
007CF8
007CF8
007CF8
007CF8
007CF8
007CF8
007CF8
007CF8
007CF8
007CF8
FFFCF8
FFF8F8
0000F8
0000F8
0000F8
0000F8
0000F8
FFF8F8
FFFCF8
007CF8
007CF8
007CF8
007CF8
007CF8
007CF8
007CF8
007CF8
007CF8
007CF8
007CF8
007CF8
ENDCHAR
STARTCHAR 2564
ENCODING 9572
SWIDTH 600 0
DWIDTH 30 0
BBX 29 19 1 0
BITMAP
FFFFFFF0
FFFFFFF0
00000000
00000000
00000000
00000000
00000000
FFFFFFF8
FFFFFFF8
000F8000
000F8000
000F8000
000F8000
000F8000
000F8000
000F8000
000F8000
000F8000
000F8000
ENDCHAR
STARTCHAR 2565
ENCODING 9573
SWIDTH 620 0
DWIDTH 31 0
BBX 28 19 1 0
BITMAP
FFFFFFF0
FFFFFFF0
007DF000
007DF000
007DF000
007DF000
007DF000
007DF000
007DF000
007DF000
007DF000
007DF000
007DF000
007DF000
007DF000
007DF000
007DF000
007DF000
007DF000
ENDCHAR
STARTCHAR 2566
ENCODING 9574
SWIDTH 600 0
DWIDTH 30 0
BBX 28 19 1 0
BITMAP
FFFFFFF0
FFFFFFF0
00000000
00000000
00000000
00000000
00000000
FFF8FFE0
FFFDFC00
007DF000
007DF000
007DF000
007DF000
007DF000
007DF000
007DF000
007DF000
007DF000
007DF000
ENDCHAR
STARTCHAR 2567
ENCODING 9575
SWIDTH 600 0
DWIDTH 30 0
BBX 29 24 1 12
BITMAP
000F8000
000F8000
000F8000
000F8000
000F8000
000F8000
000F8000
000F8000
000F8000
000F8000
000F8000
000F8000
000F8000
000F8000
000F8000
FFFFFFF8
FFFFFFF8
00000000
00000000
00000000
00000000
00000000
FFFFFFF0
FFFFFFF0
ENDCHAR
STARTCHAR 2568
ENCODING 9576
SWIDTH 620 0
DWIDTH 31 0
BBX 28 22 1 14
BITMAP
007DF000
007DF000
007DF000
007DF000
007DF000
007DF000
007DF000
007DF000
007DF000
007DF000
007DF000
007DF000
007DF000
007DF000
007DF000
007DF000
007DF000
007DF000
007DF000
007DF000
FFFFFFF0
FFFFFFF0
ENDCHAR
STARTCHAR 2569
ENCODING 9577
SWIDTH 600 0
DWIDTH 30 0
BBX 28 24 1 12
BITMAP
007DF000
007DF000
007DF000
007DF000
007DF000
007DF000
007DF000
007DF000
007DF000
007DF000
007DF000
007DF000
007DF000
007DF000
007DF000
FFFDFFF0
FFF8FFF0
00000000
00000000
00000000
00000000
00000000
FFFFFFF0
FFFFFFF0
ENDCHAR
STARTCHAR 256A
ENCODING 9578
SWIDTH 600 0
DWIDTH 30 0
BBX 29 36 1 0
BITMAP
001F0000
001F0000
001F0000
001F0000
001F0000
001F0000
001F0000
001F0000
001F0000
001F0000
001F0000
001F0000
001F0000
001F0000
001F0000
FFFFFFF8
FFFFFFF8
001F0000
001F0000
001F0000
001F0000
001F0000
FFFFFFF8
FFFFFFF8
001F0000
001F0000
001F0000
001F0000
001F0000
001F0000
001F0000
001F0000
001F0000
001F0000
001F0000
001F0000
ENDCHAR
STARTCHAR 256B
ENCODING 9579
SWIDTH 600 0
DWIDTH 30 0
BBX 28 36 1 0
BITMAP
007DF000
007DF000
007DF000
007DF000
007DF000
007DF000
007DF000
007DF000
007DF000
007DF000
007DF000
007DF000
007DF000
007DF000
007DF000
007DF000
007DF000
FFFFFFF0
FFFFFFF0
007DF000
007DF000
007DF000
007DF000
007DF000
007DF000
007DF000
007DF000
007DF000
007DF000
007DF000
007DF000
007DF000
007DF000
007DF000
007DF000
007DF000
ENDCHAR
STARTCHAR 256C
ENCODING 9580
SWIDTH 620 0
DWIDTH 31 0
BBX 29 36 1 0
BITMAP
007CF800
007CF800
007CF800
007CF800
007CF800
007CF800
007CF800
007CF800
007CF800
007CF800
007CF800
007CF800
007CF800
007CF800
007CF800
FFFCFFF8
FFF87FF8
00000000
00000000
00000000
00000000
00000000
FFF87FF8
FFFCFFF8
007CF800
007CF800
007CF800
007CF800
007CF800
007CF800
007CF800
007CF800
007CF800
007CF800
007CF800
007CF800
ENDCHAR
STARTCHAR 263A
ENCODING 9786
SWIDTH 860 0
DWIDTH 43 0
BBX 39 40 2 0
BITMAP
0001FE0000
000FFFE000
003E01F800
00F0003C00
01C0000F00
0300000380
06000001C0
0C000000E0
1800000060
1000000030
2000000038
6000000018
4007C3E01C
4007C3E00C
4007C3E00C
8007C3E00C
8000000006
8000000006
8000000006
8000000006
8000000006
8000000006
8000000006
8000000006
804000080E
404000080C
406000180C
403000301C
6018006018
200F01C038
1003FF0030
1800FC0060
0C000000E0
06000001C0
0300000380
01C0000F00
00E0003C00
003E01F800
000FFFE000
0001FE0000
ENDCHAR
STARTCHAR 2640
ENCODING 9792
SWIDTH 620 0
DWIDTH 31 0
BBX 29 42 1 -4
BITMAP
001FC000
00FFF800
01E03E00
03000F00
0E000380
0C0001C0
180000E0
30000060
20000070
60000030
40000030
40000018
40000018
40000018
C0000018
40000018
40000018
40000018
40000030
60000030
20000070
30000060
180000E0
0C0001C0
0E000380
07000F00
01E03E00
00FFF800
001FE000
00030000
00030000
00030000
00030000
00030000
00030000
00030000
00FFF800
00FFF800
00030000
00030000
00030000
00030000
ENDCHAR
STARTCHAR 2641
ENCODING 9793
SWIDTH 460 0
DWIDTH 23 0
BBX 1 1 0 0
BITMAP
00
ENDCHAR
STARTCHAR 2642
ENCODING 9794
SWIDTH 740 0
DWIDTH 37 0
BBX 33 33 2 0
BITMAP
0000007F80
0000007F80
0000000380
0000000580
0000001980
003F803180
00FFF06180
03C07CC180
06001F8000
1C00070000
1000038000
200001C000
600000C000
4000006000
C000006000
8000006000
8000003000
8000003000
8000003000
8000003000
8000003000
8000003000
8000007000
8000006000
4000006000
600000C000
200001C000
1000038000
1C00070000
06001E0000
03C07C0000
00FFF00000
003FC00000
ENDCHAR
STARTCHAR 2663
ENCODING 9827
SWIDTH 660 0
DWIDTH 33 0
BBX 32 34 1 0
BITMAP
0007E000
001FF800
003FFC00
007FFE00
007FFE00
00FFFF00
00FFFF00
00FFFF00
00FFFF00
00FFFF00
00FFFF00
00FFFF00
01FFFF80
0FFFFFF0
1FFFFFF8
3FFFFFFC
7FFFFFFE
7FFFFFFE
7FFFFFFE
FFFFFFFF
FFFFFFFF
7FFFFFFF
7FFFFFFE
7FFFFFFE
3FFFFFFC
3FFFFFFC
1FFDBFF8
07F18FE0
00018000
00018000
00018000
00018000
0007F000
0007F000
ENDCHAR
STARTCHAR 2665
ENCODING 9829
SWIDTH 700 0
DWIDTH 35 0
BBX 32 34 2 1
BITMAP
07E007C0
1FF81FF0
3FFC7FF8
7FFE7FFC
7FFEFFFE
FFFFFFFE
FFFFFFFE
FFFFFFFF
FFFFFFFF
FFFFFFFF
FFFFFFFF
FFFFFFFF
FFFFFFFE
FFFFFFFE
7FFFFFFE
7FFFFFFC
7FFFFFFC
3FFFFFFC
3FFFFFF8
1FFFFFF8
1FFFFFF0
0FFFFFE0
07FFFFE0
07FFFFC0
03FFFF80
01FFFF80
00FFFF00
00FFFE00
007FFC00
003FF800
001FF000
000FE000
0003C000
00010000
ENDCHAR
STARTCHAR 2666
ENCODING 9830
SWIDTH 540 0
DWIDTH 27 0
BBX 24 38 1 -1
BITMAP
000800
001800
001C00
003E00
007E00
007F00
00FF00
00FF80
01FFC0
03FFC0
03FFE0
07FFF0
0FFFF0
0FFFF8
1FFFFC
3FFFFC
3FFFFE
7FFFFE
7FFFFF
FFFFFF
7FFFFF
3FFFFE
3FFFFC
1FFFFC
1FFFF8
0FFFF8
07FFF0
07FFE0
03FFE0
01FFC0
01FF80
00FF80
007F00
007E00
003E00
001C00
001800
000800
ENDCHAR
STARTCHAR 2669
ENCODING 9833
SWIDTH 420 0
DWIDTH 21 0
BBX 19 37 0 0
BITMAP
000060
000060
000060
000060
000060
000060
000060
000060
000060
000060
000060
000060
000060
000060
000060
000060
000060
000060
000060
000060
000060
000060
000060
000060
000060
01FC60
07FF60
1FFFE0
3FFFE0
7FFFE0
7FFFE0
FFFFE0
7FFFC0
7FFF80
3FFF00
1FFE00
07F000
ENDCHAR
STARTCHAR 266A
ENCODING 9834
SWIDTH 640 0
DWIDTH 32 0
BBX 31 39 0 -1
BITMAP
00006000
00006000
00006000
00007F80
00007FE0
000061F0
000060F8
000060F8
00006078
0000607C
0000607C
0000603E
00006010
00006000
00006000
00006000
00006000
00006000
00006000
00006000
00006000
00006000
00006000
00006000
00006000
00006000
00006000
01FC6000
0FFF6000
1FFFE000
3FFFE000
7FFFE000
7FFFE000
FFFFE000
7FFFC000
7FFF8000
3FFF0000
1FFE0000
07F00000
ENDCHAR
STARTCHAR 266B
ENCODING 9835
SWIDTH 840 0
DWIDTH 42 0
BBX 39 44 1 -4
BITMAP
0000000006
00000000FE
0000001FFE
000001FFFE
00003FFFFE
00007FFF86
00007FF806
00007F0006
0000700006
0000600006
0000600006
0000600006
0000600006
0000600006
0000600006
0000600006
0000600006
0000600006
0000600006
0000600006
0000600006
0000600006
0000600006
0000600006
0000600006
0000600006
0000600006
0000600006
0000603FE6
000060FFFE
000061FFFE
000063FFFE
01FC67FFFE
0FFF67FFFE
1FFFEFFFFE
3FFFE7FFFC
7FFFE7FFF8
7FFFE3FFF0
FFFFE1FFC0
7FFFC00800
7FFFC00000
3FFF000000
1FFE000000
07F0000000
ENDCHAR
STARTCHAR 266C
ENCODING 9836
SWIDTH 840 0
DWIDTH 42 0
BBX 39 43 1 -2
BITMAP
0000000006
00000000FE
0000001FFE
000003FFFE
00003FFFE6
00007FFC06
00007FC006
0000780006
0000600006
0000600006
0000600006
000060001E
00006003FE
0000603FFE
000067FFF6
00007FFF06
00007FE006
00007E0006
0000600006
0000600006
0000600006
0000600006
0000600006
0000600006
0000600006
0000600006
0000600006
0000601FC6
000060FFF6
000061FFFE
000063FFFE
007867FFFE
07FF67FFFE
1FFFEFFFFE
3FFFE7FFFC
7FFFE7FFF8
7FFFE3FFF0
FFFFE1FFE0
7FFFC07F00
7FFFC00000
3FFF000000
1FFE000000
07F0000000
ENDCHAR
STARTCHAR FB01
ENCODING 64257
SWIDTH 460 0
DWIDTH 23 0
BBX 20 36 1 0
BITMAP
03E000
0FF800
0F9800
1F0000
1F0000
1F0000
1F0000
1F0000
1F0000
1F0000
1F0000
1F0000
FFFFC0
FFE7C0
1F07C0
1F07C0
1F07C0
1F07C0
1F07C0
1F07C0
1F07C0
1F07C0
1F07C0
1F07C0
1F07C0
1F07C0
1F07C0
1F07C0
1F07C0
1F07C0
1F07C0
1F07C0
1F07C0
1F07C0
FFFFF0
FFFFF0
ENDCHAR
STARTCHAR FB02
ENCODING 64258
SWIDTH 460 0
DWIDTH 23 0
BBX 21 36 1 0
BITMAP
03FFC0
0FFFC0
0F9FC0
1F07C0
1F07C0
1F07C0
1F07C0
1F07C0
1F07C0
1F07C0
1F07C0
1F07C0
FFE7C0
FFE7C0
1F07C0
1F07C0
1F07C0
1F07C0
1F07C0
1F07C0
1F07C0
1F07C0
1F07C0
1F07C0
1F07C0
1F07C0
1F07C0
1F07C0
1F07C0
1F07C0
1F07C0
1F07C0
1F07C0
1F07C0
FFFFF8
FFFFF8
ENDCHAR
ENDFONT
